<?xml version="1.0" encoding="utf-8" standalone="no"?>
<!DOCTYPE svg PUBLIC "-//W3C//DTD SVG 1.1//EN"
  "http://www.w3.org/Graphics/SVG/1.1/DTD/svg11.dtd">
<svg xmlns:xlink="http://www.w3.org/1999/xlink" width="1141.50902pt" height="361.937535pt" viewBox="0 0 1141.50902 361.937535" xmlns="http://www.w3.org/2000/svg" version="1.1">
 <metadata>
  <rdf:RDF xmlns:dc="http://purl.org/dc/elements/1.1/" xmlns:cc="http://creativecommons.org/ns#" xmlns:rdf="http://www.w3.org/1999/02/22-rdf-syntax-ns#">
   <cc:Work>
    <dc:type rdf:resource="http://purl.org/dc/dcmitype/StillImage"/>
    <dc:date>2026-03-27T00:58:18.773633</dc:date>
    <dc:format>image/svg+xml</dc:format>
    <dc:creator>
     <cc:Agent>
      <dc:title>Matplotlib v3.10.1, https://matplotlib.org/</dc:title>
     </cc:Agent>
    </dc:creator>
   </cc:Work>
  </rdf:RDF>
 </metadata>
 <defs>
  <style type="text/css">*{stroke-linejoin: round; stroke-linecap: butt}</style>
 </defs>
 <g id="figure_1">
  <g id="patch_1">
   <path d="M 0 361.937535 
L 1141.50902 361.937535 
L 1141.50902 0 
L 0 0 
z
" style="fill: #ffffff"/>
  </g>
  <g id="axes_1">
   <g id="patch_2">
    <path d="M 56.737031 289.988967 
L 1057.189031 289.988967 
L 1057.189031 22.663594 
L 56.737031 22.663594 
z
" style="fill: #ffffff"/>
   </g>
   <g id="matplotlib.axis_1">
    <g id="xtick_1">
     <g id="text_1">
      <!-- APX1090 -->
      <g style="fill: #262626" transform="translate(87.789685 337.922872) rotate(-45) scale(0.11 -0.11)">
       <defs>
        <path id="ArialMT-41" d="M -9 0 
L 1750 4581 
L 2403 4581 
L 4278 0 
L 3588 0 
L 3053 1388 
L 1138 1388 
L 634 0 
L -9 0 
z
M 1313 1881 
L 2866 1881 
L 2388 3150 
Q 2169 3728 2063 4100 
Q 1975 3659 1816 3225 
L 1313 1881 
z
" transform="scale(0.015625)"/>
        <path id="ArialMT-50" d="M 494 0 
L 494 4581 
L 2222 4581 
Q 2678 4581 2919 4538 
Q 3256 4481 3484 4323 
Q 3713 4166 3852 3881 
Q 3991 3597 3991 3256 
Q 3991 2672 3619 2267 
Q 3247 1863 2275 1863 
L 1100 1863 
L 1100 0 
L 494 0 
z
M 1100 2403 
L 2284 2403 
Q 2872 2403 3119 2622 
Q 3366 2841 3366 3238 
Q 3366 3525 3220 3729 
Q 3075 3934 2838 4000 
Q 2684 4041 2272 4041 
L 1100 4041 
L 1100 2403 
z
" transform="scale(0.015625)"/>
        <path id="ArialMT-58" d="M 28 0 
L 1800 2388 
L 238 4581 
L 959 4581 
L 1791 3406 
Q 2050 3041 2159 2844 
Q 2313 3094 2522 3366 
L 3444 4581 
L 4103 4581 
L 2494 2422 
L 4228 0 
L 3478 0 
L 2325 1634 
Q 2228 1775 2125 1941 
Q 1972 1691 1906 1597 
L 756 0 
L 28 0 
z
" transform="scale(0.015625)"/>
        <path id="ArialMT-31" d="M 2384 0 
L 1822 0 
L 1822 3584 
Q 1619 3391 1289 3197 
Q 959 3003 697 2906 
L 697 3450 
Q 1169 3672 1522 3987 
Q 1875 4303 2022 4600 
L 2384 4600 
L 2384 0 
z
" transform="scale(0.015625)"/>
        <path id="ArialMT-30" d="M 266 2259 
Q 266 3072 433 3567 
Q 600 4063 929 4331 
Q 1259 4600 1759 4600 
Q 2128 4600 2406 4451 
Q 2684 4303 2865 4023 
Q 3047 3744 3150 3342 
Q 3253 2941 3253 2259 
Q 3253 1453 3087 958 
Q 2922 463 2592 192 
Q 2263 -78 1759 -78 
Q 1097 -78 719 397 
Q 266 969 266 2259 
z
M 844 2259 
Q 844 1131 1108 757 
Q 1372 384 1759 384 
Q 2147 384 2411 759 
Q 2675 1134 2675 2259 
Q 2675 3391 2411 3762 
Q 2147 4134 1753 4134 
Q 1366 4134 1134 3806 
Q 844 3388 844 2259 
z
" transform="scale(0.015625)"/>
        <path id="ArialMT-39" d="M 350 1059 
L 891 1109 
Q 959 728 1153 556 
Q 1347 384 1650 384 
Q 1909 384 2104 503 
Q 2300 622 2425 820 
Q 2550 1019 2634 1356 
Q 2719 1694 2719 2044 
Q 2719 2081 2716 2156 
Q 2547 1888 2255 1720 
Q 1963 1553 1622 1553 
Q 1053 1553 659 1965 
Q 266 2378 266 3053 
Q 266 3750 677 4175 
Q 1088 4600 1706 4600 
Q 2153 4600 2523 4359 
Q 2894 4119 3086 3673 
Q 3278 3228 3278 2384 
Q 3278 1506 3087 986 
Q 2897 466 2520 194 
Q 2144 -78 1638 -78 
Q 1100 -78 759 220 
Q 419 519 350 1059 
z
M 2653 3081 
Q 2653 3566 2395 3850 
Q 2138 4134 1775 4134 
Q 1400 4134 1122 3828 
Q 844 3522 844 3034 
Q 844 2597 1108 2323 
Q 1372 2050 1759 2050 
Q 2150 2050 2401 2323 
Q 2653 2597 2653 3081 
z
" transform="scale(0.015625)"/>
       </defs>
       <use xlink:href="#ArialMT-41"/>
       <use xlink:href="#ArialMT-50" transform="translate(66.699219 0)"/>
       <use xlink:href="#ArialMT-58" transform="translate(133.398438 0)"/>
       <use xlink:href="#ArialMT-31" transform="translate(200.097656 0)"/>
       <use xlink:href="#ArialMT-30" transform="translate(255.712891 0)"/>
       <use xlink:href="#ArialMT-39" transform="translate(311.328125 0)"/>
       <use xlink:href="#ArialMT-30" transform="translate(366.943359 0)"/>
      </g>
     </g>
    </g>
    <g id="xtick_2">
     <g id="text_2">
      <!-- APX1092 -->
      <g style="fill: #262626" transform="translate(178.739867 337.922872) rotate(-45) scale(0.11 -0.11)">
       <defs>
        <path id="ArialMT-32" d="M 3222 541 
L 3222 0 
L 194 0 
Q 188 203 259 391 
Q 375 700 629 1000 
Q 884 1300 1366 1694 
Q 2113 2306 2375 2664 
Q 2638 3022 2638 3341 
Q 2638 3675 2398 3904 
Q 2159 4134 1775 4134 
Q 1369 4134 1125 3890 
Q 881 3647 878 3216 
L 300 3275 
Q 359 3922 746 4261 
Q 1134 4600 1788 4600 
Q 2447 4600 2831 4234 
Q 3216 3869 3216 3328 
Q 3216 3053 3103 2787 
Q 2991 2522 2730 2228 
Q 2469 1934 1863 1422 
Q 1356 997 1212 845 
Q 1069 694 975 541 
L 3222 541 
z
" transform="scale(0.015625)"/>
       </defs>
       <use xlink:href="#ArialMT-41"/>
       <use xlink:href="#ArialMT-50" transform="translate(66.699219 0)"/>
       <use xlink:href="#ArialMT-58" transform="translate(133.398438 0)"/>
       <use xlink:href="#ArialMT-31" transform="translate(200.097656 0)"/>
       <use xlink:href="#ArialMT-30" transform="translate(255.712891 0)"/>
       <use xlink:href="#ArialMT-39" transform="translate(311.328125 0)"/>
       <use xlink:href="#ArialMT-32" transform="translate(366.943359 0)"/>
      </g>
     </g>
    </g>
    <g id="xtick_3">
     <g id="text_3">
      <!-- APX1130 -->
      <g style="fill: #262626" transform="translate(269.976869 337.349232) rotate(-45) scale(0.11 -0.11)">
       <defs>
        <path id="ArialMT-33" d="M 269 1209 
L 831 1284 
Q 928 806 1161 595 
Q 1394 384 1728 384 
Q 2125 384 2398 659 
Q 2672 934 2672 1341 
Q 2672 1728 2419 1979 
Q 2166 2231 1775 2231 
Q 1616 2231 1378 2169 
L 1441 2663 
Q 1497 2656 1531 2656 
Q 1891 2656 2178 2843 
Q 2466 3031 2466 3422 
Q 2466 3731 2256 3934 
Q 2047 4138 1716 4138 
Q 1388 4138 1169 3931 
Q 950 3725 888 3313 
L 325 3413 
Q 428 3978 793 4289 
Q 1159 4600 1703 4600 
Q 2078 4600 2393 4439 
Q 2709 4278 2876 4000 
Q 3044 3722 3044 3409 
Q 3044 3113 2884 2869 
Q 2725 2625 2413 2481 
Q 2819 2388 3044 2092 
Q 3269 1797 3269 1353 
Q 3269 753 2831 336 
Q 2394 -81 1725 -81 
Q 1122 -81 723 278 
Q 325 638 269 1209 
z
" transform="scale(0.015625)"/>
       </defs>
       <use xlink:href="#ArialMT-41"/>
       <use xlink:href="#ArialMT-50" transform="translate(66.699219 0)"/>
       <use xlink:href="#ArialMT-58" transform="translate(133.398438 0)"/>
       <use xlink:href="#ArialMT-31" transform="translate(200.097656 0)"/>
       <use xlink:href="#ArialMT-31" transform="translate(248.337891 0)"/>
       <use xlink:href="#ArialMT-33" transform="translate(303.953125 0)"/>
       <use xlink:href="#ArialMT-30" transform="translate(359.568359 0)"/>
      </g>
     </g>
    </g>
    <g id="xtick_4">
     <g id="text_4">
      <!-- APX1145 -->
      <g style="fill: #262626" transform="translate(360.927051 337.349232) rotate(-45) scale(0.11 -0.11)">
       <defs>
        <path id="ArialMT-34" d="M 2069 0 
L 2069 1097 
L 81 1097 
L 81 1613 
L 2172 4581 
L 2631 4581 
L 2631 1613 
L 3250 1613 
L 3250 1097 
L 2631 1097 
L 2631 0 
L 2069 0 
z
M 2069 1613 
L 2069 3678 
L 634 1613 
L 2069 1613 
z
" transform="scale(0.015625)"/>
        <path id="ArialMT-35" d="M 266 1200 
L 856 1250 
Q 922 819 1161 601 
Q 1400 384 1738 384 
Q 2144 384 2425 690 
Q 2706 997 2706 1503 
Q 2706 1984 2436 2262 
Q 2166 2541 1728 2541 
Q 1456 2541 1237 2417 
Q 1019 2294 894 2097 
L 366 2166 
L 809 4519 
L 3088 4519 
L 3088 3981 
L 1259 3981 
L 1013 2750 
Q 1425 3038 1878 3038 
Q 2478 3038 2890 2622 
Q 3303 2206 3303 1553 
Q 3303 931 2941 478 
Q 2500 -78 1738 -78 
Q 1113 -78 717 272 
Q 322 622 266 1200 
z
" transform="scale(0.015625)"/>
       </defs>
       <use xlink:href="#ArialMT-41"/>
       <use xlink:href="#ArialMT-50" transform="translate(66.699219 0)"/>
       <use xlink:href="#ArialMT-58" transform="translate(133.398438 0)"/>
       <use xlink:href="#ArialMT-31" transform="translate(200.097656 0)"/>
       <use xlink:href="#ArialMT-31" transform="translate(248.337891 0)"/>
       <use xlink:href="#ArialMT-34" transform="translate(303.953125 0)"/>
       <use xlink:href="#ArialMT-35" transform="translate(359.568359 0)"/>
      </g>
     </g>
    </g>
    <g id="xtick_5">
     <g id="text_5">
      <!-- APX1173 -->
      <g style="fill: #262626" transform="translate(451.877232 337.349232) rotate(-45) scale(0.11 -0.11)">
       <defs>
        <path id="ArialMT-37" d="M 303 3981 
L 303 4522 
L 3269 4522 
L 3269 4084 
Q 2831 3619 2401 2847 
Q 1972 2075 1738 1259 
Q 1569 684 1522 0 
L 944 0 
Q 953 541 1156 1306 
Q 1359 2072 1739 2783 
Q 2119 3494 2547 3981 
L 303 3981 
z
" transform="scale(0.015625)"/>
       </defs>
       <use xlink:href="#ArialMT-41"/>
       <use xlink:href="#ArialMT-50" transform="translate(66.699219 0)"/>
       <use xlink:href="#ArialMT-58" transform="translate(133.398438 0)"/>
       <use xlink:href="#ArialMT-31" transform="translate(200.097656 0)"/>
       <use xlink:href="#ArialMT-31" transform="translate(248.337891 0)"/>
       <use xlink:href="#ArialMT-37" transform="translate(303.953125 0)"/>
       <use xlink:href="#ArialMT-33" transform="translate(359.568359 0)"/>
      </g>
     </g>
    </g>
    <g id="xtick_6">
     <g id="text_6">
      <!-- APX1186 -->
      <g style="fill: #262626" transform="translate(542.827414 337.349232) rotate(-45) scale(0.11 -0.11)">
       <defs>
        <path id="ArialMT-38" d="M 1131 2484 
Q 781 2613 612 2850 
Q 444 3088 444 3419 
Q 444 3919 803 4259 
Q 1163 4600 1759 4600 
Q 2359 4600 2725 4251 
Q 3091 3903 3091 3403 
Q 3091 3084 2923 2848 
Q 2756 2613 2416 2484 
Q 2838 2347 3058 2040 
Q 3278 1734 3278 1309 
Q 3278 722 2862 322 
Q 2447 -78 1769 -78 
Q 1091 -78 675 323 
Q 259 725 259 1325 
Q 259 1772 486 2073 
Q 713 2375 1131 2484 
z
M 1019 3438 
Q 1019 3113 1228 2906 
Q 1438 2700 1772 2700 
Q 2097 2700 2305 2904 
Q 2513 3109 2513 3406 
Q 2513 3716 2298 3927 
Q 2084 4138 1766 4138 
Q 1444 4138 1231 3931 
Q 1019 3725 1019 3438 
z
M 838 1322 
Q 838 1081 952 856 
Q 1066 631 1291 507 
Q 1516 384 1775 384 
Q 2178 384 2440 643 
Q 2703 903 2703 1303 
Q 2703 1709 2433 1975 
Q 2163 2241 1756 2241 
Q 1359 2241 1098 1978 
Q 838 1716 838 1322 
z
" transform="scale(0.015625)"/>
        <path id="ArialMT-36" d="M 3184 3459 
L 2625 3416 
Q 2550 3747 2413 3897 
Q 2184 4138 1850 4138 
Q 1581 4138 1378 3988 
Q 1113 3794 959 3422 
Q 806 3050 800 2363 
Q 1003 2672 1297 2822 
Q 1591 2972 1913 2972 
Q 2475 2972 2870 2558 
Q 3266 2144 3266 1488 
Q 3266 1056 3080 686 
Q 2894 316 2569 119 
Q 2244 -78 1831 -78 
Q 1128 -78 684 439 
Q 241 956 241 2144 
Q 241 3472 731 4075 
Q 1159 4600 1884 4600 
Q 2425 4600 2770 4297 
Q 3116 3994 3184 3459 
z
M 888 1484 
Q 888 1194 1011 928 
Q 1134 663 1356 523 
Q 1578 384 1822 384 
Q 2178 384 2434 671 
Q 2691 959 2691 1453 
Q 2691 1928 2437 2201 
Q 2184 2475 1800 2475 
Q 1419 2475 1153 2201 
Q 888 1928 888 1484 
z
" transform="scale(0.015625)"/>
       </defs>
       <use xlink:href="#ArialMT-41"/>
       <use xlink:href="#ArialMT-50" transform="translate(66.699219 0)"/>
       <use xlink:href="#ArialMT-58" transform="translate(133.398438 0)"/>
       <use xlink:href="#ArialMT-31" transform="translate(200.097656 0)"/>
       <use xlink:href="#ArialMT-31" transform="translate(248.337891 0)"/>
       <use xlink:href="#ArialMT-38" transform="translate(303.953125 0)"/>
       <use xlink:href="#ArialMT-36" transform="translate(359.568359 0)"/>
      </g>
     </g>
    </g>
    <g id="xtick_7">
     <g id="text_7">
      <!-- APX1225 -->
      <g style="fill: #262626" transform="translate(633.490776 337.922872) rotate(-45) scale(0.11 -0.11)">
       <use xlink:href="#ArialMT-41"/>
       <use xlink:href="#ArialMT-50" transform="translate(66.699219 0)"/>
       <use xlink:href="#ArialMT-58" transform="translate(133.398438 0)"/>
       <use xlink:href="#ArialMT-31" transform="translate(200.097656 0)"/>
       <use xlink:href="#ArialMT-32" transform="translate(255.712891 0)"/>
       <use xlink:href="#ArialMT-32" transform="translate(311.328125 0)"/>
       <use xlink:href="#ArialMT-35" transform="translate(366.943359 0)"/>
      </g>
     </g>
    </g>
    <g id="xtick_8">
     <g id="text_8">
      <!-- APX1278 -->
      <g style="fill: #262626" transform="translate(724.440958 337.922872) rotate(-45) scale(0.11 -0.11)">
       <use xlink:href="#ArialMT-41"/>
       <use xlink:href="#ArialMT-50" transform="translate(66.699219 0)"/>
       <use xlink:href="#ArialMT-58" transform="translate(133.398438 0)"/>
       <use xlink:href="#ArialMT-31" transform="translate(200.097656 0)"/>
       <use xlink:href="#ArialMT-32" transform="translate(255.712891 0)"/>
       <use xlink:href="#ArialMT-37" transform="translate(311.328125 0)"/>
       <use xlink:href="#ArialMT-38" transform="translate(366.943359 0)"/>
      </g>
     </g>
    </g>
    <g id="xtick_9">
     <g id="text_9">
      <!-- PE002 -->
      <g style="fill: #262626" transform="translate(820.147979 328.409193) rotate(-45) scale(0.11 -0.11)">
       <defs>
        <path id="ArialMT-45" d="M 506 0 
L 506 4581 
L 3819 4581 
L 3819 4041 
L 1113 4041 
L 1113 2638 
L 3647 2638 
L 3647 2100 
L 1113 2100 
L 1113 541 
L 3925 541 
L 3925 0 
L 506 0 
z
" transform="scale(0.015625)"/>
       </defs>
       <use xlink:href="#ArialMT-50"/>
       <use xlink:href="#ArialMT-45" transform="translate(66.699219 0)"/>
       <use xlink:href="#ArialMT-30" transform="translate(133.398438 0)"/>
       <use xlink:href="#ArialMT-30" transform="translate(189.013672 0)"/>
       <use xlink:href="#ArialMT-32" transform="translate(244.628906 0)"/>
      </g>
     </g>
    </g>
    <g id="xtick_10">
     <g id="text_10">
      <!-- PE017 -->
      <g style="fill: #262626" transform="translate(911.098161 328.409193) rotate(-45) scale(0.11 -0.11)">
       <use xlink:href="#ArialMT-50"/>
       <use xlink:href="#ArialMT-45" transform="translate(66.699219 0)"/>
       <use xlink:href="#ArialMT-30" transform="translate(133.398438 0)"/>
       <use xlink:href="#ArialMT-31" transform="translate(189.013672 0)"/>
       <use xlink:href="#ArialMT-37" transform="translate(244.628906 0)"/>
      </g>
     </g>
    </g>
    <g id="xtick_11">
     <g id="text_11">
      <!-- PE019 -->
      <g style="fill: #262626" transform="translate(1002.048343 328.409193) rotate(-45) scale(0.11 -0.11)">
       <use xlink:href="#ArialMT-50"/>
       <use xlink:href="#ArialMT-45" transform="translate(66.699219 0)"/>
       <use xlink:href="#ArialMT-30" transform="translate(133.398438 0)"/>
       <use xlink:href="#ArialMT-31" transform="translate(189.013672 0)"/>
       <use xlink:href="#ArialMT-39" transform="translate(244.628906 0)"/>
      </g>
     </g>
    </g>
    <g id="text_12">
     <!-- Query Family -->
     <g style="fill: #262626" transform="translate(521.293031 352.21191) scale(0.12 -0.12)">
      <defs>
       <path id="ArialMT-51" d="M 3966 491 
Q 4388 200 4744 66 
L 4566 -356 
Q 4072 -178 3581 206 
Q 3072 -78 2456 -78 
Q 1834 -78 1328 222 
Q 822 522 548 1065 
Q 275 1609 275 2291 
Q 275 2969 550 3525 
Q 825 4081 1333 4372 
Q 1841 4663 2469 4663 
Q 3103 4663 3612 4361 
Q 4122 4059 4389 3517 
Q 4656 2975 4656 2294 
Q 4656 1728 4484 1276 
Q 4313 825 3966 491 
z
M 2631 1266 
Q 3156 1119 3497 828 
Q 4031 1316 4031 2294 
Q 4031 2850 3842 3265 
Q 3653 3681 3289 3911 
Q 2925 4141 2472 4141 
Q 1794 4141 1347 3677 
Q 900 3213 900 2291 
Q 900 1397 1342 919 
Q 1784 441 2472 441 
Q 2797 441 3084 563 
Q 2800 747 2484 825 
L 2631 1266 
z
" transform="scale(0.015625)"/>
       <path id="ArialMT-75" d="M 2597 0 
L 2597 488 
Q 2209 -75 1544 -75 
Q 1250 -75 995 37 
Q 741 150 617 320 
Q 494 491 444 738 
Q 409 903 409 1263 
L 409 3319 
L 972 3319 
L 972 1478 
Q 972 1038 1006 884 
Q 1059 663 1231 536 
Q 1403 409 1656 409 
Q 1909 409 2131 539 
Q 2353 669 2445 892 
Q 2538 1116 2538 1541 
L 2538 3319 
L 3100 3319 
L 3100 0 
L 2597 0 
z
" transform="scale(0.015625)"/>
       <path id="ArialMT-65" d="M 2694 1069 
L 3275 997 
Q 3138 488 2766 206 
Q 2394 -75 1816 -75 
Q 1088 -75 661 373 
Q 234 822 234 1631 
Q 234 2469 665 2931 
Q 1097 3394 1784 3394 
Q 2450 3394 2872 2941 
Q 3294 2488 3294 1666 
Q 3294 1616 3291 1516 
L 816 1516 
Q 847 969 1125 678 
Q 1403 388 1819 388 
Q 2128 388 2347 550 
Q 2566 713 2694 1069 
z
M 847 1978 
L 2700 1978 
Q 2663 2397 2488 2606 
Q 2219 2931 1791 2931 
Q 1403 2931 1139 2672 
Q 875 2413 847 1978 
z
" transform="scale(0.015625)"/>
       <path id="ArialMT-72" d="M 416 0 
L 416 3319 
L 922 3319 
L 922 2816 
Q 1116 3169 1280 3281 
Q 1444 3394 1641 3394 
Q 1925 3394 2219 3213 
L 2025 2691 
Q 1819 2813 1613 2813 
Q 1428 2813 1281 2702 
Q 1134 2591 1072 2394 
Q 978 2094 978 1738 
L 978 0 
L 416 0 
z
" transform="scale(0.015625)"/>
       <path id="ArialMT-79" d="M 397 -1278 
L 334 -750 
Q 519 -800 656 -800 
Q 844 -800 956 -737 
Q 1069 -675 1141 -563 
Q 1194 -478 1313 -144 
Q 1328 -97 1363 -6 
L 103 3319 
L 709 3319 
L 1400 1397 
Q 1534 1031 1641 628 
Q 1738 1016 1872 1384 
L 2581 3319 
L 3144 3319 
L 1881 -56 
Q 1678 -603 1566 -809 
Q 1416 -1088 1222 -1217 
Q 1028 -1347 759 -1347 
Q 597 -1347 397 -1278 
z
" transform="scale(0.015625)"/>
       <path id="ArialMT-20" transform="scale(0.015625)"/>
       <path id="ArialMT-46" d="M 525 0 
L 525 4581 
L 3616 4581 
L 3616 4041 
L 1131 4041 
L 1131 2622 
L 3281 2622 
L 3281 2081 
L 1131 2081 
L 1131 0 
L 525 0 
z
" transform="scale(0.015625)"/>
       <path id="ArialMT-61" d="M 2588 409 
Q 2275 144 1986 34 
Q 1697 -75 1366 -75 
Q 819 -75 525 192 
Q 231 459 231 875 
Q 231 1119 342 1320 
Q 453 1522 633 1644 
Q 813 1766 1038 1828 
Q 1203 1872 1538 1913 
Q 2219 1994 2541 2106 
Q 2544 2222 2544 2253 
Q 2544 2597 2384 2738 
Q 2169 2928 1744 2928 
Q 1347 2928 1158 2789 
Q 969 2650 878 2297 
L 328 2372 
Q 403 2725 575 2942 
Q 747 3159 1072 3276 
Q 1397 3394 1825 3394 
Q 2250 3394 2515 3294 
Q 2781 3194 2906 3042 
Q 3031 2891 3081 2659 
Q 3109 2516 3109 2141 
L 3109 1391 
Q 3109 606 3145 398 
Q 3181 191 3288 0 
L 2700 0 
Q 2613 175 2588 409 
z
M 2541 1666 
Q 2234 1541 1622 1453 
Q 1275 1403 1131 1340 
Q 988 1278 909 1158 
Q 831 1038 831 891 
Q 831 666 1001 516 
Q 1172 366 1500 366 
Q 1825 366 2078 508 
Q 2331 650 2450 897 
Q 2541 1088 2541 1459 
L 2541 1666 
z
" transform="scale(0.015625)"/>
       <path id="ArialMT-6d" d="M 422 0 
L 422 3319 
L 925 3319 
L 925 2853 
Q 1081 3097 1340 3245 
Q 1600 3394 1931 3394 
Q 2300 3394 2536 3241 
Q 2772 3088 2869 2813 
Q 3263 3394 3894 3394 
Q 4388 3394 4653 3120 
Q 4919 2847 4919 2278 
L 4919 0 
L 4359 0 
L 4359 2091 
Q 4359 2428 4304 2576 
Q 4250 2725 4106 2815 
Q 3963 2906 3769 2906 
Q 3419 2906 3187 2673 
Q 2956 2441 2956 1928 
L 2956 0 
L 2394 0 
L 2394 2156 
Q 2394 2531 2256 2718 
Q 2119 2906 1806 2906 
Q 1569 2906 1367 2781 
Q 1166 2656 1075 2415 
Q 984 2175 984 1722 
L 984 0 
L 422 0 
z
" transform="scale(0.015625)"/>
       <path id="ArialMT-69" d="M 425 3934 
L 425 4581 
L 988 4581 
L 988 3934 
L 425 3934 
z
M 425 0 
L 425 3319 
L 988 3319 
L 988 0 
L 425 0 
z
" transform="scale(0.015625)"/>
       <path id="ArialMT-6c" d="M 409 0 
L 409 4581 
L 972 4581 
L 972 0 
L 409 0 
z
" transform="scale(0.015625)"/>
      </defs>
      <use xlink:href="#ArialMT-51"/>
      <use xlink:href="#ArialMT-75" transform="translate(77.783203 0)"/>
      <use xlink:href="#ArialMT-65" transform="translate(133.398438 0)"/>
      <use xlink:href="#ArialMT-72" transform="translate(189.013672 0)"/>
      <use xlink:href="#ArialMT-79" transform="translate(222.314453 0)"/>
      <use xlink:href="#ArialMT-20" transform="translate(272.314453 0)"/>
      <use xlink:href="#ArialMT-46" transform="translate(300.097656 0)"/>
      <use xlink:href="#ArialMT-61" transform="translate(361.181641 0)"/>
      <use xlink:href="#ArialMT-6d" transform="translate(416.796875 0)"/>
      <use xlink:href="#ArialMT-69" transform="translate(500.097656 0)"/>
      <use xlink:href="#ArialMT-6c" transform="translate(522.314453 0)"/>
      <use xlink:href="#ArialMT-79" transform="translate(544.53125 0)"/>
     </g>
    </g>
   </g>
   <g id="matplotlib.axis_2">
    <g id="ytick_1">
     <g id="line2d_1">
      <path d="M 56.737031 288.224335 
L 1057.189031 288.224335 
" clip-path="url(#p5be521ba72)" style="fill: none; stroke: #cccccc; stroke-linecap: round"/>
     </g>
     <g id="text_13">
      <!-- −100 -->
      <g style="fill: #262626" transform="translate(22.46125 292.161132) scale(0.11 -0.11)">
       <defs>
        <path id="ArialMT-2212" d="M 3381 1997 
L 356 1997 
L 356 2522 
L 3381 2522 
L 3381 1997 
z
" transform="scale(0.015625)"/>
       </defs>
       <use xlink:href="#ArialMT-2212"/>
       <use xlink:href="#ArialMT-31" transform="translate(58.398438 0)"/>
       <use xlink:href="#ArialMT-30" transform="translate(114.013672 0)"/>
       <use xlink:href="#ArialMT-30" transform="translate(169.628906 0)"/>
      </g>
     </g>
    </g>
    <g id="ytick_2">
     <g id="line2d_2">
      <path d="M 56.737031 238.194887 
L 1057.189031 238.194887 
" clip-path="url(#p5be521ba72)" style="fill: none; stroke: #cccccc; stroke-linecap: round"/>
     </g>
     <g id="text_14">
      <!-- −80 -->
      <g style="fill: #262626" transform="translate(28.578281 242.131684) scale(0.11 -0.11)">
       <use xlink:href="#ArialMT-2212"/>
       <use xlink:href="#ArialMT-38" transform="translate(58.398438 0)"/>
       <use xlink:href="#ArialMT-30" transform="translate(114.013672 0)"/>
      </g>
     </g>
    </g>
    <g id="ytick_3">
     <g id="line2d_3">
      <path d="M 56.737031 188.16544 
L 1057.189031 188.16544 
" clip-path="url(#p5be521ba72)" style="fill: none; stroke: #cccccc; stroke-linecap: round"/>
     </g>
     <g id="text_15">
      <!-- −60 -->
      <g style="fill: #262626" transform="translate(28.578281 192.102236) scale(0.11 -0.11)">
       <use xlink:href="#ArialMT-2212"/>
       <use xlink:href="#ArialMT-36" transform="translate(58.398438 0)"/>
       <use xlink:href="#ArialMT-30" transform="translate(114.013672 0)"/>
      </g>
     </g>
    </g>
    <g id="ytick_4">
     <g id="line2d_4">
      <path d="M 56.737031 138.135992 
L 1057.189031 138.135992 
" clip-path="url(#p5be521ba72)" style="fill: none; stroke: #cccccc; stroke-linecap: round"/>
     </g>
     <g id="text_16">
      <!-- −40 -->
      <g style="fill: #262626" transform="translate(28.578281 142.072789) scale(0.11 -0.11)">
       <use xlink:href="#ArialMT-2212"/>
       <use xlink:href="#ArialMT-34" transform="translate(58.398438 0)"/>
       <use xlink:href="#ArialMT-30" transform="translate(114.013672 0)"/>
      </g>
     </g>
    </g>
    <g id="ytick_5">
     <g id="line2d_5">
      <path d="M 56.737031 88.106544 
L 1057.189031 88.106544 
" clip-path="url(#p5be521ba72)" style="fill: none; stroke: #cccccc; stroke-linecap: round"/>
     </g>
     <g id="text_17">
      <!-- −20 -->
      <g style="fill: #262626" transform="translate(28.578281 92.043341) scale(0.11 -0.11)">
       <use xlink:href="#ArialMT-2212"/>
       <use xlink:href="#ArialMT-32" transform="translate(58.398438 0)"/>
       <use xlink:href="#ArialMT-30" transform="translate(114.013672 0)"/>
      </g>
     </g>
    </g>
    <g id="ytick_6">
     <g id="line2d_6">
      <path d="M 56.737031 38.077096 
L 1057.189031 38.077096 
" clip-path="url(#p5be521ba72)" style="fill: none; stroke: #cccccc; stroke-linecap: round"/>
     </g>
     <g id="text_18">
      <!-- 0 -->
      <g style="fill: #262626" transform="translate(41.12 42.013893) scale(0.11 -0.11)">
       <use xlink:href="#ArialMT-30"/>
      </g>
     </g>
    </g>
    <g id="text_19">
     <!-- Delta Energy (%) -->
     <g style="fill: #262626" transform="translate(15.935625 202.006905) rotate(-90) scale(0.12 -0.12)">
      <defs>
       <path id="ArialMT-44" d="M 494 0 
L 494 4581 
L 2072 4581 
Q 2606 4581 2888 4516 
Q 3281 4425 3559 4188 
Q 3922 3881 4101 3404 
Q 4281 2928 4281 2316 
Q 4281 1794 4159 1391 
Q 4038 988 3847 723 
Q 3656 459 3429 307 
Q 3203 156 2883 78 
Q 2563 0 2147 0 
L 494 0 
z
M 1100 541 
L 2078 541 
Q 2531 541 2789 625 
Q 3047 709 3200 863 
Q 3416 1078 3536 1442 
Q 3656 1806 3656 2325 
Q 3656 3044 3420 3430 
Q 3184 3816 2847 3947 
Q 2603 4041 2063 4041 
L 1100 4041 
L 1100 541 
z
" transform="scale(0.015625)"/>
       <path id="ArialMT-74" d="M 1650 503 
L 1731 6 
Q 1494 -44 1306 -44 
Q 1000 -44 831 53 
Q 663 150 594 308 
Q 525 466 525 972 
L 525 2881 
L 113 2881 
L 113 3319 
L 525 3319 
L 525 4141 
L 1084 4478 
L 1084 3319 
L 1650 3319 
L 1650 2881 
L 1084 2881 
L 1084 941 
Q 1084 700 1114 631 
Q 1144 563 1211 522 
Q 1278 481 1403 481 
Q 1497 481 1650 503 
z
" transform="scale(0.015625)"/>
       <path id="ArialMT-6e" d="M 422 0 
L 422 3319 
L 928 3319 
L 928 2847 
Q 1294 3394 1984 3394 
Q 2284 3394 2536 3286 
Q 2788 3178 2913 3003 
Q 3038 2828 3088 2588 
Q 3119 2431 3119 2041 
L 3119 0 
L 2556 0 
L 2556 2019 
Q 2556 2363 2490 2533 
Q 2425 2703 2258 2804 
Q 2091 2906 1866 2906 
Q 1506 2906 1245 2678 
Q 984 2450 984 1813 
L 984 0 
L 422 0 
z
" transform="scale(0.015625)"/>
       <path id="ArialMT-67" d="M 319 -275 
L 866 -356 
Q 900 -609 1056 -725 
Q 1266 -881 1628 -881 
Q 2019 -881 2231 -725 
Q 2444 -569 2519 -288 
Q 2563 -116 2559 434 
Q 2191 0 1641 0 
Q 956 0 581 494 
Q 206 988 206 1678 
Q 206 2153 378 2554 
Q 550 2956 876 3175 
Q 1203 3394 1644 3394 
Q 2231 3394 2613 2919 
L 2613 3319 
L 3131 3319 
L 3131 450 
Q 3131 -325 2973 -648 
Q 2816 -972 2473 -1159 
Q 2131 -1347 1631 -1347 
Q 1038 -1347 672 -1080 
Q 306 -813 319 -275 
z
M 784 1719 
Q 784 1066 1043 766 
Q 1303 466 1694 466 
Q 2081 466 2343 764 
Q 2606 1063 2606 1700 
Q 2606 2309 2336 2618 
Q 2066 2928 1684 2928 
Q 1309 2928 1046 2623 
Q 784 2319 784 1719 
z
" transform="scale(0.015625)"/>
       <path id="ArialMT-28" d="M 1497 -1347 
Q 1031 -759 709 28 
Q 388 816 388 1659 
Q 388 2403 628 3084 
Q 909 3875 1497 4659 
L 1900 4659 
Q 1522 4009 1400 3731 
Q 1209 3300 1100 2831 
Q 966 2247 966 1656 
Q 966 153 1900 -1347 
L 1497 -1347 
z
" transform="scale(0.015625)"/>
       <path id="ArialMT-25" d="M 372 3481 
Q 372 3972 619 4315 
Q 866 4659 1334 4659 
Q 1766 4659 2048 4351 
Q 2331 4044 2331 3447 
Q 2331 2866 2045 2552 
Q 1759 2238 1341 2238 
Q 925 2238 648 2547 
Q 372 2856 372 3481 
z
M 1350 4272 
Q 1141 4272 1002 4090 
Q 863 3909 863 3425 
Q 863 2984 1003 2804 
Q 1144 2625 1350 2625 
Q 1563 2625 1702 2806 
Q 1841 2988 1841 3469 
Q 1841 3913 1700 4092 
Q 1559 4272 1350 4272 
z
M 1353 -169 
L 3859 4659 
L 4316 4659 
L 1819 -169 
L 1353 -169 
z
M 3334 1075 
Q 3334 1569 3581 1911 
Q 3828 2253 4300 2253 
Q 4731 2253 5014 1945 
Q 5297 1638 5297 1041 
Q 5297 459 5011 145 
Q 4725 -169 4303 -169 
Q 3888 -169 3611 142 
Q 3334 453 3334 1075 
z
M 4316 1866 
Q 4103 1866 3964 1684 
Q 3825 1503 3825 1019 
Q 3825 581 3965 400 
Q 4106 219 4313 219 
Q 4528 219 4667 400 
Q 4806 581 4806 1063 
Q 4806 1506 4665 1686 
Q 4525 1866 4316 1866 
z
" transform="scale(0.015625)"/>
       <path id="ArialMT-29" d="M 791 -1347 
L 388 -1347 
Q 1322 153 1322 1656 
Q 1322 2244 1188 2822 
Q 1081 3291 891 3722 
Q 769 4003 388 4659 
L 791 4659 
Q 1378 3875 1659 3084 
Q 1900 2403 1900 1659 
Q 1900 816 1576 28 
Q 1253 -759 791 -1347 
z
" transform="scale(0.015625)"/>
      </defs>
      <use xlink:href="#ArialMT-44"/>
      <use xlink:href="#ArialMT-65" transform="translate(72.216797 0)"/>
      <use xlink:href="#ArialMT-6c" transform="translate(127.832031 0)"/>
      <use xlink:href="#ArialMT-74" transform="translate(150.048828 0)"/>
      <use xlink:href="#ArialMT-61" transform="translate(177.832031 0)"/>
      <use xlink:href="#ArialMT-20" transform="translate(233.447266 0)"/>
      <use xlink:href="#ArialMT-45" transform="translate(261.230469 0)"/>
      <use xlink:href="#ArialMT-6e" transform="translate(327.929688 0)"/>
      <use xlink:href="#ArialMT-65" transform="translate(383.544922 0)"/>
      <use xlink:href="#ArialMT-72" transform="translate(439.160156 0)"/>
      <use xlink:href="#ArialMT-67" transform="translate(472.460938 0)"/>
      <use xlink:href="#ArialMT-79" transform="translate(528.076172 0)"/>
      <use xlink:href="#ArialMT-20" transform="translate(578.076172 0)"/>
      <use xlink:href="#ArialMT-28" transform="translate(605.859375 0)"/>
      <use xlink:href="#ArialMT-25" transform="translate(639.160156 0)"/>
      <use xlink:href="#ArialMT-29" transform="translate(728.076172 0)"/>
     </g>
    </g>
   </g>
   <g id="patch_3">
    <path d="M 65.832049 38.077096 
L 102.212122 38.077096 
L 102.212122 35.765473 
L 65.832049 35.765473 
z
" clip-path="url(#p5be521ba72)" style="fill: #72b6a1; stroke: #ffffff; stroke-linejoin: miter"/>
   </g>
   <g id="patch_4">
    <path d="M 156.782231 38.077096 
L 193.162304 38.077096 
L 193.162304 37.795251 
L 156.782231 37.795251 
z
" clip-path="url(#p5be521ba72)" style="fill: #72b6a1; stroke: #ffffff; stroke-linejoin: miter"/>
   </g>
   <g id="patch_5">
    <path d="M 247.732413 38.077096 
L 284.112486 38.077096 
L 284.112486 63.330816 
L 247.732413 63.330816 
z
" clip-path="url(#p5be521ba72)" style="fill: #72b6a1; stroke: #ffffff; stroke-linejoin: miter"/>
   </g>
   <g id="patch_6">
    <path d="M 338.682595 38.077096 
L 375.062668 38.077096 
L 375.062668 102.231977 
L 338.682595 102.231977 
z
" clip-path="url(#p5be521ba72)" style="fill: #72b6a1; stroke: #ffffff; stroke-linejoin: miter"/>
   </g>
   <g id="patch_7">
    <path d="M 429.632777 38.077096 
L 466.012849 38.077096 
L 466.012849 39.546146 
L 429.632777 39.546146 
z
" clip-path="url(#p5be521ba72)" style="fill: #72b6a1; stroke: #ffffff; stroke-linejoin: miter"/>
   </g>
   <g id="patch_8">
    <path d="M 520.582959 38.077096 
L 556.963031 38.077096 
L 556.963031 97.513576 
L 520.582959 97.513576 
z
" clip-path="url(#p5be521ba72)" style="fill: #72b6a1; stroke: #ffffff; stroke-linejoin: miter"/>
   </g>
   <g id="patch_9">
    <path d="M 611.53314 38.077096 
L 647.913213 38.077096 
L 647.913213 250.515235 
L 611.53314 250.515235 
z
" clip-path="url(#p5be521ba72)" style="fill: #72b6a1; stroke: #ffffff; stroke-linejoin: miter"/>
   </g>
   <g id="patch_10">
    <path d="M 702.483322 38.077096 
L 738.863395 38.077096 
L 738.863395 277.215836 
L 702.483322 277.215836 
z
" clip-path="url(#p5be521ba72)" style="fill: #72b6a1; stroke: #ffffff; stroke-linejoin: miter"/>
   </g>
   <g id="patch_11">
    <path d="M 793.433504 38.077096 
L 829.813577 38.077096 
L 829.813577 39.188101 
L 793.433504 39.188101 
z
" clip-path="url(#p5be521ba72)" style="fill: #72b6a1; stroke: #ffffff; stroke-linejoin: miter"/>
   </g>
   <g id="patch_12">
    <path d="M 884.383686 38.077096 
L 920.763759 38.077096 
L 920.763759 173.821496 
L 884.383686 173.821496 
z
" clip-path="url(#p5be521ba72)" style="fill: #72b6a1; stroke: #ffffff; stroke-linejoin: miter"/>
   </g>
   <g id="patch_13">
    <path d="M 975.333868 38.077096 
L 1011.71394 38.077096 
L 1011.71394 38.379373 
L 975.333868 38.379373 
z
" clip-path="url(#p5be521ba72)" style="fill: #72b6a1; stroke: #ffffff; stroke-linejoin: miter"/>
   </g>
   <g id="patch_14">
    <path d="M 102.212122 38.077096 
L 138.592195 38.077096 
L 138.592195 35.041262 
L 102.212122 35.041262 
z
" clip-path="url(#p5be521ba72)" style="fill: #e99675; stroke: #ffffff; stroke-linejoin: miter"/>
   </g>
   <g id="patch_15">
    <path d="M 193.162304 38.077096 
L 229.542377 38.077096 
L 229.542377 37.163157 
L 193.162304 37.163157 
z
" clip-path="url(#p5be521ba72)" style="fill: #e99675; stroke: #ffffff; stroke-linejoin: miter"/>
   </g>
   <g id="patch_16">
    <path d="M 284.112486 38.077096 
L 320.492559 38.077096 
L 320.492559 64.818335 
L 284.112486 64.818335 
z
" clip-path="url(#p5be521ba72)" style="fill: #e99675; stroke: #ffffff; stroke-linejoin: miter"/>
   </g>
   <g id="patch_17">
    <path d="M 375.062668 38.077096 
L 411.44274 38.077096 
L 411.44274 102.745635 
L 375.062668 102.745635 
z
" clip-path="url(#p5be521ba72)" style="fill: #e99675; stroke: #ffffff; stroke-linejoin: miter"/>
   </g>
   <g id="patch_18">
    <path d="M 466.012849 38.077096 
L 502.392922 38.077096 
L 502.392922 34.814747 
L 466.012849 34.814747 
z
" clip-path="url(#p5be521ba72)" style="fill: #e99675; stroke: #ffffff; stroke-linejoin: miter"/>
   </g>
   <g id="patch_19">
    <path d="M 556.963031 38.077096 
L 593.343104 38.077096 
L 593.343104 71.564455 
L 556.963031 71.564455 
z
" clip-path="url(#p5be521ba72)" style="fill: #e99675; stroke: #ffffff; stroke-linejoin: miter"/>
   </g>
   <g id="patch_20">
    <path d="M 647.913213 38.077096 
L 684.293286 38.077096 
L 684.293286 254.924939 
L 647.913213 254.924939 
z
" clip-path="url(#p5be521ba72)" style="fill: #e99675; stroke: #ffffff; stroke-linejoin: miter"/>
   </g>
   <g id="patch_21">
    <path d="M 738.863395 38.077096 
L 775.243468 38.077096 
L 775.243468 277.837814 
L 738.863395 277.837814 
z
" clip-path="url(#p5be521ba72)" style="fill: #e99675; stroke: #ffffff; stroke-linejoin: miter"/>
   </g>
   <g id="patch_22">
    <path d="M 829.813577 38.077096 
L 866.193649 38.077096 
L 866.193649 39.291517 
L 829.813577 39.291517 
z
" clip-path="url(#p5be521ba72)" style="fill: #e99675; stroke: #ffffff; stroke-linejoin: miter"/>
   </g>
   <g id="patch_23">
    <path d="M 920.763759 38.077096 
L 957.143831 38.077096 
L 957.143831 197.490745 
L 920.763759 197.490745 
z
" clip-path="url(#p5be521ba72)" style="fill: #e99675; stroke: #ffffff; stroke-linejoin: miter"/>
   </g>
   <g id="patch_24">
    <path d="M 1011.71394 38.077096 
L 1048.094013 38.077096 
L 1048.094013 36.952878 
L 1011.71394 36.952878 
z
" clip-path="url(#p5be521ba72)" style="fill: #e99675; stroke: #ffffff; stroke-linejoin: miter"/>
   </g>
   <g id="patch_25">
    <path d="M 102.212122 38.077096 
L 102.212122 38.077096 
L 102.212122 38.077096 
L 102.212122 38.077096 
z
" clip-path="url(#p5be521ba72)" style="fill: #72b6a1; stroke: #ffffff; stroke-linejoin: miter"/>
   </g>
   <g id="patch_26">
    <path d="M 102.212122 38.077096 
L 102.212122 38.077096 
L 102.212122 38.077096 
L 102.212122 38.077096 
z
" clip-path="url(#p5be521ba72)" style="fill: #e99675; stroke: #ffffff; stroke-linejoin: miter"/>
   </g>
   <g id="line2d_7">
    <path clip-path="url(#p5be521ba72)" style="fill: none; stroke: #424242; stroke-width: 2.25; stroke-linecap: round"/>
   </g>
   <g id="line2d_8">
    <path clip-path="url(#p5be521ba72)" style="fill: none; stroke: #424242; stroke-width: 2.25; stroke-linecap: round"/>
   </g>
   <g id="line2d_9">
    <path clip-path="url(#p5be521ba72)" style="fill: none; stroke: #424242; stroke-width: 2.25; stroke-linecap: round"/>
   </g>
   <g id="line2d_10">
    <path clip-path="url(#p5be521ba72)" style="fill: none; stroke: #424242; stroke-width: 2.25; stroke-linecap: round"/>
   </g>
   <g id="line2d_11">
    <path clip-path="url(#p5be521ba72)" style="fill: none; stroke: #424242; stroke-width: 2.25; stroke-linecap: round"/>
   </g>
   <g id="line2d_12">
    <path clip-path="url(#p5be521ba72)" style="fill: none; stroke: #424242; stroke-width: 2.25; stroke-linecap: round"/>
   </g>
   <g id="line2d_13">
    <path clip-path="url(#p5be521ba72)" style="fill: none; stroke: #424242; stroke-width: 2.25; stroke-linecap: round"/>
   </g>
   <g id="line2d_14">
    <path clip-path="url(#p5be521ba72)" style="fill: none; stroke: #424242; stroke-width: 2.25; stroke-linecap: round"/>
   </g>
   <g id="line2d_15">
    <path clip-path="url(#p5be521ba72)" style="fill: none; stroke: #424242; stroke-width: 2.25; stroke-linecap: round"/>
   </g>
   <g id="line2d_16">
    <path clip-path="url(#p5be521ba72)" style="fill: none; stroke: #424242; stroke-width: 2.25; stroke-linecap: round"/>
   </g>
   <g id="line2d_17">
    <path clip-path="url(#p5be521ba72)" style="fill: none; stroke: #424242; stroke-width: 2.25; stroke-linecap: round"/>
   </g>
   <g id="line2d_18">
    <path clip-path="url(#p5be521ba72)" style="fill: none; stroke: #424242; stroke-width: 2.25; stroke-linecap: round"/>
   </g>
   <g id="line2d_19">
    <path clip-path="url(#p5be521ba72)" style="fill: none; stroke: #424242; stroke-width: 2.25; stroke-linecap: round"/>
   </g>
   <g id="line2d_20">
    <path clip-path="url(#p5be521ba72)" style="fill: none; stroke: #424242; stroke-width: 2.25; stroke-linecap: round"/>
   </g>
   <g id="line2d_21">
    <path clip-path="url(#p5be521ba72)" style="fill: none; stroke: #424242; stroke-width: 2.25; stroke-linecap: round"/>
   </g>
   <g id="line2d_22">
    <path clip-path="url(#p5be521ba72)" style="fill: none; stroke: #424242; stroke-width: 2.25; stroke-linecap: round"/>
   </g>
   <g id="line2d_23">
    <path clip-path="url(#p5be521ba72)" style="fill: none; stroke: #424242; stroke-width: 2.25; stroke-linecap: round"/>
   </g>
   <g id="line2d_24">
    <path clip-path="url(#p5be521ba72)" style="fill: none; stroke: #424242; stroke-width: 2.25; stroke-linecap: round"/>
   </g>
   <g id="line2d_25">
    <path clip-path="url(#p5be521ba72)" style="fill: none; stroke: #424242; stroke-width: 2.25; stroke-linecap: round"/>
   </g>
   <g id="line2d_26">
    <path clip-path="url(#p5be521ba72)" style="fill: none; stroke: #424242; stroke-width: 2.25; stroke-linecap: round"/>
   </g>
   <g id="line2d_27">
    <path clip-path="url(#p5be521ba72)" style="fill: none; stroke: #424242; stroke-width: 2.25; stroke-linecap: round"/>
   </g>
   <g id="line2d_28">
    <path clip-path="url(#p5be521ba72)" style="fill: none; stroke: #424242; stroke-width: 2.25; stroke-linecap: round"/>
   </g>
   <g id="line2d_29">
    <path d="M 56.737031 38.077096 
L 1057.189031 38.077096 
" clip-path="url(#p5be521ba72)" style="fill: none; stroke-dasharray: 3.7,1.6; stroke-dashoffset: 0; stroke: #000000; stroke-opacity: 0.8"/>
   </g>
   <g id="line2d_30">
    <path d="M 147.687213 289.988967 
L 147.687213 22.663594 
" clip-path="url(#p5be521ba72)" style="fill: none; stroke-dasharray: 0.8,1.32; stroke-dashoffset: 0; stroke: #808080; stroke-opacity: 0.6; stroke-width: 0.8"/>
   </g>
   <g id="line2d_31">
    <path d="M 238.637395 289.988967 
L 238.637395 22.663594 
" clip-path="url(#p5be521ba72)" style="fill: none; stroke-dasharray: 0.8,1.32; stroke-dashoffset: 0; stroke: #808080; stroke-opacity: 0.6; stroke-width: 0.8"/>
   </g>
   <g id="line2d_32">
    <path d="M 329.587577 289.988967 
L 329.587577 22.663594 
" clip-path="url(#p5be521ba72)" style="fill: none; stroke-dasharray: 0.8,1.32; stroke-dashoffset: 0; stroke: #808080; stroke-opacity: 0.6; stroke-width: 0.8"/>
   </g>
   <g id="line2d_33">
    <path d="M 420.537759 289.988967 
L 420.537759 22.663594 
" clip-path="url(#p5be521ba72)" style="fill: none; stroke-dasharray: 0.8,1.32; stroke-dashoffset: 0; stroke: #808080; stroke-opacity: 0.6; stroke-width: 0.8"/>
   </g>
   <g id="line2d_34">
    <path d="M 511.48794 289.988967 
L 511.48794 22.663594 
" clip-path="url(#p5be521ba72)" style="fill: none; stroke-dasharray: 0.8,1.32; stroke-dashoffset: 0; stroke: #808080; stroke-opacity: 0.6; stroke-width: 0.8"/>
   </g>
   <g id="line2d_35">
    <path d="M 602.438122 289.988967 
L 602.438122 22.663594 
" clip-path="url(#p5be521ba72)" style="fill: none; stroke-dasharray: 0.8,1.32; stroke-dashoffset: 0; stroke: #808080; stroke-opacity: 0.6; stroke-width: 0.8"/>
   </g>
   <g id="line2d_36">
    <path d="M 693.388304 289.988967 
L 693.388304 22.663594 
" clip-path="url(#p5be521ba72)" style="fill: none; stroke-dasharray: 0.8,1.32; stroke-dashoffset: 0; stroke: #808080; stroke-opacity: 0.6; stroke-width: 0.8"/>
   </g>
   <g id="line2d_37">
    <path d="M 784.338486 289.988967 
L 784.338486 22.663594 
" clip-path="url(#p5be521ba72)" style="fill: none; stroke-dasharray: 0.8,1.32; stroke-dashoffset: 0; stroke: #808080; stroke-opacity: 0.6; stroke-width: 0.8"/>
   </g>
   <g id="line2d_38">
    <path d="M 875.288668 289.988967 
L 875.288668 22.663594 
" clip-path="url(#p5be521ba72)" style="fill: none; stroke-dasharray: 0.8,1.32; stroke-dashoffset: 0; stroke: #808080; stroke-opacity: 0.6; stroke-width: 0.8"/>
   </g>
   <g id="line2d_39">
    <path d="M 966.238849 289.988967 
L 966.238849 22.663594 
" clip-path="url(#p5be521ba72)" style="fill: none; stroke-dasharray: 0.8,1.32; stroke-dashoffset: 0; stroke: #808080; stroke-opacity: 0.6; stroke-width: 0.8"/>
   </g>
   <g id="patch_27">
    <path d="M 56.737031 289.988967 
L 56.737031 22.663594 
" style="fill: none; stroke: #cccccc; stroke-width: 1.25; stroke-linejoin: miter; stroke-linecap: square"/>
   </g>
   <g id="patch_28">
    <path d="M 1057.189031 289.988967 
L 1057.189031 22.663594 
" style="fill: none; stroke: #cccccc; stroke-width: 1.25; stroke-linejoin: miter; stroke-linecap: square"/>
   </g>
   <g id="patch_29">
    <path d="M 56.737031 289.988967 
L 1057.189031 289.988967 
" style="fill: none; stroke: #cccccc; stroke-width: 1.25; stroke-linejoin: miter; stroke-linecap: square"/>
   </g>
   <g id="patch_30">
    <path d="M 56.737031 22.663594 
L 1057.189031 22.663594 
" style="fill: none; stroke: #cccccc; stroke-width: 1.25; stroke-linejoin: miter; stroke-linecap: square"/>
   </g>
   <g id="text_20">
    <!-- +0.9% -->
    <g style="fill: #262626" transform="translate(72.568961 32.175473) scale(0.08 -0.08)">
     <defs>
      <path id="ArialMT-2b" d="M 1603 741 
L 1603 1997 
L 356 1997 
L 356 2522 
L 1603 2522 
L 1603 3769 
L 2134 3769 
L 2134 2522 
L 3381 2522 
L 3381 1997 
L 2134 1997 
L 2134 741 
L 1603 741 
z
" transform="scale(0.015625)"/>
      <path id="ArialMT-2e" d="M 581 0 
L 581 641 
L 1222 641 
L 1222 0 
L 581 0 
z
" transform="scale(0.015625)"/>
     </defs>
     <use xlink:href="#ArialMT-2b"/>
     <use xlink:href="#ArialMT-30" transform="translate(58.398438 0)"/>
     <use xlink:href="#ArialMT-2e" transform="translate(114.013672 0)"/>
     <use xlink:href="#ArialMT-39" transform="translate(141.796875 0)"/>
     <use xlink:href="#ArialMT-25" transform="translate(197.412109 0)"/>
    </g>
   </g>
   <g id="text_21">
    <!-- +0.1% -->
    <g style="fill: #262626" transform="translate(163.519143 34.205251) scale(0.08 -0.08)">
     <use xlink:href="#ArialMT-2b"/>
     <use xlink:href="#ArialMT-30" transform="translate(58.398438 0)"/>
     <use xlink:href="#ArialMT-2e" transform="translate(114.013672 0)"/>
     <use xlink:href="#ArialMT-31" transform="translate(141.796875 0)"/>
     <use xlink:href="#ArialMT-25" transform="translate(197.412109 0)"/>
    </g>
   </g>
   <g id="text_22">
    <!-- -10.1% -->
    <g style="fill: #262626" transform="translate(253.249324 71.057066) scale(0.08 -0.08)">
     <defs>
      <path id="ArialMT-2d" d="M 203 1375 
L 203 1941 
L 1931 1941 
L 1931 1375 
L 203 1375 
z
" transform="scale(0.015625)"/>
     </defs>
     <use xlink:href="#ArialMT-2d"/>
     <use xlink:href="#ArialMT-31" transform="translate(33.300781 0)"/>
     <use xlink:href="#ArialMT-30" transform="translate(88.916016 0)"/>
     <use xlink:href="#ArialMT-2e" transform="translate(144.53125 0)"/>
     <use xlink:href="#ArialMT-31" transform="translate(172.314453 0)"/>
     <use xlink:href="#ArialMT-25" transform="translate(227.929688 0)"/>
    </g>
   </g>
   <g id="text_23">
    <!-- -25.6% -->
    <g style="fill: #262626" transform="translate(344.199506 109.958227) scale(0.08 -0.08)">
     <use xlink:href="#ArialMT-2d"/>
     <use xlink:href="#ArialMT-32" transform="translate(33.300781 0)"/>
     <use xlink:href="#ArialMT-35" transform="translate(88.916016 0)"/>
     <use xlink:href="#ArialMT-2e" transform="translate(144.53125 0)"/>
     <use xlink:href="#ArialMT-36" transform="translate(172.314453 0)"/>
     <use xlink:href="#ArialMT-25" transform="translate(227.929688 0)"/>
    </g>
   </g>
   <g id="text_24">
    <!-- -0.6% -->
    <g style="fill: #262626" transform="translate(437.374063 47.272396) scale(0.08 -0.08)">
     <use xlink:href="#ArialMT-2d"/>
     <use xlink:href="#ArialMT-30" transform="translate(33.300781 0)"/>
     <use xlink:href="#ArialMT-2e" transform="translate(88.916016 0)"/>
     <use xlink:href="#ArialMT-36" transform="translate(116.699219 0)"/>
     <use xlink:href="#ArialMT-25" transform="translate(172.314453 0)"/>
    </g>
   </g>
   <g id="text_25">
    <!-- -23.8% -->
    <g style="fill: #262626" transform="translate(526.09987 105.239826) scale(0.08 -0.08)">
     <use xlink:href="#ArialMT-2d"/>
     <use xlink:href="#ArialMT-32" transform="translate(33.300781 0)"/>
     <use xlink:href="#ArialMT-33" transform="translate(88.916016 0)"/>
     <use xlink:href="#ArialMT-2e" transform="translate(144.53125 0)"/>
     <use xlink:href="#ArialMT-38" transform="translate(172.314453 0)"/>
     <use xlink:href="#ArialMT-25" transform="translate(227.929688 0)"/>
    </g>
   </g>
   <g id="text_26">
    <!-- -84.9% -->
    <g style="fill: #262626" transform="translate(617.050052 258.241485) scale(0.08 -0.08)">
     <use xlink:href="#ArialMT-2d"/>
     <use xlink:href="#ArialMT-38" transform="translate(33.300781 0)"/>
     <use xlink:href="#ArialMT-34" transform="translate(88.916016 0)"/>
     <use xlink:href="#ArialMT-2e" transform="translate(144.53125 0)"/>
     <use xlink:href="#ArialMT-39" transform="translate(172.314453 0)"/>
     <use xlink:href="#ArialMT-25" transform="translate(227.929688 0)"/>
    </g>
   </g>
   <g id="text_27">
    <!-- -95.6% -->
    <g style="fill: #262626" transform="translate(708.000234 284.942086) scale(0.08 -0.08)">
     <use xlink:href="#ArialMT-2d"/>
     <use xlink:href="#ArialMT-39" transform="translate(33.300781 0)"/>
     <use xlink:href="#ArialMT-35" transform="translate(88.916016 0)"/>
     <use xlink:href="#ArialMT-2e" transform="translate(144.53125 0)"/>
     <use xlink:href="#ArialMT-36" transform="translate(172.314453 0)"/>
     <use xlink:href="#ArialMT-25" transform="translate(227.929688 0)"/>
    </g>
   </g>
   <g id="text_28">
    <!-- -0.4% -->
    <g style="fill: #262626" transform="translate(801.17479 46.914351) scale(0.08 -0.08)">
     <use xlink:href="#ArialMT-2d"/>
     <use xlink:href="#ArialMT-30" transform="translate(33.300781 0)"/>
     <use xlink:href="#ArialMT-2e" transform="translate(88.916016 0)"/>
     <use xlink:href="#ArialMT-34" transform="translate(116.699219 0)"/>
     <use xlink:href="#ArialMT-25" transform="translate(172.314453 0)"/>
    </g>
   </g>
   <g id="text_29">
    <!-- -54.3% -->
    <g style="fill: #262626" transform="translate(889.900597 181.547746) scale(0.08 -0.08)">
     <use xlink:href="#ArialMT-2d"/>
     <use xlink:href="#ArialMT-35" transform="translate(33.300781 0)"/>
     <use xlink:href="#ArialMT-34" transform="translate(88.916016 0)"/>
     <use xlink:href="#ArialMT-2e" transform="translate(144.53125 0)"/>
     <use xlink:href="#ArialMT-33" transform="translate(172.314453 0)"/>
     <use xlink:href="#ArialMT-25" transform="translate(227.929688 0)"/>
    </g>
   </g>
   <g id="text_30">
    <!-- -0.1% -->
    <g style="fill: #262626" transform="translate(983.075154 46.105623) scale(0.08 -0.08)">
     <use xlink:href="#ArialMT-2d"/>
     <use xlink:href="#ArialMT-30" transform="translate(33.300781 0)"/>
     <use xlink:href="#ArialMT-2e" transform="translate(88.916016 0)"/>
     <use xlink:href="#ArialMT-31" transform="translate(116.699219 0)"/>
     <use xlink:href="#ArialMT-25" transform="translate(172.314453 0)"/>
    </g>
   </g>
   <g id="text_31">
    <!-- +1.2% -->
    <g style="fill: #262626" transform="translate(108.949034 31.451262) scale(0.08 -0.08)">
     <use xlink:href="#ArialMT-2b"/>
     <use xlink:href="#ArialMT-31" transform="translate(58.398438 0)"/>
     <use xlink:href="#ArialMT-2e" transform="translate(114.013672 0)"/>
     <use xlink:href="#ArialMT-32" transform="translate(141.796875 0)"/>
     <use xlink:href="#ArialMT-25" transform="translate(197.412109 0)"/>
    </g>
   </g>
   <g id="text_32">
    <!-- +0.4% -->
    <g style="fill: #262626" transform="translate(199.899215 33.573157) scale(0.08 -0.08)">
     <use xlink:href="#ArialMT-2b"/>
     <use xlink:href="#ArialMT-30" transform="translate(58.398438 0)"/>
     <use xlink:href="#ArialMT-2e" transform="translate(114.013672 0)"/>
     <use xlink:href="#ArialMT-34" transform="translate(141.796875 0)"/>
     <use xlink:href="#ArialMT-25" transform="translate(197.412109 0)"/>
    </g>
   </g>
   <g id="text_33">
    <!-- -10.7% -->
    <g style="fill: #262626" transform="translate(289.629397 72.544585) scale(0.08 -0.08)">
     <use xlink:href="#ArialMT-2d"/>
     <use xlink:href="#ArialMT-31" transform="translate(33.300781 0)"/>
     <use xlink:href="#ArialMT-30" transform="translate(88.916016 0)"/>
     <use xlink:href="#ArialMT-2e" transform="translate(144.53125 0)"/>
     <use xlink:href="#ArialMT-37" transform="translate(172.314453 0)"/>
     <use xlink:href="#ArialMT-25" transform="translate(227.929688 0)"/>
    </g>
   </g>
   <g id="text_34">
    <!-- -25.9% -->
    <g style="fill: #262626" transform="translate(380.579579 110.471885) scale(0.08 -0.08)">
     <use xlink:href="#ArialMT-2d"/>
     <use xlink:href="#ArialMT-32" transform="translate(33.300781 0)"/>
     <use xlink:href="#ArialMT-35" transform="translate(88.916016 0)"/>
     <use xlink:href="#ArialMT-2e" transform="translate(144.53125 0)"/>
     <use xlink:href="#ArialMT-39" transform="translate(172.314453 0)"/>
     <use xlink:href="#ArialMT-25" transform="translate(227.929688 0)"/>
    </g>
   </g>
   <g id="text_35">
    <!-- +1.3% -->
    <g style="fill: #262626" transform="translate(472.749761 31.224747) scale(0.08 -0.08)">
     <use xlink:href="#ArialMT-2b"/>
     <use xlink:href="#ArialMT-31" transform="translate(58.398438 0)"/>
     <use xlink:href="#ArialMT-2e" transform="translate(114.013672 0)"/>
     <use xlink:href="#ArialMT-33" transform="translate(141.796875 0)"/>
     <use xlink:href="#ArialMT-25" transform="translate(197.412109 0)"/>
    </g>
   </g>
   <g id="text_36">
    <!-- -13.4% -->
    <g style="fill: #262626" transform="translate(562.479943 79.290705) scale(0.08 -0.08)">
     <use xlink:href="#ArialMT-2d"/>
     <use xlink:href="#ArialMT-31" transform="translate(33.300781 0)"/>
     <use xlink:href="#ArialMT-33" transform="translate(88.916016 0)"/>
     <use xlink:href="#ArialMT-2e" transform="translate(144.53125 0)"/>
     <use xlink:href="#ArialMT-34" transform="translate(172.314453 0)"/>
     <use xlink:href="#ArialMT-25" transform="translate(227.929688 0)"/>
    </g>
   </g>
   <g id="text_37">
    <!-- -86.7% -->
    <g style="fill: #262626" transform="translate(653.430124 262.651189) scale(0.08 -0.08)">
     <use xlink:href="#ArialMT-2d"/>
     <use xlink:href="#ArialMT-38" transform="translate(33.300781 0)"/>
     <use xlink:href="#ArialMT-36" transform="translate(88.916016 0)"/>
     <use xlink:href="#ArialMT-2e" transform="translate(144.53125 0)"/>
     <use xlink:href="#ArialMT-37" transform="translate(172.314453 0)"/>
     <use xlink:href="#ArialMT-25" transform="translate(227.929688 0)"/>
    </g>
   </g>
   <g id="text_38">
    <!-- -95.8% -->
    <g style="fill: #262626" transform="translate(744.380306 285.564064) scale(0.08 -0.08)">
     <use xlink:href="#ArialMT-2d"/>
     <use xlink:href="#ArialMT-39" transform="translate(33.300781 0)"/>
     <use xlink:href="#ArialMT-35" transform="translate(88.916016 0)"/>
     <use xlink:href="#ArialMT-2e" transform="translate(144.53125 0)"/>
     <use xlink:href="#ArialMT-38" transform="translate(172.314453 0)"/>
     <use xlink:href="#ArialMT-25" transform="translate(227.929688 0)"/>
    </g>
   </g>
   <g id="text_39">
    <!-- -0.5% -->
    <g style="fill: #262626" transform="translate(837.554863 47.017767) scale(0.08 -0.08)">
     <use xlink:href="#ArialMT-2d"/>
     <use xlink:href="#ArialMT-30" transform="translate(33.300781 0)"/>
     <use xlink:href="#ArialMT-2e" transform="translate(88.916016 0)"/>
     <use xlink:href="#ArialMT-35" transform="translate(116.699219 0)"/>
     <use xlink:href="#ArialMT-25" transform="translate(172.314453 0)"/>
    </g>
   </g>
   <g id="text_40">
    <!-- -63.7% -->
    <g style="fill: #262626" transform="translate(926.28067 205.216995) scale(0.08 -0.08)">
     <use xlink:href="#ArialMT-2d"/>
     <use xlink:href="#ArialMT-36" transform="translate(33.300781 0)"/>
     <use xlink:href="#ArialMT-33" transform="translate(88.916016 0)"/>
     <use xlink:href="#ArialMT-2e" transform="translate(144.53125 0)"/>
     <use xlink:href="#ArialMT-37" transform="translate(172.314453 0)"/>
     <use xlink:href="#ArialMT-25" transform="translate(227.929688 0)"/>
    </g>
   </g>
   <g id="text_41">
    <!-- +0.4% -->
    <g style="fill: #262626" transform="translate(1018.450852 33.362878) scale(0.08 -0.08)">
     <use xlink:href="#ArialMT-2b"/>
     <use xlink:href="#ArialMT-30" transform="translate(58.398438 0)"/>
     <use xlink:href="#ArialMT-2e" transform="translate(114.013672 0)"/>
     <use xlink:href="#ArialMT-34" transform="translate(141.796875 0)"/>
     <use xlink:href="#ArialMT-25" transform="translate(197.412109 0)"/>
    </g>
   </g>
   <g id="text_42">
    <!-- External Energy Mean % Difference (B vs A) -->
    <g style="fill: #262626" transform="translate(421.754906 16.663594) scale(0.13 -0.13)">
     <defs>
      <path id="Arial-BoldMT-45" d="M 466 0 
L 466 4581 
L 3863 4581 
L 3863 3806 
L 1391 3806 
L 1391 2791 
L 3691 2791 
L 3691 2019 
L 1391 2019 
L 1391 772 
L 3950 772 
L 3950 0 
L 466 0 
z
" transform="scale(0.015625)"/>
      <path id="Arial-BoldMT-78" d="M 38 0 
L 1234 1709 
L 88 3319 
L 1159 3319 
L 1747 2406 
L 2366 3319 
L 3397 3319 
L 2272 1747 
L 3500 0 
L 2422 0 
L 1747 1028 
L 1066 0 
L 38 0 
z
" transform="scale(0.015625)"/>
      <path id="Arial-BoldMT-74" d="M 1981 3319 
L 1981 2619 
L 1381 2619 
L 1381 1281 
Q 1381 875 1398 808 
Q 1416 741 1477 697 
Q 1538 653 1625 653 
Q 1747 653 1978 738 
L 2053 56 
Q 1747 -75 1359 -75 
Q 1122 -75 931 4 
Q 741 84 652 211 
Q 563 338 528 553 
Q 500 706 500 1172 
L 500 2619 
L 97 2619 
L 97 3319 
L 500 3319 
L 500 3978 
L 1381 4491 
L 1381 3319 
L 1981 3319 
z
" transform="scale(0.015625)"/>
      <path id="Arial-BoldMT-65" d="M 2381 1056 
L 3256 909 
Q 3088 428 2723 176 
Q 2359 -75 1813 -75 
Q 947 -75 531 491 
Q 203 944 203 1634 
Q 203 2459 634 2926 
Q 1066 3394 1725 3394 
Q 2466 3394 2894 2905 
Q 3322 2416 3303 1406 
L 1103 1406 
Q 1113 1016 1316 798 
Q 1519 581 1822 581 
Q 2028 581 2168 693 
Q 2309 806 2381 1056 
z
M 2431 1944 
Q 2422 2325 2234 2523 
Q 2047 2722 1778 2722 
Q 1491 2722 1303 2513 
Q 1116 2303 1119 1944 
L 2431 1944 
z
" transform="scale(0.015625)"/>
      <path id="Arial-BoldMT-72" d="M 1300 0 
L 422 0 
L 422 3319 
L 1238 3319 
L 1238 2847 
Q 1447 3181 1614 3287 
Q 1781 3394 1994 3394 
Q 2294 3394 2572 3228 
L 2300 2463 
Q 2078 2606 1888 2606 
Q 1703 2606 1575 2504 
Q 1447 2403 1373 2137 
Q 1300 1872 1300 1025 
L 1300 0 
z
" transform="scale(0.015625)"/>
      <path id="Arial-BoldMT-6e" d="M 3478 0 
L 2600 0 
L 2600 1694 
Q 2600 2231 2544 2389 
Q 2488 2547 2361 2634 
Q 2234 2722 2056 2722 
Q 1828 2722 1647 2597 
Q 1466 2472 1398 2265 
Q 1331 2059 1331 1503 
L 1331 0 
L 453 0 
L 453 3319 
L 1269 3319 
L 1269 2831 
Q 1703 3394 2363 3394 
Q 2653 3394 2893 3289 
Q 3134 3184 3257 3021 
Q 3381 2859 3429 2653 
Q 3478 2447 3478 2063 
L 3478 0 
z
" transform="scale(0.015625)"/>
      <path id="Arial-BoldMT-61" d="M 1116 2306 
L 319 2450 
Q 453 2931 781 3162 
Q 1109 3394 1756 3394 
Q 2344 3394 2631 3255 
Q 2919 3116 3036 2902 
Q 3153 2688 3153 2116 
L 3144 1091 
Q 3144 653 3186 445 
Q 3228 238 3344 0 
L 2475 0 
Q 2441 88 2391 259 
Q 2369 338 2359 363 
Q 2134 144 1878 34 
Q 1622 -75 1331 -75 
Q 819 -75 523 203 
Q 228 481 228 906 
Q 228 1188 362 1408 
Q 497 1628 739 1745 
Q 981 1863 1438 1950 
Q 2053 2066 2291 2166 
L 2291 2253 
Q 2291 2506 2166 2614 
Q 2041 2722 1694 2722 
Q 1459 2722 1328 2630 
Q 1197 2538 1116 2306 
z
M 2291 1594 
Q 2122 1538 1756 1459 
Q 1391 1381 1278 1306 
Q 1106 1184 1106 997 
Q 1106 813 1243 678 
Q 1381 544 1594 544 
Q 1831 544 2047 700 
Q 2206 819 2256 991 
Q 2291 1103 2291 1419 
L 2291 1594 
z
" transform="scale(0.015625)"/>
      <path id="Arial-BoldMT-6c" d="M 459 0 
L 459 4581 
L 1338 4581 
L 1338 0 
L 459 0 
z
" transform="scale(0.015625)"/>
      <path id="Arial-BoldMT-20" transform="scale(0.015625)"/>
      <path id="Arial-BoldMT-67" d="M 378 -219 
L 1381 -341 
Q 1406 -516 1497 -581 
Q 1622 -675 1891 -675 
Q 2234 -675 2406 -572 
Q 2522 -503 2581 -350 
Q 2622 -241 2622 53 
L 2622 538 
Q 2228 0 1628 0 
Q 959 0 569 566 
Q 263 1013 263 1678 
Q 263 2513 664 2953 
Q 1066 3394 1663 3394 
Q 2278 3394 2678 2853 
L 2678 3319 
L 3500 3319 
L 3500 341 
Q 3500 -247 3403 -537 
Q 3306 -828 3131 -993 
Q 2956 -1159 2664 -1253 
Q 2372 -1347 1925 -1347 
Q 1081 -1347 728 -1058 
Q 375 -769 375 -325 
Q 375 -281 378 -219 
z
M 1163 1728 
Q 1163 1200 1367 954 
Q 1572 709 1872 709 
Q 2194 709 2416 961 
Q 2638 1213 2638 1706 
Q 2638 2222 2425 2472 
Q 2213 2722 1888 2722 
Q 1572 2722 1367 2476 
Q 1163 2231 1163 1728 
z
" transform="scale(0.015625)"/>
      <path id="Arial-BoldMT-79" d="M 44 3319 
L 978 3319 
L 1772 963 
L 2547 3319 
L 3456 3319 
L 2284 125 
L 2075 -453 
Q 1959 -744 1854 -897 
Q 1750 -1050 1614 -1145 
Q 1478 -1241 1279 -1294 
Q 1081 -1347 831 -1347 
Q 578 -1347 334 -1294 
L 256 -606 
Q 463 -647 628 -647 
Q 934 -647 1081 -467 
Q 1228 -288 1306 -9 
L 44 3319 
z
" transform="scale(0.015625)"/>
      <path id="Arial-BoldMT-4d" d="M 453 0 
L 453 4581 
L 1838 4581 
L 2669 1456 
L 3491 4581 
L 4878 4581 
L 4878 0 
L 4019 0 
L 4019 3606 
L 3109 0 
L 2219 0 
L 1313 3606 
L 1313 0 
L 453 0 
z
" transform="scale(0.015625)"/>
      <path id="Arial-BoldMT-25" d="M 278 3450 
Q 278 4066 548 4362 
Q 819 4659 1281 4659 
Q 1759 4659 2029 4364 
Q 2300 4069 2300 3450 
Q 2300 2834 2029 2537 
Q 1759 2241 1297 2241 
Q 819 2241 548 2536 
Q 278 2831 278 3450 
z
M 963 3456 
Q 963 3009 1066 2856 
Q 1144 2744 1281 2744 
Q 1422 2744 1500 2856 
Q 1600 3009 1600 3456 
Q 1600 3903 1500 4053 
Q 1422 4169 1281 4169 
Q 1144 4169 1066 4056 
Q 963 3903 963 3456 
z
M 1950 -175 
L 1300 -175 
L 3741 4659 
L 4372 4659 
L 1950 -175 
z
M 3369 1028 
Q 3369 1644 3639 1941 
Q 3909 2238 4378 2238 
Q 4850 2238 5120 1941 
Q 5391 1644 5391 1028 
Q 5391 409 5120 112 
Q 4850 -184 4388 -184 
Q 3909 -184 3639 112 
Q 3369 409 3369 1028 
z
M 4053 1031 
Q 4053 584 4156 434 
Q 4234 319 4372 319 
Q 4513 319 4588 431 
Q 4691 584 4691 1031 
Q 4691 1478 4591 1631 
Q 4513 1744 4372 1744 
Q 4231 1744 4156 1631 
Q 4053 1478 4053 1031 
z
" transform="scale(0.015625)"/>
      <path id="Arial-BoldMT-44" d="M 463 4581 
L 2153 4581 
Q 2725 4581 3025 4494 
Q 3428 4375 3715 4072 
Q 4003 3769 4153 3330 
Q 4303 2891 4303 2247 
Q 4303 1681 4163 1272 
Q 3991 772 3672 463 
Q 3431 228 3022 97 
Q 2716 0 2203 0 
L 463 0 
L 463 4581 
z
M 1388 3806 
L 1388 772 
L 2078 772 
Q 2466 772 2638 816 
Q 2863 872 3011 1006 
Q 3159 1141 3253 1448 
Q 3347 1756 3347 2288 
Q 3347 2819 3253 3103 
Q 3159 3388 2990 3547 
Q 2822 3706 2563 3763 
Q 2369 3806 1803 3806 
L 1388 3806 
z
" transform="scale(0.015625)"/>
      <path id="Arial-BoldMT-69" d="M 459 3769 
L 459 4581 
L 1338 4581 
L 1338 3769 
L 459 3769 
z
M 459 0 
L 459 3319 
L 1338 3319 
L 1338 0 
L 459 0 
z
" transform="scale(0.015625)"/>
      <path id="Arial-BoldMT-66" d="M 75 3319 
L 563 3319 
L 563 3569 
Q 563 3988 652 4194 
Q 741 4400 980 4529 
Q 1219 4659 1584 4659 
Q 1959 4659 2319 4547 
L 2200 3934 
Q 1991 3984 1797 3984 
Q 1606 3984 1523 3895 
Q 1441 3806 1441 3553 
L 1441 3319 
L 2097 3319 
L 2097 2628 
L 1441 2628 
L 1441 0 
L 563 0 
L 563 2628 
L 75 2628 
L 75 3319 
z
" transform="scale(0.015625)"/>
      <path id="Arial-BoldMT-63" d="M 3353 2338 
L 2488 2181 
Q 2444 2441 2289 2572 
Q 2134 2703 1888 2703 
Q 1559 2703 1364 2476 
Q 1169 2250 1169 1719 
Q 1169 1128 1367 884 
Q 1566 641 1900 641 
Q 2150 641 2309 783 
Q 2469 925 2534 1272 
L 3397 1125 
Q 3263 531 2881 228 
Q 2500 -75 1859 -75 
Q 1131 -75 698 384 
Q 266 844 266 1656 
Q 266 2478 700 2936 
Q 1134 3394 1875 3394 
Q 2481 3394 2839 3133 
Q 3197 2872 3353 2338 
z
" transform="scale(0.015625)"/>
      <path id="Arial-BoldMT-28" d="M 1916 -1347 
L 1313 -1347 
Q 834 -625 584 153 
Q 334 931 334 1659 
Q 334 2563 644 3369 
Q 913 4069 1325 4659 
L 1925 4659 
Q 1497 3713 1336 3048 
Q 1175 2384 1175 1641 
Q 1175 1128 1270 590 
Q 1366 53 1531 -431 
Q 1641 -750 1916 -1347 
z
" transform="scale(0.015625)"/>
      <path id="Arial-BoldMT-42" d="M 469 4581 
L 2300 4581 
Q 2844 4581 3111 4536 
Q 3378 4491 3589 4347 
Q 3800 4203 3940 3964 
Q 4081 3725 4081 3428 
Q 4081 3106 3907 2837 
Q 3734 2569 3438 2434 
Q 3856 2313 4081 2019 
Q 4306 1725 4306 1328 
Q 4306 1016 4161 720 
Q 4016 425 3764 248 
Q 3513 72 3144 31 
Q 2913 6 2028 0 
L 469 0 
L 469 4581 
z
M 1394 3819 
L 1394 2759 
L 2000 2759 
Q 2541 2759 2672 2775 
Q 2909 2803 3045 2939 
Q 3181 3075 3181 3297 
Q 3181 3509 3064 3642 
Q 2947 3775 2716 3803 
Q 2578 3819 1925 3819 
L 1394 3819 
z
M 1394 1997 
L 1394 772 
L 2250 772 
Q 2750 772 2884 800 
Q 3091 838 3220 983 
Q 3350 1128 3350 1372 
Q 3350 1578 3250 1722 
Q 3150 1866 2961 1931 
Q 2772 1997 2141 1997 
L 1394 1997 
z
" transform="scale(0.015625)"/>
      <path id="Arial-BoldMT-76" d="M 1372 0 
L 34 3319 
L 956 3319 
L 1581 1625 
L 1763 1059 
Q 1834 1275 1853 1344 
Q 1897 1484 1947 1625 
L 2578 3319 
L 3481 3319 
L 2163 0 
L 1372 0 
z
" transform="scale(0.015625)"/>
      <path id="Arial-BoldMT-73" d="M 150 947 
L 1031 1081 
Q 1088 825 1259 692 
Q 1431 559 1741 559 
Q 2081 559 2253 684 
Q 2369 772 2369 919 
Q 2369 1019 2306 1084 
Q 2241 1147 2013 1200 
Q 950 1434 666 1628 
Q 272 1897 272 2375 
Q 272 2806 612 3100 
Q 953 3394 1669 3394 
Q 2350 3394 2681 3172 
Q 3013 2950 3138 2516 
L 2309 2363 
Q 2256 2556 2107 2659 
Q 1959 2763 1684 2763 
Q 1338 2763 1188 2666 
Q 1088 2597 1088 2488 
Q 1088 2394 1175 2328 
Q 1294 2241 1995 2081 
Q 2697 1922 2975 1691 
Q 3250 1456 3250 1038 
Q 3250 581 2869 253 
Q 2488 -75 1741 -75 
Q 1063 -75 667 200 
Q 272 475 150 947 
z
" transform="scale(0.015625)"/>
      <path id="Arial-BoldMT-41" d="M 4597 0 
L 3591 0 
L 3191 1041 
L 1359 1041 
L 981 0 
L 0 0 
L 1784 4581 
L 2763 4581 
L 4597 0 
z
M 2894 1813 
L 2263 3513 
L 1644 1813 
L 2894 1813 
z
" transform="scale(0.015625)"/>
      <path id="Arial-BoldMT-29" d="M 216 -1347 
Q 475 -791 581 -494 
Q 688 -197 778 190 
Q 869 578 912 926 
Q 956 1275 956 1641 
Q 956 2384 797 3048 
Q 638 3713 209 4659 
L 806 4659 
Q 1278 3988 1539 3234 
Q 1800 2481 1800 1706 
Q 1800 1053 1594 306 
Q 1359 -531 822 -1347 
L 216 -1347 
z
" transform="scale(0.015625)"/>
     </defs>
     <use xlink:href="#Arial-BoldMT-45"/>
     <use xlink:href="#Arial-BoldMT-78" transform="translate(66.699219 0)"/>
     <use xlink:href="#Arial-BoldMT-74" transform="translate(122.314453 0)"/>
     <use xlink:href="#Arial-BoldMT-65" transform="translate(155.615234 0)"/>
     <use xlink:href="#Arial-BoldMT-72" transform="translate(211.230469 0)"/>
     <use xlink:href="#Arial-BoldMT-6e" transform="translate(250.146484 0)"/>
     <use xlink:href="#Arial-BoldMT-61" transform="translate(311.230469 0)"/>
     <use xlink:href="#Arial-BoldMT-6c" transform="translate(366.845703 0)"/>
     <use xlink:href="#Arial-BoldMT-20" transform="translate(394.628906 0)"/>
     <use xlink:href="#Arial-BoldMT-45" transform="translate(422.412109 0)"/>
     <use xlink:href="#Arial-BoldMT-6e" transform="translate(489.111328 0)"/>
     <use xlink:href="#Arial-BoldMT-65" transform="translate(550.195312 0)"/>
     <use xlink:href="#Arial-BoldMT-72" transform="translate(605.810547 0)"/>
     <use xlink:href="#Arial-BoldMT-67" transform="translate(644.726562 0)"/>
     <use xlink:href="#Arial-BoldMT-79" transform="translate(705.810547 0)"/>
     <use xlink:href="#Arial-BoldMT-20" transform="translate(761.425781 0)"/>
     <use xlink:href="#Arial-BoldMT-4d" transform="translate(789.208984 0)"/>
     <use xlink:href="#Arial-BoldMT-65" transform="translate(872.509766 0)"/>
     <use xlink:href="#Arial-BoldMT-61" transform="translate(928.125 0)"/>
     <use xlink:href="#Arial-BoldMT-6e" transform="translate(983.740234 0)"/>
     <use xlink:href="#Arial-BoldMT-20" transform="translate(1044.824219 0)"/>
     <use xlink:href="#Arial-BoldMT-25" transform="translate(1072.607422 0)"/>
     <use xlink:href="#Arial-BoldMT-20" transform="translate(1161.523438 0)"/>
     <use xlink:href="#Arial-BoldMT-44" transform="translate(1189.306641 0)"/>
     <use xlink:href="#Arial-BoldMT-69" transform="translate(1261.523438 0)"/>
     <use xlink:href="#Arial-BoldMT-66" transform="translate(1289.306641 0)"/>
     <use xlink:href="#Arial-BoldMT-66" transform="translate(1322.607422 0)"/>
     <use xlink:href="#Arial-BoldMT-65" transform="translate(1355.908203 0)"/>
     <use xlink:href="#Arial-BoldMT-72" transform="translate(1411.523438 0)"/>
     <use xlink:href="#Arial-BoldMT-65" transform="translate(1450.439453 0)"/>
     <use xlink:href="#Arial-BoldMT-6e" transform="translate(1506.054688 0)"/>
     <use xlink:href="#Arial-BoldMT-63" transform="translate(1567.138672 0)"/>
     <use xlink:href="#Arial-BoldMT-65" transform="translate(1622.753906 0)"/>
     <use xlink:href="#Arial-BoldMT-20" transform="translate(1678.369141 0)"/>
     <use xlink:href="#Arial-BoldMT-28" transform="translate(1706.152344 0)"/>
     <use xlink:href="#Arial-BoldMT-42" transform="translate(1739.453125 0)"/>
     <use xlink:href="#Arial-BoldMT-20" transform="translate(1811.669922 0)"/>
     <use xlink:href="#Arial-BoldMT-76" transform="translate(1839.453125 0)"/>
     <use xlink:href="#Arial-BoldMT-73" transform="translate(1895.068359 0)"/>
     <use xlink:href="#Arial-BoldMT-20" transform="translate(1950.683594 0)"/>
     <use xlink:href="#Arial-BoldMT-41" transform="translate(1974.716797 0)"/>
     <use xlink:href="#Arial-BoldMT-29" transform="translate(2046.933594 0)"/>
    </g>
   </g>
   <g id="legend_1">
    <g id="patch_31">
     <path d="M 1069.393551 73.825781 
L 1132.10902 73.825781 
Q 1134.30902 73.825781 1134.30902 71.625781 
L 1134.30902 24.863594 
Q 1134.30902 22.663594 1132.10902 22.663594 
L 1069.393551 22.663594 
Q 1067.193551 22.663594 1067.193551 24.863594 
L 1067.193551 71.625781 
Q 1067.193551 73.825781 1069.393551 73.825781 
z
" style="fill: #ffffff; opacity: 0.8; stroke: #cccccc; stroke-linejoin: miter"/>
    </g>
    <g id="text_43">
     <!-- PC -->
     <g style="fill: #262626" transform="translate(1092.415973 35.652969) scale(0.12 -0.12)">
      <defs>
       <path id="ArialMT-43" d="M 3763 1606 
L 4369 1453 
Q 4178 706 3683 314 
Q 3188 -78 2472 -78 
Q 1731 -78 1267 223 
Q 803 525 561 1097 
Q 319 1669 319 2325 
Q 319 3041 592 3573 
Q 866 4106 1370 4382 
Q 1875 4659 2481 4659 
Q 3169 4659 3637 4309 
Q 4106 3959 4291 3325 
L 3694 3184 
Q 3534 3684 3231 3912 
Q 2928 4141 2469 4141 
Q 1941 4141 1586 3887 
Q 1231 3634 1087 3207 
Q 944 2781 944 2328 
Q 944 1744 1114 1308 
Q 1284 872 1643 656 
Q 2003 441 2422 441 
Q 2931 441 3284 734 
Q 3638 1028 3763 1606 
z
" transform="scale(0.015625)"/>
      </defs>
      <use xlink:href="#ArialMT-50"/>
      <use xlink:href="#ArialMT-43" transform="translate(66.699219 0)"/>
     </g>
    </g>
    <g id="patch_32">
     <path d="M 1071.593551 51.545625 
L 1093.593551 51.545625 
L 1093.593551 43.845625 
L 1071.593551 43.845625 
z
" style="fill: #72b6a1; stroke: #ffffff; stroke-linejoin: miter"/>
    </g>
    <g id="text_44">
     <!-- PC_1 -->
     <g style="fill: #262626" transform="translate(1102.393551 51.545625) scale(0.11 -0.11)">
      <defs>
       <path id="ArialMT-5f" d="M -97 -1272 
L -97 -866 
L 3631 -866 
L 3631 -1272 
L -97 -1272 
z
" transform="scale(0.015625)"/>
      </defs>
      <use xlink:href="#ArialMT-50"/>
      <use xlink:href="#ArialMT-43" transform="translate(66.699219 0)"/>
      <use xlink:href="#ArialMT-5f" transform="translate(138.916016 0)"/>
      <use xlink:href="#ArialMT-31" transform="translate(194.53125 0)"/>
     </g>
    </g>
    <g id="patch_33">
     <path d="M 1071.593551 67.239531 
L 1093.593551 67.239531 
L 1093.593551 59.539531 
L 1071.593551 59.539531 
z
" style="fill: #e99675; stroke: #ffffff; stroke-linejoin: miter"/>
    </g>
    <g id="text_45">
     <!-- PC_2 -->
     <g style="fill: #262626" transform="translate(1102.393551 67.239531) scale(0.11 -0.11)">
      <use xlink:href="#ArialMT-50"/>
      <use xlink:href="#ArialMT-43" transform="translate(66.699219 0)"/>
      <use xlink:href="#ArialMT-5f" transform="translate(138.916016 0)"/>
      <use xlink:href="#ArialMT-32" transform="translate(194.53125 0)"/>
     </g>
    </g>
   </g>
  </g>
 </g>
 <defs>
  <clipPath id="p5be521ba72">
   <rect x="56.737031" y="22.663594" width="1000.452" height="267.325373"/>
  </clipPath>
 </defs>
</svg>
