<?xml version="1.0" encoding="utf-8" standalone="no"?>
<!DOCTYPE svg PUBLIC "-//W3C//DTD SVG 1.1//EN"
  "http://www.w3.org/Graphics/SVG/1.1/DTD/svg11.dtd">
<svg xmlns:xlink="http://www.w3.org/1999/xlink" width="878.223218pt" height="428.661094pt" viewBox="0 0 878.223218 428.661094" xmlns="http://www.w3.org/2000/svg" version="1.1">
 <metadata>
  <rdf:RDF xmlns:dc="http://purl.org/dc/elements/1.1/" xmlns:cc="http://creativecommons.org/ns#" xmlns:rdf="http://www.w3.org/1999/02/22-rdf-syntax-ns#">
   <cc:Work>
    <dc:type rdf:resource="http://purl.org/dc/dcmitype/StillImage"/>
    <dc:date>2026-05-30T20:26:34.750320</dc:date>
    <dc:format>image/svg+xml</dc:format>
    <dc:creator>
     <cc:Agent>
      <dc:title>Matplotlib v3.10.1, https://matplotlib.org/</dc:title>
     </cc:Agent>
    </dc:creator>
   </cc:Work>
  </rdf:RDF>
 </metadata>
 <defs>
  <style type="text/css">*{stroke-linejoin: round; stroke-linecap: butt}</style>
 </defs>
 <g id="figure_1">
  <g id="patch_1">
   <path d="M 0 428.661094 
L 878.223218 428.661094 
L 878.223218 0 
L 0 0 
z
" style="fill: #ffffff"/>
  </g>
  <g id="axes_1">
   <g id="patch_2">
    <path d="M 62.854063 386.64 
L 449.161755 386.64 
L 449.161755 78.624 
L 62.854063 78.624 
z
" style="fill: #ffffff"/>
   </g>
   <g id="matplotlib.axis_1">
    <g id="xtick_1">
     <g id="line2d_1">
      <path d="M 67.380454 386.64 
L 67.380454 78.624 
" clip-path="url(#p02b2d371bc)" style="fill: none; stroke: #cccccc; stroke-linecap: round"/>
     </g>
     <g id="text_1">
      <!-- −200 -->
      <g style="fill: #262626" transform="translate(54.992564 404.013594) scale(0.11 -0.11)">
       <defs>
        <path id="ArialMT-2212" d="M 3381 1997 
L 356 1997 
L 356 2522 
L 3381 2522 
L 3381 1997 
z
" transform="scale(0.015625)"/>
        <path id="ArialMT-32" d="M 3222 541 
L 3222 0 
L 194 0 
Q 188 203 259 391 
Q 375 700 629 1000 
Q 884 1300 1366 1694 
Q 2113 2306 2375 2664 
Q 2638 3022 2638 3341 
Q 2638 3675 2398 3904 
Q 2159 4134 1775 4134 
Q 1369 4134 1125 3890 
Q 881 3647 878 3216 
L 300 3275 
Q 359 3922 746 4261 
Q 1134 4600 1788 4600 
Q 2447 4600 2831 4234 
Q 3216 3869 3216 3328 
Q 3216 3053 3103 2787 
Q 2991 2522 2730 2228 
Q 2469 1934 1863 1422 
Q 1356 997 1212 845 
Q 1069 694 975 541 
L 3222 541 
z
" transform="scale(0.015625)"/>
        <path id="ArialMT-30" d="M 266 2259 
Q 266 3072 433 3567 
Q 600 4063 929 4331 
Q 1259 4600 1759 4600 
Q 2128 4600 2406 4451 
Q 2684 4303 2865 4023 
Q 3047 3744 3150 3342 
Q 3253 2941 3253 2259 
Q 3253 1453 3087 958 
Q 2922 463 2592 192 
Q 2263 -78 1759 -78 
Q 1097 -78 719 397 
Q 266 969 266 2259 
z
M 844 2259 
Q 844 1131 1108 757 
Q 1372 384 1759 384 
Q 2147 384 2411 759 
Q 2675 1134 2675 2259 
Q 2675 3391 2411 3762 
Q 2147 4134 1753 4134 
Q 1366 4134 1134 3806 
Q 844 3388 844 2259 
z
" transform="scale(0.015625)"/>
       </defs>
       <use xlink:href="#ArialMT-2212"/>
       <use xlink:href="#ArialMT-32" transform="translate(58.398438 0)"/>
       <use xlink:href="#ArialMT-30" transform="translate(114.013672 0)"/>
       <use xlink:href="#ArialMT-30" transform="translate(169.628906 0)"/>
      </g>
     </g>
    </g>
    <g id="xtick_2">
     <g id="line2d_2">
      <path d="M 114.537318 386.64 
L 114.537318 78.624 
" clip-path="url(#p02b2d371bc)" style="fill: none; stroke: #cccccc; stroke-linecap: round"/>
     </g>
     <g id="text_2">
      <!-- −150 -->
      <g style="fill: #262626" transform="translate(102.149427 404.013594) scale(0.11 -0.11)">
       <defs>
        <path id="ArialMT-31" d="M 2384 0 
L 1822 0 
L 1822 3584 
Q 1619 3391 1289 3197 
Q 959 3003 697 2906 
L 697 3450 
Q 1169 3672 1522 3987 
Q 1875 4303 2022 4600 
L 2384 4600 
L 2384 0 
z
" transform="scale(0.015625)"/>
        <path id="ArialMT-35" d="M 266 1200 
L 856 1250 
Q 922 819 1161 601 
Q 1400 384 1738 384 
Q 2144 384 2425 690 
Q 2706 997 2706 1503 
Q 2706 1984 2436 2262 
Q 2166 2541 1728 2541 
Q 1456 2541 1237 2417 
Q 1019 2294 894 2097 
L 366 2166 
L 809 4519 
L 3088 4519 
L 3088 3981 
L 1259 3981 
L 1013 2750 
Q 1425 3038 1878 3038 
Q 2478 3038 2890 2622 
Q 3303 2206 3303 1553 
Q 3303 931 2941 478 
Q 2500 -78 1738 -78 
Q 1113 -78 717 272 
Q 322 622 266 1200 
z
" transform="scale(0.015625)"/>
       </defs>
       <use xlink:href="#ArialMT-2212"/>
       <use xlink:href="#ArialMT-31" transform="translate(58.398438 0)"/>
       <use xlink:href="#ArialMT-35" transform="translate(114.013672 0)"/>
       <use xlink:href="#ArialMT-30" transform="translate(169.628906 0)"/>
      </g>
     </g>
    </g>
    <g id="xtick_3">
     <g id="line2d_3">
      <path d="M 161.694181 386.64 
L 161.694181 78.624 
" clip-path="url(#p02b2d371bc)" style="fill: none; stroke: #cccccc; stroke-linecap: round"/>
     </g>
     <g id="text_3">
      <!-- −100 -->
      <g style="fill: #262626" transform="translate(149.306291 404.013594) scale(0.11 -0.11)">
       <use xlink:href="#ArialMT-2212"/>
       <use xlink:href="#ArialMT-31" transform="translate(58.398438 0)"/>
       <use xlink:href="#ArialMT-30" transform="translate(114.013672 0)"/>
       <use xlink:href="#ArialMT-30" transform="translate(169.628906 0)"/>
      </g>
     </g>
    </g>
    <g id="xtick_4">
     <g id="line2d_4">
      <path d="M 208.851045 386.64 
L 208.851045 78.624 
" clip-path="url(#p02b2d371bc)" style="fill: none; stroke: #cccccc; stroke-linecap: round"/>
     </g>
     <g id="text_4">
      <!-- −50 -->
      <g style="fill: #262626" transform="translate(199.52167 404.013594) scale(0.11 -0.11)">
       <use xlink:href="#ArialMT-2212"/>
       <use xlink:href="#ArialMT-35" transform="translate(58.398438 0)"/>
       <use xlink:href="#ArialMT-30" transform="translate(114.013672 0)"/>
      </g>
     </g>
    </g>
    <g id="xtick_5">
     <g id="line2d_5">
      <path d="M 256.007909 386.64 
L 256.007909 78.624 
" clip-path="url(#p02b2d371bc)" style="fill: none; stroke: #cccccc; stroke-linecap: round"/>
     </g>
     <g id="text_5">
      <!-- 0 -->
      <g style="fill: #262626" transform="translate(252.949393 404.013594) scale(0.11 -0.11)">
       <use xlink:href="#ArialMT-30"/>
      </g>
     </g>
    </g>
    <g id="xtick_6">
     <g id="line2d_6">
      <path d="M 303.164772 386.64 
L 303.164772 78.624 
" clip-path="url(#p02b2d371bc)" style="fill: none; stroke: #cccccc; stroke-linecap: round"/>
     </g>
     <g id="text_6">
      <!-- 50 -->
      <g style="fill: #262626" transform="translate(297.047741 404.013594) scale(0.11 -0.11)">
       <use xlink:href="#ArialMT-35"/>
       <use xlink:href="#ArialMT-30" transform="translate(55.615234 0)"/>
      </g>
     </g>
    </g>
    <g id="xtick_7">
     <g id="line2d_7">
      <path d="M 350.321636 386.64 
L 350.321636 78.624 
" clip-path="url(#p02b2d371bc)" style="fill: none; stroke: #cccccc; stroke-linecap: round"/>
     </g>
     <g id="text_7">
      <!-- 100 -->
      <g style="fill: #262626" transform="translate(341.146089 404.013594) scale(0.11 -0.11)">
       <use xlink:href="#ArialMT-31"/>
       <use xlink:href="#ArialMT-30" transform="translate(55.615234 0)"/>
       <use xlink:href="#ArialMT-30" transform="translate(111.230469 0)"/>
      </g>
     </g>
    </g>
    <g id="xtick_8">
     <g id="line2d_8">
      <path d="M 397.478499 386.64 
L 397.478499 78.624 
" clip-path="url(#p02b2d371bc)" style="fill: none; stroke: #cccccc; stroke-linecap: round"/>
     </g>
     <g id="text_8">
      <!-- 150 -->
      <g style="fill: #262626" transform="translate(388.302953 404.013594) scale(0.11 -0.11)">
       <use xlink:href="#ArialMT-31"/>
       <use xlink:href="#ArialMT-35" transform="translate(55.615234 0)"/>
       <use xlink:href="#ArialMT-30" transform="translate(111.230469 0)"/>
      </g>
     </g>
    </g>
    <g id="xtick_9">
     <g id="line2d_9">
      <path d="M 444.635363 386.64 
L 444.635363 78.624 
" clip-path="url(#p02b2d371bc)" style="fill: none; stroke: #cccccc; stroke-linecap: round"/>
     </g>
     <g id="text_9">
      <!-- 200 -->
      <g style="fill: #262626" transform="translate(435.459816 404.013594) scale(0.11 -0.11)">
       <use xlink:href="#ArialMT-32"/>
       <use xlink:href="#ArialMT-30" transform="translate(55.615234 0)"/>
       <use xlink:href="#ArialMT-30" transform="translate(111.230469 0)"/>
      </g>
     </g>
    </g>
    <g id="text_10">
     <!-- Time Saving (s) -->
     <g style="fill: #262626" transform="translate(214.226346 418.935469) scale(0.12 -0.12)">
      <defs>
       <path id="ArialMT-54" d="M 1659 0 
L 1659 4041 
L 150 4041 
L 150 4581 
L 3781 4581 
L 3781 4041 
L 2266 4041 
L 2266 0 
L 1659 0 
z
" transform="scale(0.015625)"/>
       <path id="ArialMT-69" d="M 425 3934 
L 425 4581 
L 988 4581 
L 988 3934 
L 425 3934 
z
M 425 0 
L 425 3319 
L 988 3319 
L 988 0 
L 425 0 
z
" transform="scale(0.015625)"/>
       <path id="ArialMT-6d" d="M 422 0 
L 422 3319 
L 925 3319 
L 925 2853 
Q 1081 3097 1340 3245 
Q 1600 3394 1931 3394 
Q 2300 3394 2536 3241 
Q 2772 3088 2869 2813 
Q 3263 3394 3894 3394 
Q 4388 3394 4653 3120 
Q 4919 2847 4919 2278 
L 4919 0 
L 4359 0 
L 4359 2091 
Q 4359 2428 4304 2576 
Q 4250 2725 4106 2815 
Q 3963 2906 3769 2906 
Q 3419 2906 3187 2673 
Q 2956 2441 2956 1928 
L 2956 0 
L 2394 0 
L 2394 2156 
Q 2394 2531 2256 2718 
Q 2119 2906 1806 2906 
Q 1569 2906 1367 2781 
Q 1166 2656 1075 2415 
Q 984 2175 984 1722 
L 984 0 
L 422 0 
z
" transform="scale(0.015625)"/>
       <path id="ArialMT-65" d="M 2694 1069 
L 3275 997 
Q 3138 488 2766 206 
Q 2394 -75 1816 -75 
Q 1088 -75 661 373 
Q 234 822 234 1631 
Q 234 2469 665 2931 
Q 1097 3394 1784 3394 
Q 2450 3394 2872 2941 
Q 3294 2488 3294 1666 
Q 3294 1616 3291 1516 
L 816 1516 
Q 847 969 1125 678 
Q 1403 388 1819 388 
Q 2128 388 2347 550 
Q 2566 713 2694 1069 
z
M 847 1978 
L 2700 1978 
Q 2663 2397 2488 2606 
Q 2219 2931 1791 2931 
Q 1403 2931 1139 2672 
Q 875 2413 847 1978 
z
" transform="scale(0.015625)"/>
       <path id="ArialMT-20" transform="scale(0.015625)"/>
       <path id="ArialMT-53" d="M 288 1472 
L 859 1522 
Q 900 1178 1048 958 
Q 1197 738 1509 602 
Q 1822 466 2213 466 
Q 2559 466 2825 569 
Q 3091 672 3220 851 
Q 3350 1031 3350 1244 
Q 3350 1459 3225 1620 
Q 3100 1781 2813 1891 
Q 2628 1963 1997 2114 
Q 1366 2266 1113 2400 
Q 784 2572 623 2826 
Q 463 3081 463 3397 
Q 463 3744 659 4045 
Q 856 4347 1234 4503 
Q 1613 4659 2075 4659 
Q 2584 4659 2973 4495 
Q 3363 4331 3572 4012 
Q 3781 3694 3797 3291 
L 3216 3247 
Q 3169 3681 2898 3903 
Q 2628 4125 2100 4125 
Q 1550 4125 1298 3923 
Q 1047 3722 1047 3438 
Q 1047 3191 1225 3031 
Q 1400 2872 2139 2705 
Q 2878 2538 3153 2413 
Q 3553 2228 3743 1945 
Q 3934 1663 3934 1294 
Q 3934 928 3725 604 
Q 3516 281 3123 101 
Q 2731 -78 2241 -78 
Q 1619 -78 1198 103 
Q 778 284 539 648 
Q 300 1013 288 1472 
z
" transform="scale(0.015625)"/>
       <path id="ArialMT-61" d="M 2588 409 
Q 2275 144 1986 34 
Q 1697 -75 1366 -75 
Q 819 -75 525 192 
Q 231 459 231 875 
Q 231 1119 342 1320 
Q 453 1522 633 1644 
Q 813 1766 1038 1828 
Q 1203 1872 1538 1913 
Q 2219 1994 2541 2106 
Q 2544 2222 2544 2253 
Q 2544 2597 2384 2738 
Q 2169 2928 1744 2928 
Q 1347 2928 1158 2789 
Q 969 2650 878 2297 
L 328 2372 
Q 403 2725 575 2942 
Q 747 3159 1072 3276 
Q 1397 3394 1825 3394 
Q 2250 3394 2515 3294 
Q 2781 3194 2906 3042 
Q 3031 2891 3081 2659 
Q 3109 2516 3109 2141 
L 3109 1391 
Q 3109 606 3145 398 
Q 3181 191 3288 0 
L 2700 0 
Q 2613 175 2588 409 
z
M 2541 1666 
Q 2234 1541 1622 1453 
Q 1275 1403 1131 1340 
Q 988 1278 909 1158 
Q 831 1038 831 891 
Q 831 666 1001 516 
Q 1172 366 1500 366 
Q 1825 366 2078 508 
Q 2331 650 2450 897 
Q 2541 1088 2541 1459 
L 2541 1666 
z
" transform="scale(0.015625)"/>
       <path id="ArialMT-76" d="M 1344 0 
L 81 3319 
L 675 3319 
L 1388 1331 
Q 1503 1009 1600 663 
Q 1675 925 1809 1294 
L 2547 3319 
L 3125 3319 
L 1869 0 
L 1344 0 
z
" transform="scale(0.015625)"/>
       <path id="ArialMT-6e" d="M 422 0 
L 422 3319 
L 928 3319 
L 928 2847 
Q 1294 3394 1984 3394 
Q 2284 3394 2536 3286 
Q 2788 3178 2913 3003 
Q 3038 2828 3088 2588 
Q 3119 2431 3119 2041 
L 3119 0 
L 2556 0 
L 2556 2019 
Q 2556 2363 2490 2533 
Q 2425 2703 2258 2804 
Q 2091 2906 1866 2906 
Q 1506 2906 1245 2678 
Q 984 2450 984 1813 
L 984 0 
L 422 0 
z
" transform="scale(0.015625)"/>
       <path id="ArialMT-67" d="M 319 -275 
L 866 -356 
Q 900 -609 1056 -725 
Q 1266 -881 1628 -881 
Q 2019 -881 2231 -725 
Q 2444 -569 2519 -288 
Q 2563 -116 2559 434 
Q 2191 0 1641 0 
Q 956 0 581 494 
Q 206 988 206 1678 
Q 206 2153 378 2554 
Q 550 2956 876 3175 
Q 1203 3394 1644 3394 
Q 2231 3394 2613 2919 
L 2613 3319 
L 3131 3319 
L 3131 450 
Q 3131 -325 2973 -648 
Q 2816 -972 2473 -1159 
Q 2131 -1347 1631 -1347 
Q 1038 -1347 672 -1080 
Q 306 -813 319 -275 
z
M 784 1719 
Q 784 1066 1043 766 
Q 1303 466 1694 466 
Q 2081 466 2343 764 
Q 2606 1063 2606 1700 
Q 2606 2309 2336 2618 
Q 2066 2928 1684 2928 
Q 1309 2928 1046 2623 
Q 784 2319 784 1719 
z
" transform="scale(0.015625)"/>
       <path id="ArialMT-28" d="M 1497 -1347 
Q 1031 -759 709 28 
Q 388 816 388 1659 
Q 388 2403 628 3084 
Q 909 3875 1497 4659 
L 1900 4659 
Q 1522 4009 1400 3731 
Q 1209 3300 1100 2831 
Q 966 2247 966 1656 
Q 966 153 1900 -1347 
L 1497 -1347 
z
" transform="scale(0.015625)"/>
       <path id="ArialMT-73" d="M 197 991 
L 753 1078 
Q 800 744 1014 566 
Q 1228 388 1613 388 
Q 2000 388 2187 545 
Q 2375 703 2375 916 
Q 2375 1106 2209 1216 
Q 2094 1291 1634 1406 
Q 1016 1563 777 1677 
Q 538 1791 414 1992 
Q 291 2194 291 2438 
Q 291 2659 392 2848 
Q 494 3038 669 3163 
Q 800 3259 1026 3326 
Q 1253 3394 1513 3394 
Q 1903 3394 2198 3281 
Q 2494 3169 2634 2976 
Q 2775 2784 2828 2463 
L 2278 2388 
Q 2241 2644 2061 2787 
Q 1881 2931 1553 2931 
Q 1166 2931 1000 2803 
Q 834 2675 834 2503 
Q 834 2394 903 2306 
Q 972 2216 1119 2156 
Q 1203 2125 1616 2013 
Q 2213 1853 2448 1751 
Q 2684 1650 2818 1456 
Q 2953 1263 2953 975 
Q 2953 694 2789 445 
Q 2625 197 2315 61 
Q 2006 -75 1616 -75 
Q 969 -75 630 194 
Q 291 463 197 991 
z
" transform="scale(0.015625)"/>
       <path id="ArialMT-29" d="M 791 -1347 
L 388 -1347 
Q 1322 153 1322 1656 
Q 1322 2244 1188 2822 
Q 1081 3291 891 3722 
Q 769 4003 388 4659 
L 791 4659 
Q 1378 3875 1659 3084 
Q 1900 2403 1900 1659 
Q 1900 816 1576 28 
Q 1253 -759 791 -1347 
z
" transform="scale(0.015625)"/>
      </defs>
      <use xlink:href="#ArialMT-54"/>
      <use xlink:href="#ArialMT-69" transform="translate(57.333984 0)"/>
      <use xlink:href="#ArialMT-6d" transform="translate(79.550781 0)"/>
      <use xlink:href="#ArialMT-65" transform="translate(162.851562 0)"/>
      <use xlink:href="#ArialMT-20" transform="translate(218.466797 0)"/>
      <use xlink:href="#ArialMT-53" transform="translate(246.25 0)"/>
      <use xlink:href="#ArialMT-61" transform="translate(312.949219 0)"/>
      <use xlink:href="#ArialMT-76" transform="translate(368.564453 0)"/>
      <use xlink:href="#ArialMT-69" transform="translate(418.564453 0)"/>
      <use xlink:href="#ArialMT-6e" transform="translate(440.78125 0)"/>
      <use xlink:href="#ArialMT-67" transform="translate(496.396484 0)"/>
      <use xlink:href="#ArialMT-20" transform="translate(552.011719 0)"/>
      <use xlink:href="#ArialMT-28" transform="translate(579.794922 0)"/>
      <use xlink:href="#ArialMT-73" transform="translate(613.095703 0)"/>
      <use xlink:href="#ArialMT-29" transform="translate(663.095703 0)"/>
     </g>
    </g>
   </g>
   <g id="matplotlib.axis_2">
    <g id="ytick_1">
     <g id="line2d_10">
      <path d="M 62.854063 362.732397 
L 449.161755 362.732397 
" clip-path="url(#p02b2d371bc)" style="fill: none; stroke: #cccccc; stroke-linecap: round"/>
     </g>
     <g id="text_11">
      <!-- −2000 -->
      <g style="fill: #262626" transform="translate(22.46125 366.669194) scale(0.11 -0.11)">
       <use xlink:href="#ArialMT-2212"/>
       <use xlink:href="#ArialMT-32" transform="translate(58.398438 0)"/>
       <use xlink:href="#ArialMT-30" transform="translate(114.013672 0)"/>
       <use xlink:href="#ArialMT-30" transform="translate(169.628906 0)"/>
       <use xlink:href="#ArialMT-30" transform="translate(225.244141 0)"/>
      </g>
     </g>
    </g>
    <g id="ytick_2">
     <g id="line2d_11">
      <path d="M 62.854063 297.682198 
L 449.161755 297.682198 
" clip-path="url(#p02b2d371bc)" style="fill: none; stroke: #cccccc; stroke-linecap: round"/>
     </g>
     <g id="text_12">
      <!-- −1000 -->
      <g style="fill: #262626" transform="translate(22.46125 301.618995) scale(0.11 -0.11)">
       <use xlink:href="#ArialMT-2212"/>
       <use xlink:href="#ArialMT-31" transform="translate(58.398438 0)"/>
       <use xlink:href="#ArialMT-30" transform="translate(114.013672 0)"/>
       <use xlink:href="#ArialMT-30" transform="translate(169.628906 0)"/>
       <use xlink:href="#ArialMT-30" transform="translate(225.244141 0)"/>
      </g>
     </g>
    </g>
    <g id="ytick_3">
     <g id="line2d_12">
      <path d="M 62.854063 232.632 
L 449.161755 232.632 
" clip-path="url(#p02b2d371bc)" style="fill: none; stroke: #cccccc; stroke-linecap: round"/>
     </g>
     <g id="text_13">
      <!-- 0 -->
      <g style="fill: #262626" transform="translate(47.237031 236.568797) scale(0.11 -0.11)">
       <use xlink:href="#ArialMT-30"/>
      </g>
     </g>
    </g>
    <g id="ytick_4">
     <g id="line2d_13">
      <path d="M 62.854063 167.581802 
L 449.161755 167.581802 
" clip-path="url(#p02b2d371bc)" style="fill: none; stroke: #cccccc; stroke-linecap: round"/>
     </g>
     <g id="text_14">
      <!-- 1000 -->
      <g style="fill: #262626" transform="translate(28.885938 171.518599) scale(0.11 -0.11)">
       <use xlink:href="#ArialMT-31"/>
       <use xlink:href="#ArialMT-30" transform="translate(55.615234 0)"/>
       <use xlink:href="#ArialMT-30" transform="translate(111.230469 0)"/>
       <use xlink:href="#ArialMT-30" transform="translate(166.845703 0)"/>
      </g>
     </g>
    </g>
    <g id="ytick_5">
     <g id="line2d_14">
      <path d="M 62.854063 102.531603 
L 449.161755 102.531603 
" clip-path="url(#p02b2d371bc)" style="fill: none; stroke: #cccccc; stroke-linecap: round"/>
     </g>
     <g id="text_15">
      <!-- 2000 -->
      <g style="fill: #262626" transform="translate(28.885938 106.4684) scale(0.11 -0.11)">
       <use xlink:href="#ArialMT-32"/>
       <use xlink:href="#ArialMT-30" transform="translate(55.615234 0)"/>
       <use xlink:href="#ArialMT-30" transform="translate(111.230469 0)"/>
       <use xlink:href="#ArialMT-30" transform="translate(166.845703 0)"/>
      </g>
     </g>
    </g>
    <g id="text_16">
     <!-- Energy Saving (J) -->
     <g style="fill: #262626" transform="translate(15.935625 280.316062) rotate(-90) scale(0.12 -0.12)">
      <defs>
       <path id="ArialMT-45" d="M 506 0 
L 506 4581 
L 3819 4581 
L 3819 4041 
L 1113 4041 
L 1113 2638 
L 3647 2638 
L 3647 2100 
L 1113 2100 
L 1113 541 
L 3925 541 
L 3925 0 
L 506 0 
z
" transform="scale(0.015625)"/>
       <path id="ArialMT-72" d="M 416 0 
L 416 3319 
L 922 3319 
L 922 2816 
Q 1116 3169 1280 3281 
Q 1444 3394 1641 3394 
Q 1925 3394 2219 3213 
L 2025 2691 
Q 1819 2813 1613 2813 
Q 1428 2813 1281 2702 
Q 1134 2591 1072 2394 
Q 978 2094 978 1738 
L 978 0 
L 416 0 
z
" transform="scale(0.015625)"/>
       <path id="ArialMT-79" d="M 397 -1278 
L 334 -750 
Q 519 -800 656 -800 
Q 844 -800 956 -737 
Q 1069 -675 1141 -563 
Q 1194 -478 1313 -144 
Q 1328 -97 1363 -6 
L 103 3319 
L 709 3319 
L 1400 1397 
Q 1534 1031 1641 628 
Q 1738 1016 1872 1384 
L 2581 3319 
L 3144 3319 
L 1881 -56 
Q 1678 -603 1566 -809 
Q 1416 -1088 1222 -1217 
Q 1028 -1347 759 -1347 
Q 597 -1347 397 -1278 
z
" transform="scale(0.015625)"/>
       <path id="ArialMT-4a" d="M 184 1300 
L 731 1375 
Q 753 850 928 656 
Q 1103 463 1413 463 
Q 1641 463 1806 567 
Q 1972 672 2034 851 
Q 2097 1031 2097 1425 
L 2097 4581 
L 2703 4581 
L 2703 1459 
Q 2703 884 2564 568 
Q 2425 253 2123 87 
Q 1822 -78 1416 -78 
Q 813 -78 492 269 
Q 172 616 184 1300 
z
" transform="scale(0.015625)"/>
      </defs>
      <use xlink:href="#ArialMT-45"/>
      <use xlink:href="#ArialMT-6e" transform="translate(66.699219 0)"/>
      <use xlink:href="#ArialMT-65" transform="translate(122.314453 0)"/>
      <use xlink:href="#ArialMT-72" transform="translate(177.929688 0)"/>
      <use xlink:href="#ArialMT-67" transform="translate(211.230469 0)"/>
      <use xlink:href="#ArialMT-79" transform="translate(266.845703 0)"/>
      <use xlink:href="#ArialMT-20" transform="translate(316.845703 0)"/>
      <use xlink:href="#ArialMT-53" transform="translate(344.628906 0)"/>
      <use xlink:href="#ArialMT-61" transform="translate(411.328125 0)"/>
      <use xlink:href="#ArialMT-76" transform="translate(466.943359 0)"/>
      <use xlink:href="#ArialMT-69" transform="translate(516.943359 0)"/>
      <use xlink:href="#ArialMT-6e" transform="translate(539.160156 0)"/>
      <use xlink:href="#ArialMT-67" transform="translate(594.775391 0)"/>
      <use xlink:href="#ArialMT-20" transform="translate(650.390625 0)"/>
      <use xlink:href="#ArialMT-28" transform="translate(678.173828 0)"/>
      <use xlink:href="#ArialMT-4a" transform="translate(711.474609 0)"/>
      <use xlink:href="#ArialMT-29" transform="translate(761.474609 0)"/>
     </g>
    </g>
   </g>
   <g id="PathCollection_1">
    <defs>
     <path id="C0_0_debbe22118" d="M 0 4.873397 
C 1.29244 4.873397 2.532119 4.359905 3.446012 3.446012 
C 4.359905 2.532119 4.873397 1.29244 4.873397 -0 
C 4.873397 -1.29244 4.359905 -2.532119 3.446012 -3.446012 
C 2.532119 -4.359905 1.29244 -4.873397 0 -4.873397 
C -1.29244 -4.873397 -2.532119 -4.359905 -3.446012 -3.446012 
C -4.359905 -2.532119 -4.873397 -1.29244 -4.873397 0 
C -4.873397 1.29244 -4.359905 2.532119 -3.446012 3.446012 
C -2.532119 4.359905 -1.29244 4.873397 0 4.873397 
z
"/>
    </defs>
    <g clip-path="url(#p02b2d371bc)">
     <use xlink:href="#C0_0_debbe22118" x="254.35791" y="233.341228" style="fill: #f4a261; stroke: #000000; stroke-width: 0.5"/>
    </g>
    <g clip-path="url(#p02b2d371bc)">
     <use xlink:href="#C0_0_debbe22118" x="255.96257" y="232.861846" style="fill: #f4a261; stroke: #000000; stroke-width: 0.5"/>
    </g>
    <g clip-path="url(#p02b2d371bc)">
     <use xlink:href="#C0_0_debbe22118" x="274.375025" y="223.349486" style="fill: #39d353; stroke: #000000; stroke-width: 0.5"/>
    </g>
    <g clip-path="url(#p02b2d371bc)">
     <use xlink:href="#C0_0_debbe22118" x="282.813484" y="211.78124" style="fill: #39d353; stroke: #000000; stroke-width: 0.5"/>
    </g>
    <g clip-path="url(#p02b2d371bc)">
     <use xlink:href="#C0_0_debbe22118" x="256.529871" y="231.878313" style="fill: #39d353; stroke: #000000; stroke-width: 0.5"/>
    </g>
    <g clip-path="url(#p02b2d371bc)">
     <use xlink:href="#C0_0_debbe22118" x="312.862997" y="224.274712" style="fill: #39d353; stroke: #000000; stroke-width: 0.5"/>
    </g>
    <g clip-path="url(#p02b2d371bc)">
     <use xlink:href="#C0_0_debbe22118" x="292.415313" y="202.263986" style="fill: #39d353; stroke: #000000; stroke-width: 0.5"/>
    </g>
    <g clip-path="url(#p02b2d371bc)">
     <use xlink:href="#C0_0_debbe22118" x="332.095138" y="171.682354" style="fill: #39d353; stroke: #000000; stroke-width: 0.5"/>
    </g>
    <g clip-path="url(#p02b2d371bc)">
     <use xlink:href="#C0_0_debbe22118" x="256.014652" y="232.629345" style="fill: #8fbaf5; stroke: #000000; stroke-width: 0.5"/>
    </g>
    <g clip-path="url(#p02b2d371bc)">
     <use xlink:href="#C0_0_debbe22118" x="422.519845" y="137.477856" style="fill: #39d353; stroke: #000000; stroke-width: 0.5"/>
    </g>
    <g clip-path="url(#p02b2d371bc)">
     <use xlink:href="#C0_0_debbe22118" x="256.056455" y="232.579429" style="fill: #8fbaf5; stroke: #000000; stroke-width: 0.5"/>
    </g>
   </g>
   <g id="line2d_15">
    <path d="M 62.854062 343.7463 
L 449.161755 120.549025 
" clip-path="url(#p02b2d371bc)" style="fill: none; stroke: #e76f51; stroke-opacity: 0.9; stroke-width: 1.6; stroke-linecap: round"/>
   </g>
   <g id="line2d_16">
    <path d="M 62.854063 232.632 
L 449.161755 232.632 
" clip-path="url(#p02b2d371bc)" style="fill: none; stroke-dasharray: 0.9,1.485; stroke-dashoffset: 0; stroke: #808080; stroke-opacity: 0.7; stroke-width: 0.9"/>
   </g>
   <g id="line2d_17">
    <path d="M 256.007909 386.64 
L 256.007909 78.624 
" clip-path="url(#p02b2d371bc)" style="fill: none; stroke-dasharray: 0.9,1.485; stroke-dashoffset: 0; stroke: #808080; stroke-opacity: 0.7; stroke-width: 0.9"/>
   </g>
   <g id="patch_3">
    <path d="M 62.854063 386.64 
L 62.854063 78.624 
" style="fill: none; stroke: #cccccc; stroke-width: 1.25; stroke-linejoin: miter; stroke-linecap: square"/>
   </g>
   <g id="patch_4">
    <path d="M 449.161755 386.64 
L 449.161755 78.624 
" style="fill: none; stroke: #cccccc; stroke-width: 1.25; stroke-linejoin: miter; stroke-linecap: square"/>
   </g>
   <g id="patch_5">
    <path d="M 62.854062 386.64 
L 449.161755 386.64 
" style="fill: none; stroke: #cccccc; stroke-width: 1.25; stroke-linejoin: miter; stroke-linecap: square"/>
   </g>
   <g id="patch_6">
    <path d="M 62.854062 78.624 
L 449.161755 78.624 
" style="fill: none; stroke: #cccccc; stroke-width: 1.25; stroke-linejoin: miter; stroke-linecap: square"/>
   </g>
   <g id="text_17">
    <!-- APX1090 -->
    <g style="fill: #262626; opacity: 0.9" transform="translate(259.35791 229.341228) scale(0.08 -0.08)">
     <defs>
      <path id="ArialMT-41" d="M -9 0 
L 1750 4581 
L 2403 4581 
L 4278 0 
L 3588 0 
L 3053 1388 
L 1138 1388 
L 634 0 
L -9 0 
z
M 1313 1881 
L 2866 1881 
L 2388 3150 
Q 2169 3728 2063 4100 
Q 1975 3659 1816 3225 
L 1313 1881 
z
" transform="scale(0.015625)"/>
      <path id="ArialMT-50" d="M 494 0 
L 494 4581 
L 2222 4581 
Q 2678 4581 2919 4538 
Q 3256 4481 3484 4323 
Q 3713 4166 3852 3881 
Q 3991 3597 3991 3256 
Q 3991 2672 3619 2267 
Q 3247 1863 2275 1863 
L 1100 1863 
L 1100 0 
L 494 0 
z
M 1100 2403 
L 2284 2403 
Q 2872 2403 3119 2622 
Q 3366 2841 3366 3238 
Q 3366 3525 3220 3729 
Q 3075 3934 2838 4000 
Q 2684 4041 2272 4041 
L 1100 4041 
L 1100 2403 
z
" transform="scale(0.015625)"/>
      <path id="ArialMT-58" d="M 28 0 
L 1800 2388 
L 238 4581 
L 959 4581 
L 1791 3406 
Q 2050 3041 2159 2844 
Q 2313 3094 2522 3366 
L 3444 4581 
L 4103 4581 
L 2494 2422 
L 4228 0 
L 3478 0 
L 2325 1634 
Q 2228 1775 2125 1941 
Q 1972 1691 1906 1597 
L 756 0 
L 28 0 
z
" transform="scale(0.015625)"/>
      <path id="ArialMT-39" d="M 350 1059 
L 891 1109 
Q 959 728 1153 556 
Q 1347 384 1650 384 
Q 1909 384 2104 503 
Q 2300 622 2425 820 
Q 2550 1019 2634 1356 
Q 2719 1694 2719 2044 
Q 2719 2081 2716 2156 
Q 2547 1888 2255 1720 
Q 1963 1553 1622 1553 
Q 1053 1553 659 1965 
Q 266 2378 266 3053 
Q 266 3750 677 4175 
Q 1088 4600 1706 4600 
Q 2153 4600 2523 4359 
Q 2894 4119 3086 3673 
Q 3278 3228 3278 2384 
Q 3278 1506 3087 986 
Q 2897 466 2520 194 
Q 2144 -78 1638 -78 
Q 1100 -78 759 220 
Q 419 519 350 1059 
z
M 2653 3081 
Q 2653 3566 2395 3850 
Q 2138 4134 1775 4134 
Q 1400 4134 1122 3828 
Q 844 3522 844 3034 
Q 844 2597 1108 2323 
Q 1372 2050 1759 2050 
Q 2150 2050 2401 2323 
Q 2653 2597 2653 3081 
z
" transform="scale(0.015625)"/>
     </defs>
     <use xlink:href="#ArialMT-41"/>
     <use xlink:href="#ArialMT-50" transform="translate(66.699219 0)"/>
     <use xlink:href="#ArialMT-58" transform="translate(133.398438 0)"/>
     <use xlink:href="#ArialMT-31" transform="translate(200.097656 0)"/>
     <use xlink:href="#ArialMT-30" transform="translate(255.712891 0)"/>
     <use xlink:href="#ArialMT-39" transform="translate(311.328125 0)"/>
     <use xlink:href="#ArialMT-30" transform="translate(366.943359 0)"/>
    </g>
   </g>
   <g id="text_18">
    <!-- APX1092 -->
    <g style="fill: #262626; opacity: 0.9" transform="translate(260.96257 228.861846) scale(0.08 -0.08)">
     <use xlink:href="#ArialMT-41"/>
     <use xlink:href="#ArialMT-50" transform="translate(66.699219 0)"/>
     <use xlink:href="#ArialMT-58" transform="translate(133.398438 0)"/>
     <use xlink:href="#ArialMT-31" transform="translate(200.097656 0)"/>
     <use xlink:href="#ArialMT-30" transform="translate(255.712891 0)"/>
     <use xlink:href="#ArialMT-39" transform="translate(311.328125 0)"/>
     <use xlink:href="#ArialMT-32" transform="translate(366.943359 0)"/>
    </g>
   </g>
   <g id="text_19">
    <!-- APX1130 -->
    <g style="fill: #262626; opacity: 0.9" transform="translate(279.375025 219.349486) scale(0.08 -0.08)">
     <defs>
      <path id="ArialMT-33" d="M 269 1209 
L 831 1284 
Q 928 806 1161 595 
Q 1394 384 1728 384 
Q 2125 384 2398 659 
Q 2672 934 2672 1341 
Q 2672 1728 2419 1979 
Q 2166 2231 1775 2231 
Q 1616 2231 1378 2169 
L 1441 2663 
Q 1497 2656 1531 2656 
Q 1891 2656 2178 2843 
Q 2466 3031 2466 3422 
Q 2466 3731 2256 3934 
Q 2047 4138 1716 4138 
Q 1388 4138 1169 3931 
Q 950 3725 888 3313 
L 325 3413 
Q 428 3978 793 4289 
Q 1159 4600 1703 4600 
Q 2078 4600 2393 4439 
Q 2709 4278 2876 4000 
Q 3044 3722 3044 3409 
Q 3044 3113 2884 2869 
Q 2725 2625 2413 2481 
Q 2819 2388 3044 2092 
Q 3269 1797 3269 1353 
Q 3269 753 2831 336 
Q 2394 -81 1725 -81 
Q 1122 -81 723 278 
Q 325 638 269 1209 
z
" transform="scale(0.015625)"/>
     </defs>
     <use xlink:href="#ArialMT-41"/>
     <use xlink:href="#ArialMT-50" transform="translate(66.699219 0)"/>
     <use xlink:href="#ArialMT-58" transform="translate(133.398438 0)"/>
     <use xlink:href="#ArialMT-31" transform="translate(200.097656 0)"/>
     <use xlink:href="#ArialMT-31" transform="translate(248.337891 0)"/>
     <use xlink:href="#ArialMT-33" transform="translate(303.953125 0)"/>
     <use xlink:href="#ArialMT-30" transform="translate(359.568359 0)"/>
    </g>
   </g>
   <g id="text_20">
    <!-- APX1145 -->
    <g style="fill: #262626; opacity: 0.9" transform="translate(287.813484 207.78124) scale(0.08 -0.08)">
     <defs>
      <path id="ArialMT-34" d="M 2069 0 
L 2069 1097 
L 81 1097 
L 81 1613 
L 2172 4581 
L 2631 4581 
L 2631 1613 
L 3250 1613 
L 3250 1097 
L 2631 1097 
L 2631 0 
L 2069 0 
z
M 2069 1613 
L 2069 3678 
L 634 1613 
L 2069 1613 
z
" transform="scale(0.015625)"/>
     </defs>
     <use xlink:href="#ArialMT-41"/>
     <use xlink:href="#ArialMT-50" transform="translate(66.699219 0)"/>
     <use xlink:href="#ArialMT-58" transform="translate(133.398438 0)"/>
     <use xlink:href="#ArialMT-31" transform="translate(200.097656 0)"/>
     <use xlink:href="#ArialMT-31" transform="translate(248.337891 0)"/>
     <use xlink:href="#ArialMT-34" transform="translate(303.953125 0)"/>
     <use xlink:href="#ArialMT-35" transform="translate(359.568359 0)"/>
    </g>
   </g>
   <g id="text_21">
    <!-- APX1173 -->
    <g style="fill: #262626; opacity: 0.9" transform="translate(261.529871 227.878313) scale(0.08 -0.08)">
     <defs>
      <path id="ArialMT-37" d="M 303 3981 
L 303 4522 
L 3269 4522 
L 3269 4084 
Q 2831 3619 2401 2847 
Q 1972 2075 1738 1259 
Q 1569 684 1522 0 
L 944 0 
Q 953 541 1156 1306 
Q 1359 2072 1739 2783 
Q 2119 3494 2547 3981 
L 303 3981 
z
" transform="scale(0.015625)"/>
     </defs>
     <use xlink:href="#ArialMT-41"/>
     <use xlink:href="#ArialMT-50" transform="translate(66.699219 0)"/>
     <use xlink:href="#ArialMT-58" transform="translate(133.398438 0)"/>
     <use xlink:href="#ArialMT-31" transform="translate(200.097656 0)"/>
     <use xlink:href="#ArialMT-31" transform="translate(248.337891 0)"/>
     <use xlink:href="#ArialMT-37" transform="translate(303.953125 0)"/>
     <use xlink:href="#ArialMT-33" transform="translate(359.568359 0)"/>
    </g>
   </g>
   <g id="text_22">
    <!-- APX1186 -->
    <g style="fill: #262626; opacity: 0.9" transform="translate(317.862997 220.274712) scale(0.08 -0.08)">
     <defs>
      <path id="ArialMT-38" d="M 1131 2484 
Q 781 2613 612 2850 
Q 444 3088 444 3419 
Q 444 3919 803 4259 
Q 1163 4600 1759 4600 
Q 2359 4600 2725 4251 
Q 3091 3903 3091 3403 
Q 3091 3084 2923 2848 
Q 2756 2613 2416 2484 
Q 2838 2347 3058 2040 
Q 3278 1734 3278 1309 
Q 3278 722 2862 322 
Q 2447 -78 1769 -78 
Q 1091 -78 675 323 
Q 259 725 259 1325 
Q 259 1772 486 2073 
Q 713 2375 1131 2484 
z
M 1019 3438 
Q 1019 3113 1228 2906 
Q 1438 2700 1772 2700 
Q 2097 2700 2305 2904 
Q 2513 3109 2513 3406 
Q 2513 3716 2298 3927 
Q 2084 4138 1766 4138 
Q 1444 4138 1231 3931 
Q 1019 3725 1019 3438 
z
M 838 1322 
Q 838 1081 952 856 
Q 1066 631 1291 507 
Q 1516 384 1775 384 
Q 2178 384 2440 643 
Q 2703 903 2703 1303 
Q 2703 1709 2433 1975 
Q 2163 2241 1756 2241 
Q 1359 2241 1098 1978 
Q 838 1716 838 1322 
z
" transform="scale(0.015625)"/>
      <path id="ArialMT-36" d="M 3184 3459 
L 2625 3416 
Q 2550 3747 2413 3897 
Q 2184 4138 1850 4138 
Q 1581 4138 1378 3988 
Q 1113 3794 959 3422 
Q 806 3050 800 2363 
Q 1003 2672 1297 2822 
Q 1591 2972 1913 2972 
Q 2475 2972 2870 2558 
Q 3266 2144 3266 1488 
Q 3266 1056 3080 686 
Q 2894 316 2569 119 
Q 2244 -78 1831 -78 
Q 1128 -78 684 439 
Q 241 956 241 2144 
Q 241 3472 731 4075 
Q 1159 4600 1884 4600 
Q 2425 4600 2770 4297 
Q 3116 3994 3184 3459 
z
M 888 1484 
Q 888 1194 1011 928 
Q 1134 663 1356 523 
Q 1578 384 1822 384 
Q 2178 384 2434 671 
Q 2691 959 2691 1453 
Q 2691 1928 2437 2201 
Q 2184 2475 1800 2475 
Q 1419 2475 1153 2201 
Q 888 1928 888 1484 
z
" transform="scale(0.015625)"/>
     </defs>
     <use xlink:href="#ArialMT-41"/>
     <use xlink:href="#ArialMT-50" transform="translate(66.699219 0)"/>
     <use xlink:href="#ArialMT-58" transform="translate(133.398438 0)"/>
     <use xlink:href="#ArialMT-31" transform="translate(200.097656 0)"/>
     <use xlink:href="#ArialMT-31" transform="translate(248.337891 0)"/>
     <use xlink:href="#ArialMT-38" transform="translate(303.953125 0)"/>
     <use xlink:href="#ArialMT-36" transform="translate(359.568359 0)"/>
    </g>
   </g>
   <g id="text_23">
    <!-- APX1225 -->
    <g style="fill: #262626; opacity: 0.9" transform="translate(297.415313 198.263986) scale(0.08 -0.08)">
     <use xlink:href="#ArialMT-41"/>
     <use xlink:href="#ArialMT-50" transform="translate(66.699219 0)"/>
     <use xlink:href="#ArialMT-58" transform="translate(133.398438 0)"/>
     <use xlink:href="#ArialMT-31" transform="translate(200.097656 0)"/>
     <use xlink:href="#ArialMT-32" transform="translate(255.712891 0)"/>
     <use xlink:href="#ArialMT-32" transform="translate(311.328125 0)"/>
     <use xlink:href="#ArialMT-35" transform="translate(366.943359 0)"/>
    </g>
   </g>
   <g id="text_24">
    <!-- APX1278 -->
    <g style="fill: #262626; opacity: 0.9" transform="translate(337.095138 167.682354) scale(0.08 -0.08)">
     <use xlink:href="#ArialMT-41"/>
     <use xlink:href="#ArialMT-50" transform="translate(66.699219 0)"/>
     <use xlink:href="#ArialMT-58" transform="translate(133.398438 0)"/>
     <use xlink:href="#ArialMT-31" transform="translate(200.097656 0)"/>
     <use xlink:href="#ArialMT-32" transform="translate(255.712891 0)"/>
     <use xlink:href="#ArialMT-37" transform="translate(311.328125 0)"/>
     <use xlink:href="#ArialMT-38" transform="translate(366.943359 0)"/>
    </g>
   </g>
   <g id="text_25">
    <!-- PE002 -->
    <g style="fill: #262626; opacity: 0.9" transform="translate(261.014652 228.629345) scale(0.08 -0.08)">
     <use xlink:href="#ArialMT-50"/>
     <use xlink:href="#ArialMT-45" transform="translate(66.699219 0)"/>
     <use xlink:href="#ArialMT-30" transform="translate(133.398438 0)"/>
     <use xlink:href="#ArialMT-30" transform="translate(189.013672 0)"/>
     <use xlink:href="#ArialMT-32" transform="translate(244.628906 0)"/>
    </g>
   </g>
   <g id="text_26">
    <!-- PE017 -->
    <g style="fill: #262626; opacity: 0.9" transform="translate(427.519845 133.477856) scale(0.08 -0.08)">
     <use xlink:href="#ArialMT-50"/>
     <use xlink:href="#ArialMT-45" transform="translate(66.699219 0)"/>
     <use xlink:href="#ArialMT-30" transform="translate(133.398438 0)"/>
     <use xlink:href="#ArialMT-31" transform="translate(189.013672 0)"/>
     <use xlink:href="#ArialMT-37" transform="translate(244.628906 0)"/>
    </g>
   </g>
   <g id="text_27">
    <!-- PE019 -->
    <g style="fill: #262626; opacity: 0.9" transform="translate(261.056455 228.579429) scale(0.08 -0.08)">
     <use xlink:href="#ArialMT-50"/>
     <use xlink:href="#ArialMT-45" transform="translate(66.699219 0)"/>
     <use xlink:href="#ArialMT-30" transform="translate(133.398438 0)"/>
     <use xlink:href="#ArialMT-31" transform="translate(189.013672 0)"/>
     <use xlink:href="#ArialMT-39" transform="translate(244.628906 0)"/>
    </g>
   </g>
   <g id="text_28">
    <g id="patch_7">
     <path d="M 68.060216 98.830417 
L 207.938498 98.830417 
L 207.938498 85.34448 
L 68.060216 85.34448 
z
" style="fill: #ffffff; opacity: 0.75"/>
    </g>
    <!-- fit: y=8.38x+7.45\npearson r=0.95 -->
    <g style="fill: #262626" transform="translate(70.580216 94.416199) scale(0.09 -0.09)">
     <defs>
      <path id="ArialMT-66" d="M 556 0 
L 556 2881 
L 59 2881 
L 59 3319 
L 556 3319 
L 556 3672 
Q 556 4006 616 4169 
Q 697 4388 901 4523 
Q 1106 4659 1475 4659 
Q 1713 4659 2000 4603 
L 1916 4113 
Q 1741 4144 1584 4144 
Q 1328 4144 1222 4034 
Q 1116 3925 1116 3625 
L 1116 3319 
L 1763 3319 
L 1763 2881 
L 1116 2881 
L 1116 0 
L 556 0 
z
" transform="scale(0.015625)"/>
      <path id="ArialMT-74" d="M 1650 503 
L 1731 6 
Q 1494 -44 1306 -44 
Q 1000 -44 831 53 
Q 663 150 594 308 
Q 525 466 525 972 
L 525 2881 
L 113 2881 
L 113 3319 
L 525 3319 
L 525 4141 
L 1084 4478 
L 1084 3319 
L 1650 3319 
L 1650 2881 
L 1084 2881 
L 1084 941 
Q 1084 700 1114 631 
Q 1144 563 1211 522 
Q 1278 481 1403 481 
Q 1497 481 1650 503 
z
" transform="scale(0.015625)"/>
      <path id="ArialMT-3a" d="M 578 2678 
L 578 3319 
L 1219 3319 
L 1219 2678 
L 578 2678 
z
M 578 0 
L 578 641 
L 1219 641 
L 1219 0 
L 578 0 
z
" transform="scale(0.015625)"/>
      <path id="ArialMT-3d" d="M 3381 2694 
L 356 2694 
L 356 3219 
L 3381 3219 
L 3381 2694 
z
M 3381 1303 
L 356 1303 
L 356 1828 
L 3381 1828 
L 3381 1303 
z
" transform="scale(0.015625)"/>
      <path id="ArialMT-2e" d="M 581 0 
L 581 641 
L 1222 641 
L 1222 0 
L 581 0 
z
" transform="scale(0.015625)"/>
      <path id="ArialMT-78" d="M 47 0 
L 1259 1725 
L 138 3319 
L 841 3319 
L 1350 2541 
Q 1494 2319 1581 2169 
Q 1719 2375 1834 2534 
L 2394 3319 
L 3066 3319 
L 1919 1756 
L 3153 0 
L 2463 0 
L 1781 1031 
L 1600 1309 
L 728 0 
L 47 0 
z
" transform="scale(0.015625)"/>
      <path id="ArialMT-2b" d="M 1603 741 
L 1603 1997 
L 356 1997 
L 356 2522 
L 1603 2522 
L 1603 3769 
L 2134 3769 
L 2134 2522 
L 3381 2522 
L 3381 1997 
L 2134 1997 
L 2134 741 
L 1603 741 
z
" transform="scale(0.015625)"/>
      <path id="ArialMT-5c" d="M 1328 -78 
L 0 4659 
L 453 4659 
L 1778 -78 
L 1328 -78 
z
" transform="scale(0.015625)"/>
      <path id="ArialMT-70" d="M 422 -1272 
L 422 3319 
L 934 3319 
L 934 2888 
Q 1116 3141 1344 3267 
Q 1572 3394 1897 3394 
Q 2322 3394 2647 3175 
Q 2972 2956 3137 2557 
Q 3303 2159 3303 1684 
Q 3303 1175 3120 767 
Q 2938 359 2589 142 
Q 2241 -75 1856 -75 
Q 1575 -75 1351 44 
Q 1128 163 984 344 
L 984 -1272 
L 422 -1272 
z
M 931 1641 
Q 931 1000 1190 694 
Q 1450 388 1819 388 
Q 2194 388 2461 705 
Q 2728 1022 2728 1688 
Q 2728 2322 2467 2637 
Q 2206 2953 1844 2953 
Q 1484 2953 1207 2617 
Q 931 2281 931 1641 
z
" transform="scale(0.015625)"/>
      <path id="ArialMT-6f" d="M 213 1659 
Q 213 2581 725 3025 
Q 1153 3394 1769 3394 
Q 2453 3394 2887 2945 
Q 3322 2497 3322 1706 
Q 3322 1066 3130 698 
Q 2938 331 2570 128 
Q 2203 -75 1769 -75 
Q 1072 -75 642 372 
Q 213 819 213 1659 
z
M 791 1659 
Q 791 1022 1069 705 
Q 1347 388 1769 388 
Q 2188 388 2466 706 
Q 2744 1025 2744 1678 
Q 2744 2294 2464 2611 
Q 2184 2928 1769 2928 
Q 1347 2928 1069 2612 
Q 791 2297 791 1659 
z
" transform="scale(0.015625)"/>
     </defs>
     <use xlink:href="#ArialMT-66"/>
     <use xlink:href="#ArialMT-69" transform="translate(27.783203 0)"/>
     <use xlink:href="#ArialMT-74" transform="translate(50 0)"/>
     <use xlink:href="#ArialMT-3a" transform="translate(77.783203 0)"/>
     <use xlink:href="#ArialMT-20" transform="translate(105.566406 0)"/>
     <use xlink:href="#ArialMT-79" transform="translate(133.349609 0)"/>
     <use xlink:href="#ArialMT-3d" transform="translate(183.349609 0)"/>
     <use xlink:href="#ArialMT-38" transform="translate(241.748047 0)"/>
     <use xlink:href="#ArialMT-2e" transform="translate(297.363281 0)"/>
     <use xlink:href="#ArialMT-33" transform="translate(325.146484 0)"/>
     <use xlink:href="#ArialMT-38" transform="translate(380.761719 0)"/>
     <use xlink:href="#ArialMT-78" transform="translate(436.376953 0)"/>
     <use xlink:href="#ArialMT-2b" transform="translate(486.376953 0)"/>
     <use xlink:href="#ArialMT-37" transform="translate(544.775391 0)"/>
     <use xlink:href="#ArialMT-2e" transform="translate(600.390625 0)"/>
     <use xlink:href="#ArialMT-34" transform="translate(628.173828 0)"/>
     <use xlink:href="#ArialMT-35" transform="translate(683.789062 0)"/>
     <use xlink:href="#ArialMT-5c" transform="translate(739.404297 0)"/>
     <use xlink:href="#ArialMT-6e" transform="translate(767.1875 0)"/>
     <use xlink:href="#ArialMT-70" transform="translate(822.802734 0)"/>
     <use xlink:href="#ArialMT-65" transform="translate(878.417969 0)"/>
     <use xlink:href="#ArialMT-61" transform="translate(934.033203 0)"/>
     <use xlink:href="#ArialMT-72" transform="translate(989.648438 0)"/>
     <use xlink:href="#ArialMT-73" transform="translate(1022.949219 0)"/>
     <use xlink:href="#ArialMT-6f" transform="translate(1072.949219 0)"/>
     <use xlink:href="#ArialMT-6e" transform="translate(1128.564453 0)"/>
     <use xlink:href="#ArialMT-20" transform="translate(1184.179688 0)"/>
     <use xlink:href="#ArialMT-72" transform="translate(1211.962891 0)"/>
     <use xlink:href="#ArialMT-3d" transform="translate(1245.263672 0)"/>
     <use xlink:href="#ArialMT-30" transform="translate(1303.662109 0)"/>
     <use xlink:href="#ArialMT-2e" transform="translate(1359.277344 0)"/>
     <use xlink:href="#ArialMT-39" transform="translate(1387.060547 0)"/>
     <use xlink:href="#ArialMT-35" transform="translate(1442.675781 0)"/>
    </g>
   </g>
   <g id="text_29">
    <!-- PC_1 -->
    <g style="fill: #262626" transform="translate(240.999471 72.624) scale(0.12 -0.12)">
     <defs>
      <path id="Arial-BoldMT-50" d="M 466 0 
L 466 4581 
L 1950 4581 
Q 2794 4581 3050 4513 
Q 3444 4409 3709 4064 
Q 3975 3719 3975 3172 
Q 3975 2750 3822 2462 
Q 3669 2175 3433 2011 
Q 3197 1847 2953 1794 
Q 2622 1728 1994 1728 
L 1391 1728 
L 1391 0 
L 466 0 
z
M 1391 3806 
L 1391 2506 
L 1897 2506 
Q 2444 2506 2628 2578 
Q 2813 2650 2917 2803 
Q 3022 2956 3022 3159 
Q 3022 3409 2875 3571 
Q 2728 3734 2503 3775 
Q 2338 3806 1838 3806 
L 1391 3806 
z
" transform="scale(0.015625)"/>
      <path id="Arial-BoldMT-43" d="M 3397 1684 
L 4294 1400 
Q 4088 650 3608 286 
Q 3128 -78 2391 -78 
Q 1478 -78 890 545 
Q 303 1169 303 2250 
Q 303 3394 893 4026 
Q 1484 4659 2447 4659 
Q 3288 4659 3813 4163 
Q 4125 3869 4281 3319 
L 3366 3100 
Q 3284 3456 3026 3662 
Q 2769 3869 2400 3869 
Q 1891 3869 1573 3503 
Q 1256 3138 1256 2319 
Q 1256 1450 1568 1081 
Q 1881 713 2381 713 
Q 2750 713 3015 947 
Q 3281 1181 3397 1684 
z
" transform="scale(0.015625)"/>
      <path id="Arial-BoldMT-5f" d="M -59 -1266 
L -59 -697 
L 3591 -697 
L 3591 -1266 
L -59 -1266 
z
" transform="scale(0.015625)"/>
      <path id="Arial-BoldMT-31" d="M 2519 0 
L 1641 0 
L 1641 3309 
Q 1159 2859 506 2644 
L 506 3441 
Q 850 3553 1253 3867 
Q 1656 4181 1806 4600 
L 2519 4600 
L 2519 0 
z
" transform="scale(0.015625)"/>
     </defs>
     <use xlink:href="#Arial-BoldMT-50"/>
     <use xlink:href="#Arial-BoldMT-43" transform="translate(66.699219 0)"/>
     <use xlink:href="#Arial-BoldMT-5f" transform="translate(138.916016 0)"/>
     <use xlink:href="#Arial-BoldMT-31" transform="translate(194.53125 0)"/>
    </g>
   </g>
  </g>
  <g id="axes_2">
   <g id="patch_8">
    <path d="M 480.06637 386.64 
L 866.374063 386.64 
L 866.374063 78.624 
L 480.06637 78.624 
z
" style="fill: #ffffff"/>
   </g>
   <g id="matplotlib.axis_3">
    <g id="xtick_10">
     <g id="line2d_18">
      <path d="M 484.592762 386.64 
L 484.592762 78.624 
" clip-path="url(#p0e70d7c8d9)" style="fill: none; stroke: #cccccc; stroke-linecap: round"/>
     </g>
     <g id="text_30">
      <!-- −200 -->
      <g style="fill: #262626" transform="translate(472.204871 404.013594) scale(0.11 -0.11)">
       <use xlink:href="#ArialMT-2212"/>
       <use xlink:href="#ArialMT-32" transform="translate(58.398438 0)"/>
       <use xlink:href="#ArialMT-30" transform="translate(114.013672 0)"/>
       <use xlink:href="#ArialMT-30" transform="translate(169.628906 0)"/>
      </g>
     </g>
    </g>
    <g id="xtick_11">
     <g id="line2d_19">
      <path d="M 531.749626 386.64 
L 531.749626 78.624 
" clip-path="url(#p0e70d7c8d9)" style="fill: none; stroke: #cccccc; stroke-linecap: round"/>
     </g>
     <g id="text_31">
      <!-- −150 -->
      <g style="fill: #262626" transform="translate(519.361735 404.013594) scale(0.11 -0.11)">
       <use xlink:href="#ArialMT-2212"/>
       <use xlink:href="#ArialMT-31" transform="translate(58.398438 0)"/>
       <use xlink:href="#ArialMT-35" transform="translate(114.013672 0)"/>
       <use xlink:href="#ArialMT-30" transform="translate(169.628906 0)"/>
      </g>
     </g>
    </g>
    <g id="xtick_12">
     <g id="line2d_20">
      <path d="M 578.906489 386.64 
L 578.906489 78.624 
" clip-path="url(#p0e70d7c8d9)" style="fill: none; stroke: #cccccc; stroke-linecap: round"/>
     </g>
     <g id="text_32">
      <!-- −100 -->
      <g style="fill: #262626" transform="translate(566.518599 404.013594) scale(0.11 -0.11)">
       <use xlink:href="#ArialMT-2212"/>
       <use xlink:href="#ArialMT-31" transform="translate(58.398438 0)"/>
       <use xlink:href="#ArialMT-30" transform="translate(114.013672 0)"/>
       <use xlink:href="#ArialMT-30" transform="translate(169.628906 0)"/>
      </g>
     </g>
    </g>
    <g id="xtick_13">
     <g id="line2d_21">
      <path d="M 626.063353 386.64 
L 626.063353 78.624 
" clip-path="url(#p0e70d7c8d9)" style="fill: none; stroke: #cccccc; stroke-linecap: round"/>
     </g>
     <g id="text_33">
      <!-- −50 -->
      <g style="fill: #262626" transform="translate(616.733978 404.013594) scale(0.11 -0.11)">
       <use xlink:href="#ArialMT-2212"/>
       <use xlink:href="#ArialMT-35" transform="translate(58.398438 0)"/>
       <use xlink:href="#ArialMT-30" transform="translate(114.013672 0)"/>
      </g>
     </g>
    </g>
    <g id="xtick_14">
     <g id="line2d_22">
      <path d="M 673.220216 386.64 
L 673.220216 78.624 
" clip-path="url(#p0e70d7c8d9)" style="fill: none; stroke: #cccccc; stroke-linecap: round"/>
     </g>
     <g id="text_34">
      <!-- 0 -->
      <g style="fill: #262626" transform="translate(670.161701 404.013594) scale(0.11 -0.11)">
       <use xlink:href="#ArialMT-30"/>
      </g>
     </g>
    </g>
    <g id="xtick_15">
     <g id="line2d_23">
      <path d="M 720.37708 386.64 
L 720.37708 78.624 
" clip-path="url(#p0e70d7c8d9)" style="fill: none; stroke: #cccccc; stroke-linecap: round"/>
     </g>
     <g id="text_35">
      <!-- 50 -->
      <g style="fill: #262626" transform="translate(714.260049 404.013594) scale(0.11 -0.11)">
       <use xlink:href="#ArialMT-35"/>
       <use xlink:href="#ArialMT-30" transform="translate(55.615234 0)"/>
      </g>
     </g>
    </g>
    <g id="xtick_16">
     <g id="line2d_24">
      <path d="M 767.533944 386.64 
L 767.533944 78.624 
" clip-path="url(#p0e70d7c8d9)" style="fill: none; stroke: #cccccc; stroke-linecap: round"/>
     </g>
     <g id="text_36">
      <!-- 100 -->
      <g style="fill: #262626" transform="translate(758.358397 404.013594) scale(0.11 -0.11)">
       <use xlink:href="#ArialMT-31"/>
       <use xlink:href="#ArialMT-30" transform="translate(55.615234 0)"/>
       <use xlink:href="#ArialMT-30" transform="translate(111.230469 0)"/>
      </g>
     </g>
    </g>
    <g id="xtick_17">
     <g id="line2d_25">
      <path d="M 814.690807 386.64 
L 814.690807 78.624 
" clip-path="url(#p0e70d7c8d9)" style="fill: none; stroke: #cccccc; stroke-linecap: round"/>
     </g>
     <g id="text_37">
      <!-- 150 -->
      <g style="fill: #262626" transform="translate(805.51526 404.013594) scale(0.11 -0.11)">
       <use xlink:href="#ArialMT-31"/>
       <use xlink:href="#ArialMT-35" transform="translate(55.615234 0)"/>
       <use xlink:href="#ArialMT-30" transform="translate(111.230469 0)"/>
      </g>
     </g>
    </g>
    <g id="xtick_18">
     <g id="line2d_26">
      <path d="M 861.847671 386.64 
L 861.847671 78.624 
" clip-path="url(#p0e70d7c8d9)" style="fill: none; stroke: #cccccc; stroke-linecap: round"/>
     </g>
     <g id="text_38">
      <!-- 200 -->
      <g style="fill: #262626" transform="translate(852.672124 404.013594) scale(0.11 -0.11)">
       <use xlink:href="#ArialMT-32"/>
       <use xlink:href="#ArialMT-30" transform="translate(55.615234 0)"/>
       <use xlink:href="#ArialMT-30" transform="translate(111.230469 0)"/>
      </g>
     </g>
    </g>
    <g id="text_39">
     <!-- Time Saving (s) -->
     <g style="fill: #262626" transform="translate(631.438654 418.935469) scale(0.12 -0.12)">
      <use xlink:href="#ArialMT-54"/>
      <use xlink:href="#ArialMT-69" transform="translate(57.333984 0)"/>
      <use xlink:href="#ArialMT-6d" transform="translate(79.550781 0)"/>
      <use xlink:href="#ArialMT-65" transform="translate(162.851562 0)"/>
      <use xlink:href="#ArialMT-20" transform="translate(218.466797 0)"/>
      <use xlink:href="#ArialMT-53" transform="translate(246.25 0)"/>
      <use xlink:href="#ArialMT-61" transform="translate(312.949219 0)"/>
      <use xlink:href="#ArialMT-76" transform="translate(368.564453 0)"/>
      <use xlink:href="#ArialMT-69" transform="translate(418.564453 0)"/>
      <use xlink:href="#ArialMT-6e" transform="translate(440.78125 0)"/>
      <use xlink:href="#ArialMT-67" transform="translate(496.396484 0)"/>
      <use xlink:href="#ArialMT-20" transform="translate(552.011719 0)"/>
      <use xlink:href="#ArialMT-28" transform="translate(579.794922 0)"/>
      <use xlink:href="#ArialMT-73" transform="translate(613.095703 0)"/>
      <use xlink:href="#ArialMT-29" transform="translate(663.095703 0)"/>
     </g>
    </g>
   </g>
   <g id="matplotlib.axis_4">
    <g id="ytick_6">
     <g id="line2d_27">
      <path d="M 480.06637 362.732397 
L 866.374063 362.732397 
" clip-path="url(#p0e70d7c8d9)" style="fill: none; stroke: #cccccc; stroke-linecap: round"/>
     </g>
    </g>
    <g id="ytick_7">
     <g id="line2d_28">
      <path d="M 480.06637 297.682198 
L 866.374063 297.682198 
" clip-path="url(#p0e70d7c8d9)" style="fill: none; stroke: #cccccc; stroke-linecap: round"/>
     </g>
    </g>
    <g id="ytick_8">
     <g id="line2d_29">
      <path d="M 480.06637 232.632 
L 866.374063 232.632 
" clip-path="url(#p0e70d7c8d9)" style="fill: none; stroke: #cccccc; stroke-linecap: round"/>
     </g>
    </g>
    <g id="ytick_9">
     <g id="line2d_30">
      <path d="M 480.06637 167.581802 
L 866.374063 167.581802 
" clip-path="url(#p0e70d7c8d9)" style="fill: none; stroke: #cccccc; stroke-linecap: round"/>
     </g>
    </g>
    <g id="ytick_10">
     <g id="line2d_31">
      <path d="M 480.06637 102.531603 
L 866.374063 102.531603 
" clip-path="url(#p0e70d7c8d9)" style="fill: none; stroke: #cccccc; stroke-linecap: round"/>
     </g>
    </g>
   </g>
   <g id="PathCollection_2">
    <defs>
     <path id="C1_0_55be6ae4a2" d="M 0 4.873397 
C 1.29244 4.873397 2.532119 4.359905 3.446012 3.446012 
C 4.359905 2.532119 4.873397 1.29244 4.873397 -0 
C 4.873397 -1.29244 4.359905 -2.532119 3.446012 -3.446012 
C 2.532119 -4.359905 1.29244 -4.873397 0 -4.873397 
C -1.29244 -4.873397 -2.532119 -4.359905 -3.446012 -3.446012 
C -4.359905 -2.532119 -4.873397 -1.29244 -4.873397 0 
C -4.873397 1.29244 -4.359905 2.532119 -3.446012 3.446012 
C -2.532119 4.359905 -1.29244 4.873397 0 4.873397 
z
"/>
    </defs>
    <g clip-path="url(#p0e70d7c8d9)">
     <use xlink:href="#C1_0_55be6ae4a2" x="671.420415" y="234.243059" style="fill: #f4a261; stroke: #000000; stroke-width: 0.5"/>
    </g>
    <g clip-path="url(#p0e70d7c8d9)">
     <use xlink:href="#C1_0_55be6ae4a2" x="673.266205" y="232.990852" style="fill: #8fbaf5; stroke: #000000; stroke-width: 0.5"/>
    </g>
    <g clip-path="url(#p0e70d7c8d9)">
     <use xlink:href="#C1_0_55be6ae4a2" x="688.304754" y="220.757578" style="fill: #39d353; stroke: #000000; stroke-width: 0.5"/>
    </g>
    <g clip-path="url(#p0e70d7c8d9)">
     <use xlink:href="#C1_0_55be6ae4a2" x="689.184459" y="208.338482" style="fill: #39d353; stroke: #000000; stroke-width: 0.5"/>
    </g>
    <g clip-path="url(#p0e70d7c8d9)">
     <use xlink:href="#C1_0_55be6ae4a2" x="670.679436" y="234.02961" style="fill: #f4a261; stroke: #000000; stroke-width: 0.5"/>
    </g>
    <g clip-path="url(#p0e70d7c8d9)">
     <use xlink:href="#C1_0_55be6ae4a2" x="727.470537" y="226.196763" style="fill: #39d353; stroke: #000000; stroke-width: 0.5"/>
    </g>
    <g clip-path="url(#p0e70d7c8d9)">
     <use xlink:href="#C1_0_55be6ae4a2" x="693.13985" y="193.438338" style="fill: #39d353; stroke: #000000; stroke-width: 0.5"/>
    </g>
    <g clip-path="url(#p0e70d7c8d9)">
     <use xlink:href="#C1_0_55be6ae4a2" x="711.118021" y="163.89445" style="fill: #39d353; stroke: #000000; stroke-width: 0.5"/>
    </g>
    <g clip-path="url(#p0e70d7c8d9)">
     <use xlink:href="#C1_0_55be6ae4a2" x="673.222594" y="232.632171" style="fill: #8fbaf5; stroke: #000000; stroke-width: 0.5"/>
    </g>
    <g clip-path="url(#p0e70d7c8d9)">
     <use xlink:href="#C1_0_55be6ae4a2" x="826.447591" y="99.866483" style="fill: #39d353; stroke: #000000; stroke-width: 0.5"/>
    </g>
    <g clip-path="url(#p0e70d7c8d9)">
     <use xlink:href="#C1_0_55be6ae4a2" x="673.215427" y="232.572783" style="fill: #8fbaf5; stroke: #000000; stroke-width: 0.5"/>
    </g>
   </g>
   <g id="line2d_32">
    <path d="M 480.06637 387.371796 
L 866.374063 70.535066 
" clip-path="url(#p0e70d7c8d9)" style="fill: none; stroke: #e76f51; stroke-opacity: 0.9; stroke-width: 1.6; stroke-linecap: round"/>
   </g>
   <g id="line2d_33">
    <path d="M 480.06637 232.632 
L 866.374063 232.632 
" clip-path="url(#p0e70d7c8d9)" style="fill: none; stroke-dasharray: 0.9,1.485; stroke-dashoffset: 0; stroke: #808080; stroke-opacity: 0.7; stroke-width: 0.9"/>
   </g>
   <g id="line2d_34">
    <path d="M 673.220216 386.64 
L 673.220216 78.624 
" clip-path="url(#p0e70d7c8d9)" style="fill: none; stroke-dasharray: 0.9,1.485; stroke-dashoffset: 0; stroke: #808080; stroke-opacity: 0.7; stroke-width: 0.9"/>
   </g>
   <g id="patch_9">
    <path d="M 480.06637 386.64 
L 480.06637 78.624 
" style="fill: none; stroke: #cccccc; stroke-width: 1.25; stroke-linejoin: miter; stroke-linecap: square"/>
   </g>
   <g id="patch_10">
    <path d="M 866.374063 386.64 
L 866.374063 78.624 
" style="fill: none; stroke: #cccccc; stroke-width: 1.25; stroke-linejoin: miter; stroke-linecap: square"/>
   </g>
   <g id="patch_11">
    <path d="M 480.06637 386.64 
L 866.374063 386.64 
" style="fill: none; stroke: #cccccc; stroke-width: 1.25; stroke-linejoin: miter; stroke-linecap: square"/>
   </g>
   <g id="patch_12">
    <path d="M 480.06637 78.624 
L 866.374063 78.624 
" style="fill: none; stroke: #cccccc; stroke-width: 1.25; stroke-linejoin: miter; stroke-linecap: square"/>
   </g>
   <g id="text_40">
    <!-- APX1090 -->
    <g style="fill: #262626; opacity: 0.9" transform="translate(676.420415 230.243059) scale(0.08 -0.08)">
     <use xlink:href="#ArialMT-41"/>
     <use xlink:href="#ArialMT-50" transform="translate(66.699219 0)"/>
     <use xlink:href="#ArialMT-58" transform="translate(133.398438 0)"/>
     <use xlink:href="#ArialMT-31" transform="translate(200.097656 0)"/>
     <use xlink:href="#ArialMT-30" transform="translate(255.712891 0)"/>
     <use xlink:href="#ArialMT-39" transform="translate(311.328125 0)"/>
     <use xlink:href="#ArialMT-30" transform="translate(366.943359 0)"/>
    </g>
   </g>
   <g id="text_41">
    <!-- APX1092 -->
    <g style="fill: #262626; opacity: 0.9" transform="translate(678.266205 228.990852) scale(0.08 -0.08)">
     <use xlink:href="#ArialMT-41"/>
     <use xlink:href="#ArialMT-50" transform="translate(66.699219 0)"/>
     <use xlink:href="#ArialMT-58" transform="translate(133.398438 0)"/>
     <use xlink:href="#ArialMT-31" transform="translate(200.097656 0)"/>
     <use xlink:href="#ArialMT-30" transform="translate(255.712891 0)"/>
     <use xlink:href="#ArialMT-39" transform="translate(311.328125 0)"/>
     <use xlink:href="#ArialMT-32" transform="translate(366.943359 0)"/>
    </g>
   </g>
   <g id="text_42">
    <!-- APX1130 -->
    <g style="fill: #262626; opacity: 0.9" transform="translate(693.304754 216.757578) scale(0.08 -0.08)">
     <use xlink:href="#ArialMT-41"/>
     <use xlink:href="#ArialMT-50" transform="translate(66.699219 0)"/>
     <use xlink:href="#ArialMT-58" transform="translate(133.398438 0)"/>
     <use xlink:href="#ArialMT-31" transform="translate(200.097656 0)"/>
     <use xlink:href="#ArialMT-31" transform="translate(248.337891 0)"/>
     <use xlink:href="#ArialMT-33" transform="translate(303.953125 0)"/>
     <use xlink:href="#ArialMT-30" transform="translate(359.568359 0)"/>
    </g>
   </g>
   <g id="text_43">
    <!-- APX1145 -->
    <g style="fill: #262626; opacity: 0.9" transform="translate(694.184459 204.338482) scale(0.08 -0.08)">
     <use xlink:href="#ArialMT-41"/>
     <use xlink:href="#ArialMT-50" transform="translate(66.699219 0)"/>
     <use xlink:href="#ArialMT-58" transform="translate(133.398438 0)"/>
     <use xlink:href="#ArialMT-31" transform="translate(200.097656 0)"/>
     <use xlink:href="#ArialMT-31" transform="translate(248.337891 0)"/>
     <use xlink:href="#ArialMT-34" transform="translate(303.953125 0)"/>
     <use xlink:href="#ArialMT-35" transform="translate(359.568359 0)"/>
    </g>
   </g>
   <g id="text_44">
    <!-- APX1173 -->
    <g style="fill: #262626; opacity: 0.9" transform="translate(675.679436 230.02961) scale(0.08 -0.08)">
     <use xlink:href="#ArialMT-41"/>
     <use xlink:href="#ArialMT-50" transform="translate(66.699219 0)"/>
     <use xlink:href="#ArialMT-58" transform="translate(133.398438 0)"/>
     <use xlink:href="#ArialMT-31" transform="translate(200.097656 0)"/>
     <use xlink:href="#ArialMT-31" transform="translate(248.337891 0)"/>
     <use xlink:href="#ArialMT-37" transform="translate(303.953125 0)"/>
     <use xlink:href="#ArialMT-33" transform="translate(359.568359 0)"/>
    </g>
   </g>
   <g id="text_45">
    <!-- APX1186 -->
    <g style="fill: #262626; opacity: 0.9" transform="translate(732.470537 222.196763) scale(0.08 -0.08)">
     <use xlink:href="#ArialMT-41"/>
     <use xlink:href="#ArialMT-50" transform="translate(66.699219 0)"/>
     <use xlink:href="#ArialMT-58" transform="translate(133.398438 0)"/>
     <use xlink:href="#ArialMT-31" transform="translate(200.097656 0)"/>
     <use xlink:href="#ArialMT-31" transform="translate(248.337891 0)"/>
     <use xlink:href="#ArialMT-38" transform="translate(303.953125 0)"/>
     <use xlink:href="#ArialMT-36" transform="translate(359.568359 0)"/>
    </g>
   </g>
   <g id="text_46">
    <!-- APX1225 -->
    <g style="fill: #262626; opacity: 0.9" transform="translate(698.13985 189.438338) scale(0.08 -0.08)">
     <use xlink:href="#ArialMT-41"/>
     <use xlink:href="#ArialMT-50" transform="translate(66.699219 0)"/>
     <use xlink:href="#ArialMT-58" transform="translate(133.398438 0)"/>
     <use xlink:href="#ArialMT-31" transform="translate(200.097656 0)"/>
     <use xlink:href="#ArialMT-32" transform="translate(255.712891 0)"/>
     <use xlink:href="#ArialMT-32" transform="translate(311.328125 0)"/>
     <use xlink:href="#ArialMT-35" transform="translate(366.943359 0)"/>
    </g>
   </g>
   <g id="text_47">
    <!-- APX1278 -->
    <g style="fill: #262626; opacity: 0.9" transform="translate(716.118021 159.89445) scale(0.08 -0.08)">
     <use xlink:href="#ArialMT-41"/>
     <use xlink:href="#ArialMT-50" transform="translate(66.699219 0)"/>
     <use xlink:href="#ArialMT-58" transform="translate(133.398438 0)"/>
     <use xlink:href="#ArialMT-31" transform="translate(200.097656 0)"/>
     <use xlink:href="#ArialMT-32" transform="translate(255.712891 0)"/>
     <use xlink:href="#ArialMT-37" transform="translate(311.328125 0)"/>
     <use xlink:href="#ArialMT-38" transform="translate(366.943359 0)"/>
    </g>
   </g>
   <g id="text_48">
    <!-- PE002 -->
    <g style="fill: #262626; opacity: 0.9" transform="translate(678.222594 228.632171) scale(0.08 -0.08)">
     <use xlink:href="#ArialMT-50"/>
     <use xlink:href="#ArialMT-45" transform="translate(66.699219 0)"/>
     <use xlink:href="#ArialMT-30" transform="translate(133.398438 0)"/>
     <use xlink:href="#ArialMT-30" transform="translate(189.013672 0)"/>
     <use xlink:href="#ArialMT-32" transform="translate(244.628906 0)"/>
    </g>
   </g>
   <g id="text_49">
    <!-- PE017 -->
    <g style="fill: #262626; opacity: 0.9" transform="translate(831.447591 95.866483) scale(0.08 -0.08)">
     <use xlink:href="#ArialMT-50"/>
     <use xlink:href="#ArialMT-45" transform="translate(66.699219 0)"/>
     <use xlink:href="#ArialMT-30" transform="translate(133.398438 0)"/>
     <use xlink:href="#ArialMT-31" transform="translate(189.013672 0)"/>
     <use xlink:href="#ArialMT-37" transform="translate(244.628906 0)"/>
    </g>
   </g>
   <g id="text_50">
    <!-- PE019 -->
    <g style="fill: #262626; opacity: 0.9" transform="translate(678.215427 228.572783) scale(0.08 -0.08)">
     <use xlink:href="#ArialMT-50"/>
     <use xlink:href="#ArialMT-45" transform="translate(66.699219 0)"/>
     <use xlink:href="#ArialMT-30" transform="translate(133.398438 0)"/>
     <use xlink:href="#ArialMT-31" transform="translate(189.013672 0)"/>
     <use xlink:href="#ArialMT-39" transform="translate(244.628906 0)"/>
    </g>
   </g>
   <g id="text_51">
    <g id="patch_13">
     <path d="M 485.272524 98.830417 
L 634.496743 98.830417 
L 634.496743 85.34448 
L 485.272524 85.34448 
z
" style="fill: #ffffff; opacity: 0.75"/>
    </g>
    <!-- fit: y=11.89x+56.55\npearson r=0.90 -->
    <g style="fill: #262626" transform="translate(487.792524 94.416199) scale(0.09 -0.09)">
     <use xlink:href="#ArialMT-66"/>
     <use xlink:href="#ArialMT-69" transform="translate(27.783203 0)"/>
     <use xlink:href="#ArialMT-74" transform="translate(50 0)"/>
     <use xlink:href="#ArialMT-3a" transform="translate(77.783203 0)"/>
     <use xlink:href="#ArialMT-20" transform="translate(105.566406 0)"/>
     <use xlink:href="#ArialMT-79" transform="translate(133.349609 0)"/>
     <use xlink:href="#ArialMT-3d" transform="translate(183.349609 0)"/>
     <use xlink:href="#ArialMT-31" transform="translate(241.748047 0)"/>
     <use xlink:href="#ArialMT-31" transform="translate(289.988281 0)"/>
     <use xlink:href="#ArialMT-2e" transform="translate(345.603516 0)"/>
     <use xlink:href="#ArialMT-38" transform="translate(373.386719 0)"/>
     <use xlink:href="#ArialMT-39" transform="translate(429.001953 0)"/>
     <use xlink:href="#ArialMT-78" transform="translate(484.617188 0)"/>
     <use xlink:href="#ArialMT-2b" transform="translate(534.617188 0)"/>
     <use xlink:href="#ArialMT-35" transform="translate(593.015625 0)"/>
     <use xlink:href="#ArialMT-36" transform="translate(648.630859 0)"/>
     <use xlink:href="#ArialMT-2e" transform="translate(704.246094 0)"/>
     <use xlink:href="#ArialMT-35" transform="translate(732.029297 0)"/>
     <use xlink:href="#ArialMT-35" transform="translate(787.644531 0)"/>
     <use xlink:href="#ArialMT-5c" transform="translate(843.259766 0)"/>
     <use xlink:href="#ArialMT-6e" transform="translate(871.042969 0)"/>
     <use xlink:href="#ArialMT-70" transform="translate(926.658203 0)"/>
     <use xlink:href="#ArialMT-65" transform="translate(982.273438 0)"/>
     <use xlink:href="#ArialMT-61" transform="translate(1037.888672 0)"/>
     <use xlink:href="#ArialMT-72" transform="translate(1093.503906 0)"/>
     <use xlink:href="#ArialMT-73" transform="translate(1126.804688 0)"/>
     <use xlink:href="#ArialMT-6f" transform="translate(1176.804688 0)"/>
     <use xlink:href="#ArialMT-6e" transform="translate(1232.419922 0)"/>
     <use xlink:href="#ArialMT-20" transform="translate(1288.035156 0)"/>
     <use xlink:href="#ArialMT-72" transform="translate(1315.818359 0)"/>
     <use xlink:href="#ArialMT-3d" transform="translate(1349.119141 0)"/>
     <use xlink:href="#ArialMT-30" transform="translate(1407.517578 0)"/>
     <use xlink:href="#ArialMT-2e" transform="translate(1463.132812 0)"/>
     <use xlink:href="#ArialMT-39" transform="translate(1490.916016 0)"/>
     <use xlink:href="#ArialMT-30" transform="translate(1546.53125 0)"/>
    </g>
   </g>
   <g id="text_52">
    <!-- PC_2 -->
    <g style="fill: #262626" transform="translate(658.211779 72.624) scale(0.12 -0.12)">
     <defs>
      <path id="Arial-BoldMT-32" d="M 3238 816 
L 3238 0 
L 159 0 
Q 209 463 459 877 
Q 709 1291 1447 1975 
Q 2041 2528 2175 2725 
Q 2356 2997 2356 3263 
Q 2356 3556 2198 3714 
Q 2041 3872 1763 3872 
Q 1488 3872 1325 3706 
Q 1163 3541 1138 3156 
L 263 3244 
Q 341 3969 753 4284 
Q 1166 4600 1784 4600 
Q 2463 4600 2850 4234 
Q 3238 3869 3238 3325 
Q 3238 3016 3127 2736 
Q 3016 2456 2775 2150 
Q 2616 1947 2200 1565 
Q 1784 1184 1673 1059 
Q 1563 934 1494 816 
L 3238 816 
z
" transform="scale(0.015625)"/>
     </defs>
     <use xlink:href="#Arial-BoldMT-50"/>
     <use xlink:href="#Arial-BoldMT-43" transform="translate(66.699219 0)"/>
     <use xlink:href="#Arial-BoldMT-5f" transform="translate(138.916016 0)"/>
     <use xlink:href="#Arial-BoldMT-32" transform="translate(194.53125 0)"/>
    </g>
   </g>
  </g>
  <g id="text_53">
   <!-- A/B Savings Relationship by Query and PC (RAPL, Absolute, raw) -->
   <g style="fill: #262626" transform="translate(248.933281 16.663594) scale(0.13 -0.13)">
    <defs>
     <path id="Arial-BoldMT-41" d="M 4597 0 
L 3591 0 
L 3191 1041 
L 1359 1041 
L 981 0 
L 0 0 
L 1784 4581 
L 2763 4581 
L 4597 0 
z
M 2894 1813 
L 2263 3513 
L 1644 1813 
L 2894 1813 
z
" transform="scale(0.015625)"/>
     <path id="Arial-BoldMT-2f" d="M -9 -78 
L 1125 4659 
L 1784 4659 
L 638 -78 
L -9 -78 
z
" transform="scale(0.015625)"/>
     <path id="Arial-BoldMT-42" d="M 469 4581 
L 2300 4581 
Q 2844 4581 3111 4536 
Q 3378 4491 3589 4347 
Q 3800 4203 3940 3964 
Q 4081 3725 4081 3428 
Q 4081 3106 3907 2837 
Q 3734 2569 3438 2434 
Q 3856 2313 4081 2019 
Q 4306 1725 4306 1328 
Q 4306 1016 4161 720 
Q 4016 425 3764 248 
Q 3513 72 3144 31 
Q 2913 6 2028 0 
L 469 0 
L 469 4581 
z
M 1394 3819 
L 1394 2759 
L 2000 2759 
Q 2541 2759 2672 2775 
Q 2909 2803 3045 2939 
Q 3181 3075 3181 3297 
Q 3181 3509 3064 3642 
Q 2947 3775 2716 3803 
Q 2578 3819 1925 3819 
L 1394 3819 
z
M 1394 1997 
L 1394 772 
L 2250 772 
Q 2750 772 2884 800 
Q 3091 838 3220 983 
Q 3350 1128 3350 1372 
Q 3350 1578 3250 1722 
Q 3150 1866 2961 1931 
Q 2772 1997 2141 1997 
L 1394 1997 
z
" transform="scale(0.015625)"/>
     <path id="Arial-BoldMT-20" transform="scale(0.015625)"/>
     <path id="Arial-BoldMT-53" d="M 231 1491 
L 1131 1578 
Q 1213 1125 1461 912 
Q 1709 700 2131 700 
Q 2578 700 2804 889 
Q 3031 1078 3031 1331 
Q 3031 1494 2936 1608 
Q 2841 1722 2603 1806 
Q 2441 1863 1863 2006 
Q 1119 2191 819 2459 
Q 397 2838 397 3381 
Q 397 3731 595 4036 
Q 794 4341 1167 4500 
Q 1541 4659 2069 4659 
Q 2931 4659 3367 4281 
Q 3803 3903 3825 3272 
L 2900 3231 
Q 2841 3584 2645 3739 
Q 2450 3894 2059 3894 
Q 1656 3894 1428 3728 
Q 1281 3622 1281 3444 
Q 1281 3281 1419 3166 
Q 1594 3019 2269 2859 
Q 2944 2700 3267 2529 
Q 3591 2359 3773 2064 
Q 3956 1769 3956 1334 
Q 3956 941 3737 597 
Q 3519 253 3119 86 
Q 2719 -81 2122 -81 
Q 1253 -81 787 320 
Q 322 722 231 1491 
z
" transform="scale(0.015625)"/>
     <path id="Arial-BoldMT-61" d="M 1116 2306 
L 319 2450 
Q 453 2931 781 3162 
Q 1109 3394 1756 3394 
Q 2344 3394 2631 3255 
Q 2919 3116 3036 2902 
Q 3153 2688 3153 2116 
L 3144 1091 
Q 3144 653 3186 445 
Q 3228 238 3344 0 
L 2475 0 
Q 2441 88 2391 259 
Q 2369 338 2359 363 
Q 2134 144 1878 34 
Q 1622 -75 1331 -75 
Q 819 -75 523 203 
Q 228 481 228 906 
Q 228 1188 362 1408 
Q 497 1628 739 1745 
Q 981 1863 1438 1950 
Q 2053 2066 2291 2166 
L 2291 2253 
Q 2291 2506 2166 2614 
Q 2041 2722 1694 2722 
Q 1459 2722 1328 2630 
Q 1197 2538 1116 2306 
z
M 2291 1594 
Q 2122 1538 1756 1459 
Q 1391 1381 1278 1306 
Q 1106 1184 1106 997 
Q 1106 813 1243 678 
Q 1381 544 1594 544 
Q 1831 544 2047 700 
Q 2206 819 2256 991 
Q 2291 1103 2291 1419 
L 2291 1594 
z
" transform="scale(0.015625)"/>
     <path id="Arial-BoldMT-76" d="M 1372 0 
L 34 3319 
L 956 3319 
L 1581 1625 
L 1763 1059 
Q 1834 1275 1853 1344 
Q 1897 1484 1947 1625 
L 2578 3319 
L 3481 3319 
L 2163 0 
L 1372 0 
z
" transform="scale(0.015625)"/>
     <path id="Arial-BoldMT-69" d="M 459 3769 
L 459 4581 
L 1338 4581 
L 1338 3769 
L 459 3769 
z
M 459 0 
L 459 3319 
L 1338 3319 
L 1338 0 
L 459 0 
z
" transform="scale(0.015625)"/>
     <path id="Arial-BoldMT-6e" d="M 3478 0 
L 2600 0 
L 2600 1694 
Q 2600 2231 2544 2389 
Q 2488 2547 2361 2634 
Q 2234 2722 2056 2722 
Q 1828 2722 1647 2597 
Q 1466 2472 1398 2265 
Q 1331 2059 1331 1503 
L 1331 0 
L 453 0 
L 453 3319 
L 1269 3319 
L 1269 2831 
Q 1703 3394 2363 3394 
Q 2653 3394 2893 3289 
Q 3134 3184 3257 3021 
Q 3381 2859 3429 2653 
Q 3478 2447 3478 2063 
L 3478 0 
z
" transform="scale(0.015625)"/>
     <path id="Arial-BoldMT-67" d="M 378 -219 
L 1381 -341 
Q 1406 -516 1497 -581 
Q 1622 -675 1891 -675 
Q 2234 -675 2406 -572 
Q 2522 -503 2581 -350 
Q 2622 -241 2622 53 
L 2622 538 
Q 2228 0 1628 0 
Q 959 0 569 566 
Q 263 1013 263 1678 
Q 263 2513 664 2953 
Q 1066 3394 1663 3394 
Q 2278 3394 2678 2853 
L 2678 3319 
L 3500 3319 
L 3500 341 
Q 3500 -247 3403 -537 
Q 3306 -828 3131 -993 
Q 2956 -1159 2664 -1253 
Q 2372 -1347 1925 -1347 
Q 1081 -1347 728 -1058 
Q 375 -769 375 -325 
Q 375 -281 378 -219 
z
M 1163 1728 
Q 1163 1200 1367 954 
Q 1572 709 1872 709 
Q 2194 709 2416 961 
Q 2638 1213 2638 1706 
Q 2638 2222 2425 2472 
Q 2213 2722 1888 2722 
Q 1572 2722 1367 2476 
Q 1163 2231 1163 1728 
z
" transform="scale(0.015625)"/>
     <path id="Arial-BoldMT-73" d="M 150 947 
L 1031 1081 
Q 1088 825 1259 692 
Q 1431 559 1741 559 
Q 2081 559 2253 684 
Q 2369 772 2369 919 
Q 2369 1019 2306 1084 
Q 2241 1147 2013 1200 
Q 950 1434 666 1628 
Q 272 1897 272 2375 
Q 272 2806 612 3100 
Q 953 3394 1669 3394 
Q 2350 3394 2681 3172 
Q 3013 2950 3138 2516 
L 2309 2363 
Q 2256 2556 2107 2659 
Q 1959 2763 1684 2763 
Q 1338 2763 1188 2666 
Q 1088 2597 1088 2488 
Q 1088 2394 1175 2328 
Q 1294 2241 1995 2081 
Q 2697 1922 2975 1691 
Q 3250 1456 3250 1038 
Q 3250 581 2869 253 
Q 2488 -75 1741 -75 
Q 1063 -75 667 200 
Q 272 475 150 947 
z
" transform="scale(0.015625)"/>
     <path id="Arial-BoldMT-52" d="M 469 0 
L 469 4581 
L 2416 4581 
Q 3150 4581 3483 4457 
Q 3816 4334 4016 4018 
Q 4216 3703 4216 3297 
Q 4216 2781 3912 2445 
Q 3609 2109 3006 2022 
Q 3306 1847 3501 1637 
Q 3697 1428 4028 894 
L 4588 0 
L 3481 0 
L 2813 997 
Q 2456 1531 2325 1670 
Q 2194 1809 2047 1861 
Q 1900 1913 1581 1913 
L 1394 1913 
L 1394 0 
L 469 0 
z
M 1394 2644 
L 2078 2644 
Q 2744 2644 2909 2700 
Q 3075 2756 3169 2893 
Q 3263 3031 3263 3238 
Q 3263 3469 3139 3611 
Q 3016 3753 2791 3791 
Q 2678 3806 2116 3806 
L 1394 3806 
L 1394 2644 
z
" transform="scale(0.015625)"/>
     <path id="Arial-BoldMT-65" d="M 2381 1056 
L 3256 909 
Q 3088 428 2723 176 
Q 2359 -75 1813 -75 
Q 947 -75 531 491 
Q 203 944 203 1634 
Q 203 2459 634 2926 
Q 1066 3394 1725 3394 
Q 2466 3394 2894 2905 
Q 3322 2416 3303 1406 
L 1103 1406 
Q 1113 1016 1316 798 
Q 1519 581 1822 581 
Q 2028 581 2168 693 
Q 2309 806 2381 1056 
z
M 2431 1944 
Q 2422 2325 2234 2523 
Q 2047 2722 1778 2722 
Q 1491 2722 1303 2513 
Q 1116 2303 1119 1944 
L 2431 1944 
z
" transform="scale(0.015625)"/>
     <path id="Arial-BoldMT-6c" d="M 459 0 
L 459 4581 
L 1338 4581 
L 1338 0 
L 459 0 
z
" transform="scale(0.015625)"/>
     <path id="Arial-BoldMT-74" d="M 1981 3319 
L 1981 2619 
L 1381 2619 
L 1381 1281 
Q 1381 875 1398 808 
Q 1416 741 1477 697 
Q 1538 653 1625 653 
Q 1747 653 1978 738 
L 2053 56 
Q 1747 -75 1359 -75 
Q 1122 -75 931 4 
Q 741 84 652 211 
Q 563 338 528 553 
Q 500 706 500 1172 
L 500 2619 
L 97 2619 
L 97 3319 
L 500 3319 
L 500 3978 
L 1381 4491 
L 1381 3319 
L 1981 3319 
z
" transform="scale(0.015625)"/>
     <path id="Arial-BoldMT-6f" d="M 256 1706 
Q 256 2144 472 2553 
Q 688 2963 1083 3178 
Q 1478 3394 1966 3394 
Q 2719 3394 3200 2905 
Q 3681 2416 3681 1669 
Q 3681 916 3195 420 
Q 2709 -75 1972 -75 
Q 1516 -75 1102 131 
Q 688 338 472 736 
Q 256 1134 256 1706 
z
M 1156 1659 
Q 1156 1166 1390 903 
Q 1625 641 1969 641 
Q 2313 641 2545 903 
Q 2778 1166 2778 1666 
Q 2778 2153 2545 2415 
Q 2313 2678 1969 2678 
Q 1625 2678 1390 2415 
Q 1156 2153 1156 1659 
z
" transform="scale(0.015625)"/>
     <path id="Arial-BoldMT-68" d="M 1334 4581 
L 1334 2897 
Q 1759 3394 2350 3394 
Q 2653 3394 2897 3281 
Q 3141 3169 3264 2994 
Q 3388 2819 3433 2606 
Q 3478 2394 3478 1947 
L 3478 0 
L 2600 0 
L 2600 1753 
Q 2600 2275 2550 2415 
Q 2500 2556 2373 2639 
Q 2247 2722 2056 2722 
Q 1838 2722 1666 2615 
Q 1494 2509 1414 2295 
Q 1334 2081 1334 1663 
L 1334 0 
L 456 0 
L 456 4581 
L 1334 4581 
z
" transform="scale(0.015625)"/>
     <path id="Arial-BoldMT-70" d="M 434 3319 
L 1253 3319 
L 1253 2831 
Q 1413 3081 1684 3237 
Q 1956 3394 2288 3394 
Q 2866 3394 3269 2941 
Q 3672 2488 3672 1678 
Q 3672 847 3265 386 
Q 2859 -75 2281 -75 
Q 2006 -75 1782 34 
Q 1559 144 1313 409 
L 1313 -1263 
L 434 -1263 
L 434 3319 
z
M 1303 1716 
Q 1303 1156 1525 889 
Q 1747 622 2066 622 
Q 2372 622 2575 867 
Q 2778 1113 2778 1672 
Q 2778 2194 2568 2447 
Q 2359 2700 2050 2700 
Q 1728 2700 1515 2451 
Q 1303 2203 1303 1716 
z
" transform="scale(0.015625)"/>
     <path id="Arial-BoldMT-62" d="M 422 0 
L 422 4581 
L 1300 4581 
L 1300 2931 
Q 1706 3394 2263 3394 
Q 2869 3394 3266 2955 
Q 3663 2516 3663 1694 
Q 3663 844 3258 384 
Q 2853 -75 2275 -75 
Q 1991 -75 1714 67 
Q 1438 209 1238 488 
L 1238 0 
L 422 0 
z
M 1294 1731 
Q 1294 1216 1456 969 
Q 1684 619 2063 619 
Q 2353 619 2558 867 
Q 2763 1116 2763 1650 
Q 2763 2219 2556 2470 
Q 2350 2722 2028 2722 
Q 1713 2722 1503 2476 
Q 1294 2231 1294 1731 
z
" transform="scale(0.015625)"/>
     <path id="Arial-BoldMT-79" d="M 44 3319 
L 978 3319 
L 1772 963 
L 2547 3319 
L 3456 3319 
L 2284 125 
L 2075 -453 
Q 1959 -744 1854 -897 
Q 1750 -1050 1614 -1145 
Q 1478 -1241 1279 -1294 
Q 1081 -1347 831 -1347 
Q 578 -1347 334 -1294 
L 256 -606 
Q 463 -647 628 -647 
Q 934 -647 1081 -467 
Q 1228 -288 1306 -9 
L 44 3319 
z
" transform="scale(0.015625)"/>
     <path id="Arial-BoldMT-51" d="M 4153 581 
Q 4494 338 4894 194 
L 4553 -459 
Q 4344 -397 4144 -288 
Q 4100 -266 3528 119 
Q 3078 -78 2531 -78 
Q 1475 -78 876 544 
Q 278 1166 278 2291 
Q 278 3413 878 4036 
Q 1478 4659 2506 4659 
Q 3525 4659 4122 4036 
Q 4719 3413 4719 2291 
Q 4719 1697 4553 1247 
Q 4428 903 4153 581 
z
M 3409 1103 
Q 3588 1313 3677 1609 
Q 3766 1906 3766 2291 
Q 3766 3084 3416 3476 
Q 3066 3869 2500 3869 
Q 1934 3869 1582 3475 
Q 1231 3081 1231 2291 
Q 1231 1488 1582 1089 
Q 1934 691 2472 691 
Q 2672 691 2850 756 
Q 2569 941 2278 1044 
L 2538 1572 
Q 2994 1416 3409 1103 
z
" transform="scale(0.015625)"/>
     <path id="Arial-BoldMT-75" d="M 2644 0 
L 2644 497 
Q 2463 231 2167 78 
Q 1872 -75 1544 -75 
Q 1209 -75 943 72 
Q 678 219 559 484 
Q 441 750 441 1219 
L 441 3319 
L 1319 3319 
L 1319 1794 
Q 1319 1094 1367 936 
Q 1416 778 1544 686 
Q 1672 594 1869 594 
Q 2094 594 2272 717 
Q 2450 841 2515 1023 
Q 2581 1206 2581 1919 
L 2581 3319 
L 3459 3319 
L 3459 0 
L 2644 0 
z
" transform="scale(0.015625)"/>
     <path id="Arial-BoldMT-72" d="M 1300 0 
L 422 0 
L 422 3319 
L 1238 3319 
L 1238 2847 
Q 1447 3181 1614 3287 
Q 1781 3394 1994 3394 
Q 2294 3394 2572 3228 
L 2300 2463 
Q 2078 2606 1888 2606 
Q 1703 2606 1575 2504 
Q 1447 2403 1373 2137 
Q 1300 1872 1300 1025 
L 1300 0 
z
" transform="scale(0.015625)"/>
     <path id="Arial-BoldMT-64" d="M 3503 0 
L 2688 0 
L 2688 488 
Q 2484 203 2207 64 
Q 1931 -75 1650 -75 
Q 1078 -75 670 386 
Q 263 847 263 1672 
Q 263 2516 659 2955 
Q 1056 3394 1663 3394 
Q 2219 3394 2625 2931 
L 2625 4581 
L 3503 4581 
L 3503 0 
z
M 1159 1731 
Q 1159 1200 1306 963 
Q 1519 619 1900 619 
Q 2203 619 2415 876 
Q 2628 1134 2628 1647 
Q 2628 2219 2422 2470 
Q 2216 2722 1894 2722 
Q 1581 2722 1370 2473 
Q 1159 2225 1159 1731 
z
" transform="scale(0.015625)"/>
     <path id="Arial-BoldMT-28" d="M 1916 -1347 
L 1313 -1347 
Q 834 -625 584 153 
Q 334 931 334 1659 
Q 334 2563 644 3369 
Q 913 4069 1325 4659 
L 1925 4659 
Q 1497 3713 1336 3048 
Q 1175 2384 1175 1641 
Q 1175 1128 1270 590 
Q 1366 53 1531 -431 
Q 1641 -750 1916 -1347 
z
" transform="scale(0.015625)"/>
     <path id="Arial-BoldMT-4c" d="M 491 0 
L 491 4544 
L 1416 4544 
L 1416 772 
L 3716 772 
L 3716 0 
L 491 0 
z
" transform="scale(0.015625)"/>
     <path id="Arial-BoldMT-2c" d="M 438 878 
L 1316 878 
L 1316 250 
Q 1316 -131 1250 -351 
Q 1184 -572 1001 -747 
Q 819 -922 538 -1022 
L 366 -659 
Q 631 -572 743 -419 
Q 856 -266 863 0 
L 438 0 
L 438 878 
z
" transform="scale(0.015625)"/>
     <path id="Arial-BoldMT-77" d="M 1078 0 
L 28 3319 
L 881 3319 
L 1503 1144 
L 2075 3319 
L 2922 3319 
L 3475 1144 
L 4109 3319 
L 4975 3319 
L 3909 0 
L 3066 0 
L 2494 2134 
L 1931 0 
L 1078 0 
z
" transform="scale(0.015625)"/>
     <path id="Arial-BoldMT-29" d="M 216 -1347 
Q 475 -791 581 -494 
Q 688 -197 778 190 
Q 869 578 912 926 
Q 956 1275 956 1641 
Q 956 2384 797 3048 
Q 638 3713 209 4659 
L 806 4659 
Q 1278 3988 1539 3234 
Q 1800 2481 1800 1706 
Q 1800 1053 1594 306 
Q 1359 -531 822 -1347 
L 216 -1347 
z
" transform="scale(0.015625)"/>
    </defs>
    <use xlink:href="#Arial-BoldMT-41"/>
    <use xlink:href="#Arial-BoldMT-2f" transform="translate(72.216797 0)"/>
    <use xlink:href="#Arial-BoldMT-42" transform="translate(100 0)"/>
    <use xlink:href="#Arial-BoldMT-20" transform="translate(172.216797 0)"/>
    <use xlink:href="#Arial-BoldMT-53" transform="translate(200 0)"/>
    <use xlink:href="#Arial-BoldMT-61" transform="translate(266.699219 0)"/>
    <use xlink:href="#Arial-BoldMT-76" transform="translate(322.314453 0)"/>
    <use xlink:href="#Arial-BoldMT-69" transform="translate(377.929688 0)"/>
    <use xlink:href="#Arial-BoldMT-6e" transform="translate(405.712891 0)"/>
    <use xlink:href="#Arial-BoldMT-67" transform="translate(466.796875 0)"/>
    <use xlink:href="#Arial-BoldMT-73" transform="translate(527.880859 0)"/>
    <use xlink:href="#Arial-BoldMT-20" transform="translate(583.496094 0)"/>
    <use xlink:href="#Arial-BoldMT-52" transform="translate(611.279297 0)"/>
    <use xlink:href="#Arial-BoldMT-65" transform="translate(683.496094 0)"/>
    <use xlink:href="#Arial-BoldMT-6c" transform="translate(739.111328 0)"/>
    <use xlink:href="#Arial-BoldMT-61" transform="translate(766.894531 0)"/>
    <use xlink:href="#Arial-BoldMT-74" transform="translate(822.509766 0)"/>
    <use xlink:href="#Arial-BoldMT-69" transform="translate(855.810547 0)"/>
    <use xlink:href="#Arial-BoldMT-6f" transform="translate(883.59375 0)"/>
    <use xlink:href="#Arial-BoldMT-6e" transform="translate(944.677734 0)"/>
    <use xlink:href="#Arial-BoldMT-73" transform="translate(1005.761719 0)"/>
    <use xlink:href="#Arial-BoldMT-68" transform="translate(1061.376953 0)"/>
    <use xlink:href="#Arial-BoldMT-69" transform="translate(1122.460938 0)"/>
    <use xlink:href="#Arial-BoldMT-70" transform="translate(1150.244141 0)"/>
    <use xlink:href="#Arial-BoldMT-20" transform="translate(1211.328125 0)"/>
    <use xlink:href="#Arial-BoldMT-62" transform="translate(1239.111328 0)"/>
    <use xlink:href="#Arial-BoldMT-79" transform="translate(1300.195312 0)"/>
    <use xlink:href="#Arial-BoldMT-20" transform="translate(1355.810547 0)"/>
    <use xlink:href="#Arial-BoldMT-51" transform="translate(1383.59375 0)"/>
    <use xlink:href="#Arial-BoldMT-75" transform="translate(1461.376953 0)"/>
    <use xlink:href="#Arial-BoldMT-65" transform="translate(1522.460938 0)"/>
    <use xlink:href="#Arial-BoldMT-72" transform="translate(1578.076172 0)"/>
    <use xlink:href="#Arial-BoldMT-79" transform="translate(1616.992188 0)"/>
    <use xlink:href="#Arial-BoldMT-20" transform="translate(1672.607422 0)"/>
    <use xlink:href="#Arial-BoldMT-61" transform="translate(1700.390625 0)"/>
    <use xlink:href="#Arial-BoldMT-6e" transform="translate(1756.005859 0)"/>
    <use xlink:href="#Arial-BoldMT-64" transform="translate(1817.089844 0)"/>
    <use xlink:href="#Arial-BoldMT-20" transform="translate(1878.173828 0)"/>
    <use xlink:href="#Arial-BoldMT-50" transform="translate(1905.957031 0)"/>
    <use xlink:href="#Arial-BoldMT-43" transform="translate(1972.65625 0)"/>
    <use xlink:href="#Arial-BoldMT-20" transform="translate(2044.873047 0)"/>
    <use xlink:href="#Arial-BoldMT-28" transform="translate(2072.65625 0)"/>
    <use xlink:href="#Arial-BoldMT-52" transform="translate(2105.957031 0)"/>
    <use xlink:href="#Arial-BoldMT-41" transform="translate(2178.173828 0)"/>
    <use xlink:href="#Arial-BoldMT-50" transform="translate(2250.390625 0)"/>
    <use xlink:href="#Arial-BoldMT-4c" transform="translate(2317.089844 0)"/>
    <use xlink:href="#Arial-BoldMT-2c" transform="translate(2378.173828 0)"/>
    <use xlink:href="#Arial-BoldMT-20" transform="translate(2405.957031 0)"/>
    <use xlink:href="#Arial-BoldMT-41" transform="translate(2429.990234 0)"/>
    <use xlink:href="#Arial-BoldMT-62" transform="translate(2502.207031 0)"/>
    <use xlink:href="#Arial-BoldMT-73" transform="translate(2563.291016 0)"/>
    <use xlink:href="#Arial-BoldMT-6f" transform="translate(2618.90625 0)"/>
    <use xlink:href="#Arial-BoldMT-6c" transform="translate(2679.990234 0)"/>
    <use xlink:href="#Arial-BoldMT-75" transform="translate(2707.773438 0)"/>
    <use xlink:href="#Arial-BoldMT-74" transform="translate(2768.857422 0)"/>
    <use xlink:href="#Arial-BoldMT-65" transform="translate(2802.158203 0)"/>
    <use xlink:href="#Arial-BoldMT-2c" transform="translate(2857.773438 0)"/>
    <use xlink:href="#Arial-BoldMT-20" transform="translate(2885.556641 0)"/>
    <use xlink:href="#Arial-BoldMT-72" transform="translate(2913.339844 0)"/>
    <use xlink:href="#Arial-BoldMT-61" transform="translate(2952.255859 0)"/>
    <use xlink:href="#Arial-BoldMT-77" transform="translate(3007.871094 0)"/>
    <use xlink:href="#Arial-BoldMT-29" transform="translate(3085.654297 0)"/>
   </g>
  </g>
  <g id="legend_1">
   <g id="line2d_35">
    <path d="M 244.779219 45.485719 
L 253.779219 45.485719 
L 262.779219 45.485719 
" style="fill: none; stroke: #ffffff; stroke-width: 1.5; stroke-linecap: round"/>
    <defs>
     <path id="m60af64c7de" d="M 0 4 
C 1.060812 4 2.078319 3.578535 2.828427 2.828427 
C 3.578535 2.078319 4 1.060812 4 0 
C 4 -1.060812 3.578535 -2.078319 2.828427 -2.828427 
C 2.078319 -3.578535 1.060812 -4 0 -4 
C -1.060812 -4 -2.078319 -3.578535 -2.828427 -2.828427 
C -3.578535 -2.078319 -4 -1.060812 -4 0 
C -4 1.060812 -3.578535 2.078319 -2.828427 2.828427 
C -2.078319 3.578535 -1.060812 4 0 4 
z
" style="stroke: #000000"/>
    </defs>
    <g>
     <use xlink:href="#m60af64c7de" x="253.779219" y="45.485719" style="fill: #39d353; stroke: #000000"/>
    </g>
   </g>
   <g id="text_54">
    <!-- Significant: B lower than A -->
    <g style="fill: #262626" transform="translate(269.979219 48.635719) scale(0.09 -0.09)">
     <defs>
      <path id="ArialMT-63" d="M 2588 1216 
L 3141 1144 
Q 3050 572 2676 248 
Q 2303 -75 1759 -75 
Q 1078 -75 664 370 
Q 250 816 250 1647 
Q 250 2184 428 2587 
Q 606 2991 970 3192 
Q 1334 3394 1763 3394 
Q 2303 3394 2647 3120 
Q 2991 2847 3088 2344 
L 2541 2259 
Q 2463 2594 2264 2762 
Q 2066 2931 1784 2931 
Q 1359 2931 1093 2626 
Q 828 2322 828 1663 
Q 828 994 1084 691 
Q 1341 388 1753 388 
Q 2084 388 2306 591 
Q 2528 794 2588 1216 
z
" transform="scale(0.015625)"/>
      <path id="ArialMT-42" d="M 469 0 
L 469 4581 
L 2188 4581 
Q 2713 4581 3030 4442 
Q 3347 4303 3526 4014 
Q 3706 3725 3706 3409 
Q 3706 3116 3547 2856 
Q 3388 2597 3066 2438 
Q 3481 2316 3704 2022 
Q 3928 1728 3928 1328 
Q 3928 1006 3792 729 
Q 3656 453 3456 303 
Q 3256 153 2954 76 
Q 2653 0 2216 0 
L 469 0 
z
M 1075 2656 
L 2066 2656 
Q 2469 2656 2644 2709 
Q 2875 2778 2992 2937 
Q 3109 3097 3109 3338 
Q 3109 3566 3000 3739 
Q 2891 3913 2687 3977 
Q 2484 4041 1991 4041 
L 1075 4041 
L 1075 2656 
z
M 1075 541 
L 2216 541 
Q 2509 541 2628 563 
Q 2838 600 2978 687 
Q 3119 775 3209 942 
Q 3300 1109 3300 1328 
Q 3300 1584 3169 1773 
Q 3038 1963 2805 2039 
Q 2572 2116 2134 2116 
L 1075 2116 
L 1075 541 
z
" transform="scale(0.015625)"/>
      <path id="ArialMT-6c" d="M 409 0 
L 409 4581 
L 972 4581 
L 972 0 
L 409 0 
z
" transform="scale(0.015625)"/>
      <path id="ArialMT-77" d="M 1034 0 
L 19 3319 
L 600 3319 
L 1128 1403 
L 1325 691 
Q 1338 744 1497 1375 
L 2025 3319 
L 2603 3319 
L 3100 1394 
L 3266 759 
L 3456 1400 
L 4025 3319 
L 4572 3319 
L 3534 0 
L 2950 0 
L 2422 1988 
L 2294 2553 
L 1622 0 
L 1034 0 
z
" transform="scale(0.015625)"/>
      <path id="ArialMT-68" d="M 422 0 
L 422 4581 
L 984 4581 
L 984 2938 
Q 1378 3394 1978 3394 
Q 2347 3394 2619 3248 
Q 2891 3103 3008 2847 
Q 3125 2591 3125 2103 
L 3125 0 
L 2563 0 
L 2563 2103 
Q 2563 2525 2380 2717 
Q 2197 2909 1863 2909 
Q 1613 2909 1392 2779 
Q 1172 2650 1078 2428 
Q 984 2206 984 1816 
L 984 0 
L 422 0 
z
" transform="scale(0.015625)"/>
     </defs>
     <use xlink:href="#ArialMT-53"/>
     <use xlink:href="#ArialMT-69" transform="translate(66.699219 0)"/>
     <use xlink:href="#ArialMT-67" transform="translate(88.916016 0)"/>
     <use xlink:href="#ArialMT-6e" transform="translate(144.53125 0)"/>
     <use xlink:href="#ArialMT-69" transform="translate(200.146484 0)"/>
     <use xlink:href="#ArialMT-66" transform="translate(222.363281 0)"/>
     <use xlink:href="#ArialMT-69" transform="translate(250.146484 0)"/>
     <use xlink:href="#ArialMT-63" transform="translate(272.363281 0)"/>
     <use xlink:href="#ArialMT-61" transform="translate(322.363281 0)"/>
     <use xlink:href="#ArialMT-6e" transform="translate(377.978516 0)"/>
     <use xlink:href="#ArialMT-74" transform="translate(433.59375 0)"/>
     <use xlink:href="#ArialMT-3a" transform="translate(461.376953 0)"/>
     <use xlink:href="#ArialMT-20" transform="translate(489.160156 0)"/>
     <use xlink:href="#ArialMT-42" transform="translate(516.943359 0)"/>
     <use xlink:href="#ArialMT-20" transform="translate(583.642578 0)"/>
     <use xlink:href="#ArialMT-6c" transform="translate(611.425781 0)"/>
     <use xlink:href="#ArialMT-6f" transform="translate(633.642578 0)"/>
     <use xlink:href="#ArialMT-77" transform="translate(689.257812 0)"/>
     <use xlink:href="#ArialMT-65" transform="translate(761.474609 0)"/>
     <use xlink:href="#ArialMT-72" transform="translate(817.089844 0)"/>
     <use xlink:href="#ArialMT-20" transform="translate(850.390625 0)"/>
     <use xlink:href="#ArialMT-74" transform="translate(878.173828 0)"/>
     <use xlink:href="#ArialMT-68" transform="translate(905.957031 0)"/>
     <use xlink:href="#ArialMT-61" transform="translate(961.572266 0)"/>
     <use xlink:href="#ArialMT-6e" transform="translate(1017.1875 0)"/>
     <use xlink:href="#ArialMT-20" transform="translate(1072.802734 0)"/>
     <use xlink:href="#ArialMT-41" transform="translate(1095.085938 0)"/>
    </g>
   </g>
   <g id="line2d_36">
    <path d="M 392.535312 45.485719 
L 401.535312 45.485719 
L 410.535312 45.485719 
" style="fill: none; stroke: #ffffff; stroke-width: 1.5; stroke-linecap: round"/>
    <defs>
     <path id="mc963fd9f2a" d="M 0 4 
C 1.060812 4 2.078319 3.578535 2.828427 2.828427 
C 3.578535 2.078319 4 1.060812 4 0 
C 4 -1.060812 3.578535 -2.078319 2.828427 -2.828427 
C 2.078319 -3.578535 1.060812 -4 0 -4 
C -1.060812 -4 -2.078319 -3.578535 -2.828427 -2.828427 
C -3.578535 -2.078319 -4 -1.060812 -4 0 
C -4 1.060812 -3.578535 2.078319 -2.828427 2.828427 
C -2.078319 3.578535 -1.060812 4 0 4 
z
" style="stroke: #000000"/>
    </defs>
    <g>
     <use xlink:href="#mc963fd9f2a" x="401.535312" y="45.485719" style="fill: #8fbaf5; stroke: #000000"/>
    </g>
   </g>
   <g id="text_55">
    <!-- Not significant or mixed -->
    <g style="fill: #262626" transform="translate(417.735312 48.635719) scale(0.09 -0.09)">
     <defs>
      <path id="ArialMT-4e" d="M 488 0 
L 488 4581 
L 1109 4581 
L 3516 984 
L 3516 4581 
L 4097 4581 
L 4097 0 
L 3475 0 
L 1069 3600 
L 1069 0 
L 488 0 
z
" transform="scale(0.015625)"/>
      <path id="ArialMT-64" d="M 2575 0 
L 2575 419 
Q 2259 -75 1647 -75 
Q 1250 -75 917 144 
Q 584 363 401 755 
Q 219 1147 219 1656 
Q 219 2153 384 2558 
Q 550 2963 881 3178 
Q 1213 3394 1622 3394 
Q 1922 3394 2156 3267 
Q 2391 3141 2538 2938 
L 2538 4581 
L 3097 4581 
L 3097 0 
L 2575 0 
z
M 797 1656 
Q 797 1019 1065 703 
Q 1334 388 1700 388 
Q 2069 388 2326 689 
Q 2584 991 2584 1609 
Q 2584 2291 2321 2609 
Q 2059 2928 1675 2928 
Q 1300 2928 1048 2622 
Q 797 2316 797 1656 
z
" transform="scale(0.015625)"/>
     </defs>
     <use xlink:href="#ArialMT-4e"/>
     <use xlink:href="#ArialMT-6f" transform="translate(72.216797 0)"/>
     <use xlink:href="#ArialMT-74" transform="translate(127.832031 0)"/>
     <use xlink:href="#ArialMT-20" transform="translate(155.615234 0)"/>
     <use xlink:href="#ArialMT-73" transform="translate(183.398438 0)"/>
     <use xlink:href="#ArialMT-69" transform="translate(233.398438 0)"/>
     <use xlink:href="#ArialMT-67" transform="translate(255.615234 0)"/>
     <use xlink:href="#ArialMT-6e" transform="translate(311.230469 0)"/>
     <use xlink:href="#ArialMT-69" transform="translate(366.845703 0)"/>
     <use xlink:href="#ArialMT-66" transform="translate(389.0625 0)"/>
     <use xlink:href="#ArialMT-69" transform="translate(416.845703 0)"/>
     <use xlink:href="#ArialMT-63" transform="translate(439.0625 0)"/>
     <use xlink:href="#ArialMT-61" transform="translate(489.0625 0)"/>
     <use xlink:href="#ArialMT-6e" transform="translate(544.677734 0)"/>
     <use xlink:href="#ArialMT-74" transform="translate(600.292969 0)"/>
     <use xlink:href="#ArialMT-20" transform="translate(628.076172 0)"/>
     <use xlink:href="#ArialMT-6f" transform="translate(655.859375 0)"/>
     <use xlink:href="#ArialMT-72" transform="translate(711.474609 0)"/>
     <use xlink:href="#ArialMT-20" transform="translate(744.775391 0)"/>
     <use xlink:href="#ArialMT-6d" transform="translate(772.558594 0)"/>
     <use xlink:href="#ArialMT-69" transform="translate(855.859375 0)"/>
     <use xlink:href="#ArialMT-78" transform="translate(878.076172 0)"/>
     <use xlink:href="#ArialMT-65" transform="translate(928.076172 0)"/>
     <use xlink:href="#ArialMT-64" transform="translate(983.691406 0)"/>
    </g>
   </g>
   <g id="line2d_37">
    <path d="M 529.267812 45.485719 
L 538.267812 45.485719 
L 547.267812 45.485719 
" style="fill: none; stroke: #ffffff; stroke-width: 1.5; stroke-linecap: round"/>
    <defs>
     <path id="m4adfc2b926" d="M 0 4 
C 1.060812 4 2.078319 3.578535 2.828427 2.828427 
C 3.578535 2.078319 4 1.060812 4 0 
C 4 -1.060812 3.578535 -2.078319 2.828427 -2.828427 
C 2.078319 -3.578535 1.060812 -4 0 -4 
C -1.060812 -4 -2.078319 -3.578535 -2.828427 -2.828427 
C -3.578535 -2.078319 -4 -1.060812 -4 0 
C -4 1.060812 -3.578535 2.078319 -2.828427 2.828427 
C -2.078319 3.578535 -1.060812 4 0 4 
z
" style="stroke: #000000"/>
    </defs>
    <g>
     <use xlink:href="#m4adfc2b926" x="538.267812" y="45.485719" style="fill: #f4a261; stroke: #000000"/>
    </g>
   </g>
   <g id="text_56">
    <!-- Significant: A lower than B -->
    <g style="fill: #262626" transform="translate(554.467813 48.635719) scale(0.09 -0.09)">
     <use xlink:href="#ArialMT-53"/>
     <use xlink:href="#ArialMT-69" transform="translate(66.699219 0)"/>
     <use xlink:href="#ArialMT-67" transform="translate(88.916016 0)"/>
     <use xlink:href="#ArialMT-6e" transform="translate(144.53125 0)"/>
     <use xlink:href="#ArialMT-69" transform="translate(200.146484 0)"/>
     <use xlink:href="#ArialMT-66" transform="translate(222.363281 0)"/>
     <use xlink:href="#ArialMT-69" transform="translate(250.146484 0)"/>
     <use xlink:href="#ArialMT-63" transform="translate(272.363281 0)"/>
     <use xlink:href="#ArialMT-61" transform="translate(322.363281 0)"/>
     <use xlink:href="#ArialMT-6e" transform="translate(377.978516 0)"/>
     <use xlink:href="#ArialMT-74" transform="translate(433.59375 0)"/>
     <use xlink:href="#ArialMT-3a" transform="translate(461.376953 0)"/>
     <use xlink:href="#ArialMT-20" transform="translate(489.160156 0)"/>
     <use xlink:href="#ArialMT-41" transform="translate(511.443359 0)"/>
     <use xlink:href="#ArialMT-20" transform="translate(572.642578 0)"/>
     <use xlink:href="#ArialMT-6c" transform="translate(600.425781 0)"/>
     <use xlink:href="#ArialMT-6f" transform="translate(622.642578 0)"/>
     <use xlink:href="#ArialMT-77" transform="translate(678.257812 0)"/>
     <use xlink:href="#ArialMT-65" transform="translate(750.474609 0)"/>
     <use xlink:href="#ArialMT-72" transform="translate(806.089844 0)"/>
     <use xlink:href="#ArialMT-20" transform="translate(839.390625 0)"/>
     <use xlink:href="#ArialMT-74" transform="translate(867.173828 0)"/>
     <use xlink:href="#ArialMT-68" transform="translate(894.957031 0)"/>
     <use xlink:href="#ArialMT-61" transform="translate(950.572266 0)"/>
     <use xlink:href="#ArialMT-6e" transform="translate(1006.1875 0)"/>
     <use xlink:href="#ArialMT-20" transform="translate(1061.802734 0)"/>
     <use xlink:href="#ArialMT-42" transform="translate(1089.585938 0)"/>
    </g>
   </g>
  </g>
 </g>
 <defs>
  <clipPath id="p02b2d371bc">
   <rect x="62.854063" y="78.624" width="386.307692" height="308.016"/>
  </clipPath>
  <clipPath id="p0e70d7c8d9">
   <rect x="480.06637" y="78.624" width="386.307692" height="308.016"/>
  </clipPath>
 </defs>
</svg>
