<?xml version="1.0" encoding="utf-8" standalone="no"?>
<!DOCTYPE svg PUBLIC "-//W3C//DTD SVG 1.1//EN"
  "http://www.w3.org/Graphics/SVG/1.1/DTD/svg11.dtd">
<svg xmlns:xlink="http://www.w3.org/1999/xlink" width="864pt" height="360pt" viewBox="0 0 864 360" xmlns="http://www.w3.org/2000/svg" version="1.1">
 <metadata>
  <rdf:RDF xmlns:dc="http://purl.org/dc/elements/1.1/" xmlns:cc="http://creativecommons.org/ns#" xmlns:rdf="http://www.w3.org/1999/02/22-rdf-syntax-ns#">
   <cc:Work>
    <dc:type rdf:resource="http://purl.org/dc/dcmitype/StillImage"/>
    <dc:date>2026-05-18T21:23:21.704347</dc:date>
    <dc:format>image/svg+xml</dc:format>
    <dc:creator>
     <cc:Agent>
      <dc:title>Matplotlib v3.10.1, https://matplotlib.org/</dc:title>
     </cc:Agent>
    </dc:creator>
   </cc:Work>
  </rdf:RDF>
 </metadata>
 <defs>
  <style type="text/css">*{stroke-linejoin: round; stroke-linecap: butt}</style>
 </defs>
 <g id="figure_1">
  <g id="patch_1">
   <path d="M 0 360 
L 864 360 
L 864 0 
L 0 0 
z
" style="fill: #ffffff"/>
  </g>
  <g id="axes_1">
   <g id="patch_2">
    <path d="M 61.83 275.519409 
L 851.04 275.519409 
L 851.04 27.65625 
L 61.83 27.65625 
z
" style="fill: #ffffff"/>
   </g>
   <g id="matplotlib.axis_1">
    <g id="xtick_1">
     <g id="line2d_1">
      <path d="M 90.016071 275.519409 
L 90.016071 27.65625 
" clip-path="url(#p347c71649f)" style="fill: none; stroke: #cccccc; stroke-linecap: round"/>
     </g>
     <g id="text_1">
      <!-- APX1090 A -->
      <g style="fill: #262626" transform="translate(48.682366 330.374674) rotate(-45) scale(0.11 -0.11)">
       <defs>
        <path id="ArialMT-41" d="M -9 0 
L 1750 4581 
L 2403 4581 
L 4278 0 
L 3588 0 
L 3053 1388 
L 1138 1388 
L 634 0 
L -9 0 
z
M 1313 1881 
L 2866 1881 
L 2388 3150 
Q 2169 3728 2063 4100 
Q 1975 3659 1816 3225 
L 1313 1881 
z
" transform="scale(0.015625)"/>
        <path id="ArialMT-50" d="M 494 0 
L 494 4581 
L 2222 4581 
Q 2678 4581 2919 4538 
Q 3256 4481 3484 4323 
Q 3713 4166 3852 3881 
Q 3991 3597 3991 3256 
Q 3991 2672 3619 2267 
Q 3247 1863 2275 1863 
L 1100 1863 
L 1100 0 
L 494 0 
z
M 1100 2403 
L 2284 2403 
Q 2872 2403 3119 2622 
Q 3366 2841 3366 3238 
Q 3366 3525 3220 3729 
Q 3075 3934 2838 4000 
Q 2684 4041 2272 4041 
L 1100 4041 
L 1100 2403 
z
" transform="scale(0.015625)"/>
        <path id="ArialMT-58" d="M 28 0 
L 1800 2388 
L 238 4581 
L 959 4581 
L 1791 3406 
Q 2050 3041 2159 2844 
Q 2313 3094 2522 3366 
L 3444 4581 
L 4103 4581 
L 2494 2422 
L 4228 0 
L 3478 0 
L 2325 1634 
Q 2228 1775 2125 1941 
Q 1972 1691 1906 1597 
L 756 0 
L 28 0 
z
" transform="scale(0.015625)"/>
        <path id="ArialMT-31" d="M 2384 0 
L 1822 0 
L 1822 3584 
Q 1619 3391 1289 3197 
Q 959 3003 697 2906 
L 697 3450 
Q 1169 3672 1522 3987 
Q 1875 4303 2022 4600 
L 2384 4600 
L 2384 0 
z
" transform="scale(0.015625)"/>
        <path id="ArialMT-30" d="M 266 2259 
Q 266 3072 433 3567 
Q 600 4063 929 4331 
Q 1259 4600 1759 4600 
Q 2128 4600 2406 4451 
Q 2684 4303 2865 4023 
Q 3047 3744 3150 3342 
Q 3253 2941 3253 2259 
Q 3253 1453 3087 958 
Q 2922 463 2592 192 
Q 2263 -78 1759 -78 
Q 1097 -78 719 397 
Q 266 969 266 2259 
z
M 844 2259 
Q 844 1131 1108 757 
Q 1372 384 1759 384 
Q 2147 384 2411 759 
Q 2675 1134 2675 2259 
Q 2675 3391 2411 3762 
Q 2147 4134 1753 4134 
Q 1366 4134 1134 3806 
Q 844 3388 844 2259 
z
" transform="scale(0.015625)"/>
        <path id="ArialMT-39" d="M 350 1059 
L 891 1109 
Q 959 728 1153 556 
Q 1347 384 1650 384 
Q 1909 384 2104 503 
Q 2300 622 2425 820 
Q 2550 1019 2634 1356 
Q 2719 1694 2719 2044 
Q 2719 2081 2716 2156 
Q 2547 1888 2255 1720 
Q 1963 1553 1622 1553 
Q 1053 1553 659 1965 
Q 266 2378 266 3053 
Q 266 3750 677 4175 
Q 1088 4600 1706 4600 
Q 2153 4600 2523 4359 
Q 2894 4119 3086 3673 
Q 3278 3228 3278 2384 
Q 3278 1506 3087 986 
Q 2897 466 2520 194 
Q 2144 -78 1638 -78 
Q 1100 -78 759 220 
Q 419 519 350 1059 
z
M 2653 3081 
Q 2653 3566 2395 3850 
Q 2138 4134 1775 4134 
Q 1400 4134 1122 3828 
Q 844 3522 844 3034 
Q 844 2597 1108 2323 
Q 1372 2050 1759 2050 
Q 2150 2050 2401 2323 
Q 2653 2597 2653 3081 
z
" transform="scale(0.015625)"/>
        <path id="ArialMT-20" transform="scale(0.015625)"/>
       </defs>
       <use xlink:href="#ArialMT-41"/>
       <use xlink:href="#ArialMT-50" transform="translate(66.699219 0)"/>
       <use xlink:href="#ArialMT-58" transform="translate(133.398438 0)"/>
       <use xlink:href="#ArialMT-31" transform="translate(200.097656 0)"/>
       <use xlink:href="#ArialMT-30" transform="translate(255.712891 0)"/>
       <use xlink:href="#ArialMT-39" transform="translate(311.328125 0)"/>
       <use xlink:href="#ArialMT-30" transform="translate(366.943359 0)"/>
       <use xlink:href="#ArialMT-20" transform="translate(422.558594 0)"/>
       <use xlink:href="#ArialMT-41" transform="translate(444.841797 0)"/>
      </g>
     </g>
    </g>
    <g id="xtick_2">
     <g id="line2d_2">
      <path d="M 146.388214 275.519409 
L 146.388214 27.65625 
" clip-path="url(#p347c71649f)" style="fill: none; stroke: #cccccc; stroke-linecap: round"/>
     </g>
     <g id="text_2">
      <!-- APX1090 B -->
      <g style="fill: #262626" transform="translate(104.626709 330.802474) rotate(-45) scale(0.11 -0.11)">
       <defs>
        <path id="ArialMT-42" d="M 469 0 
L 469 4581 
L 2188 4581 
Q 2713 4581 3030 4442 
Q 3347 4303 3526 4014 
Q 3706 3725 3706 3409 
Q 3706 3116 3547 2856 
Q 3388 2597 3066 2438 
Q 3481 2316 3704 2022 
Q 3928 1728 3928 1328 
Q 3928 1006 3792 729 
Q 3656 453 3456 303 
Q 3256 153 2954 76 
Q 2653 0 2216 0 
L 469 0 
z
M 1075 2656 
L 2066 2656 
Q 2469 2656 2644 2709 
Q 2875 2778 2992 2937 
Q 3109 3097 3109 3338 
Q 3109 3566 3000 3739 
Q 2891 3913 2687 3977 
Q 2484 4041 1991 4041 
L 1075 4041 
L 1075 2656 
z
M 1075 541 
L 2216 541 
Q 2509 541 2628 563 
Q 2838 600 2978 687 
Q 3119 775 3209 942 
Q 3300 1109 3300 1328 
Q 3300 1584 3169 1773 
Q 3038 1963 2805 2039 
Q 2572 2116 2134 2116 
L 1075 2116 
L 1075 541 
z
" transform="scale(0.015625)"/>
       </defs>
       <use xlink:href="#ArialMT-41"/>
       <use xlink:href="#ArialMT-50" transform="translate(66.699219 0)"/>
       <use xlink:href="#ArialMT-58" transform="translate(133.398438 0)"/>
       <use xlink:href="#ArialMT-31" transform="translate(200.097656 0)"/>
       <use xlink:href="#ArialMT-30" transform="translate(255.712891 0)"/>
       <use xlink:href="#ArialMT-39" transform="translate(311.328125 0)"/>
       <use xlink:href="#ArialMT-30" transform="translate(366.943359 0)"/>
       <use xlink:href="#ArialMT-20" transform="translate(422.558594 0)"/>
       <use xlink:href="#ArialMT-42" transform="translate(450.341797 0)"/>
      </g>
     </g>
    </g>
    <g id="xtick_3">
     <g id="line2d_3">
      <path d="M 259.1325 275.519409 
L 259.1325 27.65625 
" clip-path="url(#p347c71649f)" style="fill: none; stroke: #cccccc; stroke-linecap: round"/>
     </g>
     <g id="text_3">
      <!-- APX1092 A -->
      <g style="fill: #262626" transform="translate(217.798794 330.374674) rotate(-45) scale(0.11 -0.11)">
       <defs>
        <path id="ArialMT-32" d="M 3222 541 
L 3222 0 
L 194 0 
Q 188 203 259 391 
Q 375 700 629 1000 
Q 884 1300 1366 1694 
Q 2113 2306 2375 2664 
Q 2638 3022 2638 3341 
Q 2638 3675 2398 3904 
Q 2159 4134 1775 4134 
Q 1369 4134 1125 3890 
Q 881 3647 878 3216 
L 300 3275 
Q 359 3922 746 4261 
Q 1134 4600 1788 4600 
Q 2447 4600 2831 4234 
Q 3216 3869 3216 3328 
Q 3216 3053 3103 2787 
Q 2991 2522 2730 2228 
Q 2469 1934 1863 1422 
Q 1356 997 1212 845 
Q 1069 694 975 541 
L 3222 541 
z
" transform="scale(0.015625)"/>
       </defs>
       <use xlink:href="#ArialMT-41"/>
       <use xlink:href="#ArialMT-50" transform="translate(66.699219 0)"/>
       <use xlink:href="#ArialMT-58" transform="translate(133.398438 0)"/>
       <use xlink:href="#ArialMT-31" transform="translate(200.097656 0)"/>
       <use xlink:href="#ArialMT-30" transform="translate(255.712891 0)"/>
       <use xlink:href="#ArialMT-39" transform="translate(311.328125 0)"/>
       <use xlink:href="#ArialMT-32" transform="translate(366.943359 0)"/>
       <use xlink:href="#ArialMT-20" transform="translate(422.558594 0)"/>
       <use xlink:href="#ArialMT-41" transform="translate(444.841797 0)"/>
      </g>
     </g>
    </g>
    <g id="xtick_4">
     <g id="line2d_4">
      <path d="M 315.504643 275.519409 
L 315.504643 27.65625 
" clip-path="url(#p347c71649f)" style="fill: none; stroke: #cccccc; stroke-linecap: round"/>
     </g>
     <g id="text_4">
      <!-- APX1092 B -->
      <g style="fill: #262626" transform="translate(273.743137 330.802474) rotate(-45) scale(0.11 -0.11)">
       <use xlink:href="#ArialMT-41"/>
       <use xlink:href="#ArialMT-50" transform="translate(66.699219 0)"/>
       <use xlink:href="#ArialMT-58" transform="translate(133.398438 0)"/>
       <use xlink:href="#ArialMT-31" transform="translate(200.097656 0)"/>
       <use xlink:href="#ArialMT-30" transform="translate(255.712891 0)"/>
       <use xlink:href="#ArialMT-39" transform="translate(311.328125 0)"/>
       <use xlink:href="#ArialMT-32" transform="translate(366.943359 0)"/>
       <use xlink:href="#ArialMT-20" transform="translate(422.558594 0)"/>
       <use xlink:href="#ArialMT-42" transform="translate(450.341797 0)"/>
      </g>
     </g>
    </g>
    <g id="xtick_5">
     <g id="line2d_5">
      <path d="M 428.248929 275.519409 
L 428.248929 27.65625 
" clip-path="url(#p347c71649f)" style="fill: none; stroke: #cccccc; stroke-linecap: round"/>
     </g>
     <g id="text_5">
      <!-- APX1173 A -->
      <g style="fill: #262626" transform="translate(387.488863 329.801034) rotate(-45) scale(0.11 -0.11)">
       <defs>
        <path id="ArialMT-37" d="M 303 3981 
L 303 4522 
L 3269 4522 
L 3269 4084 
Q 2831 3619 2401 2847 
Q 1972 2075 1738 1259 
Q 1569 684 1522 0 
L 944 0 
Q 953 541 1156 1306 
Q 1359 2072 1739 2783 
Q 2119 3494 2547 3981 
L 303 3981 
z
" transform="scale(0.015625)"/>
        <path id="ArialMT-33" d="M 269 1209 
L 831 1284 
Q 928 806 1161 595 
Q 1394 384 1728 384 
Q 2125 384 2398 659 
Q 2672 934 2672 1341 
Q 2672 1728 2419 1979 
Q 2166 2231 1775 2231 
Q 1616 2231 1378 2169 
L 1441 2663 
Q 1497 2656 1531 2656 
Q 1891 2656 2178 2843 
Q 2466 3031 2466 3422 
Q 2466 3731 2256 3934 
Q 2047 4138 1716 4138 
Q 1388 4138 1169 3931 
Q 950 3725 888 3313 
L 325 3413 
Q 428 3978 793 4289 
Q 1159 4600 1703 4600 
Q 2078 4600 2393 4439 
Q 2709 4278 2876 4000 
Q 3044 3722 3044 3409 
Q 3044 3113 2884 2869 
Q 2725 2625 2413 2481 
Q 2819 2388 3044 2092 
Q 3269 1797 3269 1353 
Q 3269 753 2831 336 
Q 2394 -81 1725 -81 
Q 1122 -81 723 278 
Q 325 638 269 1209 
z
" transform="scale(0.015625)"/>
       </defs>
       <use xlink:href="#ArialMT-41"/>
       <use xlink:href="#ArialMT-50" transform="translate(66.699219 0)"/>
       <use xlink:href="#ArialMT-58" transform="translate(133.398438 0)"/>
       <use xlink:href="#ArialMT-31" transform="translate(200.097656 0)"/>
       <use xlink:href="#ArialMT-31" transform="translate(248.337891 0)"/>
       <use xlink:href="#ArialMT-37" transform="translate(303.953125 0)"/>
       <use xlink:href="#ArialMT-33" transform="translate(359.568359 0)"/>
       <use xlink:href="#ArialMT-20" transform="translate(415.183594 0)"/>
       <use xlink:href="#ArialMT-41" transform="translate(437.466797 0)"/>
      </g>
     </g>
    </g>
    <g id="xtick_6">
     <g id="line2d_6">
      <path d="M 484.621071 275.519409 
L 484.621071 27.65625 
" clip-path="url(#p347c71649f)" style="fill: none; stroke: #cccccc; stroke-linecap: round"/>
     </g>
     <g id="text_6">
      <!-- APX1173 B -->
      <g style="fill: #262626" transform="translate(443.433206 330.228834) rotate(-45) scale(0.11 -0.11)">
       <use xlink:href="#ArialMT-41"/>
       <use xlink:href="#ArialMT-50" transform="translate(66.699219 0)"/>
       <use xlink:href="#ArialMT-58" transform="translate(133.398438 0)"/>
       <use xlink:href="#ArialMT-31" transform="translate(200.097656 0)"/>
       <use xlink:href="#ArialMT-31" transform="translate(248.337891 0)"/>
       <use xlink:href="#ArialMT-37" transform="translate(303.953125 0)"/>
       <use xlink:href="#ArialMT-33" transform="translate(359.568359 0)"/>
       <use xlink:href="#ArialMT-20" transform="translate(415.183594 0)"/>
       <use xlink:href="#ArialMT-42" transform="translate(442.966797 0)"/>
      </g>
     </g>
    </g>
    <g id="xtick_7">
     <g id="line2d_7">
      <path d="M 597.365357 275.519409 
L 597.365357 27.65625 
" clip-path="url(#p347c71649f)" style="fill: none; stroke: #cccccc; stroke-linecap: round"/>
     </g>
     <g id="text_7">
      <!-- PE002 A -->
      <g style="fill: #262626" transform="translate(565.545331 320.860995) rotate(-45) scale(0.11 -0.11)">
       <defs>
        <path id="ArialMT-45" d="M 506 0 
L 506 4581 
L 3819 4581 
L 3819 4041 
L 1113 4041 
L 1113 2638 
L 3647 2638 
L 3647 2100 
L 1113 2100 
L 1113 541 
L 3925 541 
L 3925 0 
L 506 0 
z
" transform="scale(0.015625)"/>
       </defs>
       <use xlink:href="#ArialMT-50"/>
       <use xlink:href="#ArialMT-45" transform="translate(66.699219 0)"/>
       <use xlink:href="#ArialMT-30" transform="translate(133.398438 0)"/>
       <use xlink:href="#ArialMT-30" transform="translate(189.013672 0)"/>
       <use xlink:href="#ArialMT-32" transform="translate(244.628906 0)"/>
       <use xlink:href="#ArialMT-20" transform="translate(300.244141 0)"/>
       <use xlink:href="#ArialMT-41" transform="translate(322.527344 0)"/>
      </g>
     </g>
    </g>
    <g id="xtick_8">
     <g id="line2d_8">
      <path d="M 653.7375 275.519409 
L 653.7375 27.65625 
" clip-path="url(#p347c71649f)" style="fill: none; stroke: #cccccc; stroke-linecap: round"/>
     </g>
     <g id="text_8">
      <!-- PE002 B -->
      <g style="fill: #262626" transform="translate(621.489674 321.288794) rotate(-45) scale(0.11 -0.11)">
       <use xlink:href="#ArialMT-50"/>
       <use xlink:href="#ArialMT-45" transform="translate(66.699219 0)"/>
       <use xlink:href="#ArialMT-30" transform="translate(133.398438 0)"/>
       <use xlink:href="#ArialMT-30" transform="translate(189.013672 0)"/>
       <use xlink:href="#ArialMT-32" transform="translate(244.628906 0)"/>
       <use xlink:href="#ArialMT-20" transform="translate(300.244141 0)"/>
       <use xlink:href="#ArialMT-42" transform="translate(328.027344 0)"/>
      </g>
     </g>
    </g>
    <g id="xtick_9">
     <g id="line2d_9">
      <path d="M 766.481786 275.519409 
L 766.481786 27.65625 
" clip-path="url(#p347c71649f)" style="fill: none; stroke: #cccccc; stroke-linecap: round"/>
     </g>
     <g id="text_9">
      <!-- PE019 A -->
      <g style="fill: #262626" transform="translate(734.66176 320.860995) rotate(-45) scale(0.11 -0.11)">
       <use xlink:href="#ArialMT-50"/>
       <use xlink:href="#ArialMT-45" transform="translate(66.699219 0)"/>
       <use xlink:href="#ArialMT-30" transform="translate(133.398438 0)"/>
       <use xlink:href="#ArialMT-31" transform="translate(189.013672 0)"/>
       <use xlink:href="#ArialMT-39" transform="translate(244.628906 0)"/>
       <use xlink:href="#ArialMT-20" transform="translate(300.244141 0)"/>
       <use xlink:href="#ArialMT-41" transform="translate(322.527344 0)"/>
      </g>
     </g>
    </g>
    <g id="xtick_10">
     <g id="line2d_10">
      <path d="M 822.853929 275.519409 
L 822.853929 27.65625 
" clip-path="url(#p347c71649f)" style="fill: none; stroke: #cccccc; stroke-linecap: round"/>
     </g>
     <g id="text_10">
      <!-- PE019 B -->
      <g style="fill: #262626" transform="translate(790.606103 321.288794) rotate(-45) scale(0.11 -0.11)">
       <use xlink:href="#ArialMT-50"/>
       <use xlink:href="#ArialMT-45" transform="translate(66.699219 0)"/>
       <use xlink:href="#ArialMT-30" transform="translate(133.398438 0)"/>
       <use xlink:href="#ArialMT-31" transform="translate(189.013672 0)"/>
       <use xlink:href="#ArialMT-39" transform="translate(244.628906 0)"/>
       <use xlink:href="#ArialMT-20" transform="translate(300.244141 0)"/>
       <use xlink:href="#ArialMT-42" transform="translate(328.027344 0)"/>
      </g>
     </g>
    </g>
    <g id="text_11">
     <!-- Query -->
     <g style="fill: #262626" transform="translate(440.097187 345.091511) scale(0.12 -0.12)">
      <defs>
       <path id="ArialMT-51" d="M 3966 491 
Q 4388 200 4744 66 
L 4566 -356 
Q 4072 -178 3581 206 
Q 3072 -78 2456 -78 
Q 1834 -78 1328 222 
Q 822 522 548 1065 
Q 275 1609 275 2291 
Q 275 2969 550 3525 
Q 825 4081 1333 4372 
Q 1841 4663 2469 4663 
Q 3103 4663 3612 4361 
Q 4122 4059 4389 3517 
Q 4656 2975 4656 2294 
Q 4656 1728 4484 1276 
Q 4313 825 3966 491 
z
M 2631 1266 
Q 3156 1119 3497 828 
Q 4031 1316 4031 2294 
Q 4031 2850 3842 3265 
Q 3653 3681 3289 3911 
Q 2925 4141 2472 4141 
Q 1794 4141 1347 3677 
Q 900 3213 900 2291 
Q 900 1397 1342 919 
Q 1784 441 2472 441 
Q 2797 441 3084 563 
Q 2800 747 2484 825 
L 2631 1266 
z
" transform="scale(0.015625)"/>
       <path id="ArialMT-75" d="M 2597 0 
L 2597 488 
Q 2209 -75 1544 -75 
Q 1250 -75 995 37 
Q 741 150 617 320 
Q 494 491 444 738 
Q 409 903 409 1263 
L 409 3319 
L 972 3319 
L 972 1478 
Q 972 1038 1006 884 
Q 1059 663 1231 536 
Q 1403 409 1656 409 
Q 1909 409 2131 539 
Q 2353 669 2445 892 
Q 2538 1116 2538 1541 
L 2538 3319 
L 3100 3319 
L 3100 0 
L 2597 0 
z
" transform="scale(0.015625)"/>
       <path id="ArialMT-65" d="M 2694 1069 
L 3275 997 
Q 3138 488 2766 206 
Q 2394 -75 1816 -75 
Q 1088 -75 661 373 
Q 234 822 234 1631 
Q 234 2469 665 2931 
Q 1097 3394 1784 3394 
Q 2450 3394 2872 2941 
Q 3294 2488 3294 1666 
Q 3294 1616 3291 1516 
L 816 1516 
Q 847 969 1125 678 
Q 1403 388 1819 388 
Q 2128 388 2347 550 
Q 2566 713 2694 1069 
z
M 847 1978 
L 2700 1978 
Q 2663 2397 2488 2606 
Q 2219 2931 1791 2931 
Q 1403 2931 1139 2672 
Q 875 2413 847 1978 
z
" transform="scale(0.015625)"/>
       <path id="ArialMT-72" d="M 416 0 
L 416 3319 
L 922 3319 
L 922 2816 
Q 1116 3169 1280 3281 
Q 1444 3394 1641 3394 
Q 1925 3394 2219 3213 
L 2025 2691 
Q 1819 2813 1613 2813 
Q 1428 2813 1281 2702 
Q 1134 2591 1072 2394 
Q 978 2094 978 1738 
L 978 0 
L 416 0 
z
" transform="scale(0.015625)"/>
       <path id="ArialMT-79" d="M 397 -1278 
L 334 -750 
Q 519 -800 656 -800 
Q 844 -800 956 -737 
Q 1069 -675 1141 -563 
Q 1194 -478 1313 -144 
Q 1328 -97 1363 -6 
L 103 3319 
L 709 3319 
L 1400 1397 
Q 1534 1031 1641 628 
Q 1738 1016 1872 1384 
L 2581 3319 
L 3144 3319 
L 1881 -56 
Q 1678 -603 1566 -809 
Q 1416 -1088 1222 -1217 
Q 1028 -1347 759 -1347 
Q 597 -1347 397 -1278 
z
" transform="scale(0.015625)"/>
      </defs>
      <use xlink:href="#ArialMT-51"/>
      <use xlink:href="#ArialMT-75" transform="translate(77.783203 0)"/>
      <use xlink:href="#ArialMT-65" transform="translate(133.398438 0)"/>
      <use xlink:href="#ArialMT-72" transform="translate(189.013672 0)"/>
      <use xlink:href="#ArialMT-79" transform="translate(222.314453 0)"/>
     </g>
    </g>
   </g>
   <g id="matplotlib.axis_2">
    <g id="ytick_1">
     <g id="line2d_11">
      <path d="M 61.83 268.661852 
L 851.04 268.661852 
" clip-path="url(#p347c71649f)" style="fill: none; stroke: #cccccc; stroke-opacity: 0.3; stroke-linecap: round"/>
     </g>
     <g id="text_12">
      <!-- 0 -->
      <g style="fill: #262626" transform="translate(46.212969 272.598649) scale(0.11 -0.11)">
       <use xlink:href="#ArialMT-30"/>
      </g>
     </g>
    </g>
    <g id="ytick_2">
     <g id="line2d_12">
      <path d="M 61.83 239.101736 
L 851.04 239.101736 
" clip-path="url(#p347c71649f)" style="fill: none; stroke: #cccccc; stroke-opacity: 0.3; stroke-linecap: round"/>
     </g>
     <g id="text_13">
      <!-- 250 -->
      <g style="fill: #262626" transform="translate(33.978906 243.038533) scale(0.11 -0.11)">
       <defs>
        <path id="ArialMT-35" d="M 266 1200 
L 856 1250 
Q 922 819 1161 601 
Q 1400 384 1738 384 
Q 2144 384 2425 690 
Q 2706 997 2706 1503 
Q 2706 1984 2436 2262 
Q 2166 2541 1728 2541 
Q 1456 2541 1237 2417 
Q 1019 2294 894 2097 
L 366 2166 
L 809 4519 
L 3088 4519 
L 3088 3981 
L 1259 3981 
L 1013 2750 
Q 1425 3038 1878 3038 
Q 2478 3038 2890 2622 
Q 3303 2206 3303 1553 
Q 3303 931 2941 478 
Q 2500 -78 1738 -78 
Q 1113 -78 717 272 
Q 322 622 266 1200 
z
" transform="scale(0.015625)"/>
       </defs>
       <use xlink:href="#ArialMT-32"/>
       <use xlink:href="#ArialMT-35" transform="translate(55.615234 0)"/>
       <use xlink:href="#ArialMT-30" transform="translate(111.230469 0)"/>
      </g>
     </g>
    </g>
    <g id="ytick_3">
     <g id="line2d_13">
      <path d="M 61.83 209.54162 
L 851.04 209.54162 
" clip-path="url(#p347c71649f)" style="fill: none; stroke: #cccccc; stroke-opacity: 0.3; stroke-linecap: round"/>
     </g>
     <g id="text_14">
      <!-- 500 -->
      <g style="fill: #262626" transform="translate(33.978906 213.478417) scale(0.11 -0.11)">
       <use xlink:href="#ArialMT-35"/>
       <use xlink:href="#ArialMT-30" transform="translate(55.615234 0)"/>
       <use xlink:href="#ArialMT-30" transform="translate(111.230469 0)"/>
      </g>
     </g>
    </g>
    <g id="ytick_4">
     <g id="line2d_14">
      <path d="M 61.83 179.981504 
L 851.04 179.981504 
" clip-path="url(#p347c71649f)" style="fill: none; stroke: #cccccc; stroke-opacity: 0.3; stroke-linecap: round"/>
     </g>
     <g id="text_15">
      <!-- 750 -->
      <g style="fill: #262626" transform="translate(33.978906 183.918301) scale(0.11 -0.11)">
       <use xlink:href="#ArialMT-37"/>
       <use xlink:href="#ArialMT-35" transform="translate(55.615234 0)"/>
       <use xlink:href="#ArialMT-30" transform="translate(111.230469 0)"/>
      </g>
     </g>
    </g>
    <g id="ytick_5">
     <g id="line2d_15">
      <path d="M 61.83 150.421387 
L 851.04 150.421387 
" clip-path="url(#p347c71649f)" style="fill: none; stroke: #cccccc; stroke-opacity: 0.3; stroke-linecap: round"/>
     </g>
     <g id="text_16">
      <!-- 1000 -->
      <g style="fill: #262626" transform="translate(27.861875 154.358184) scale(0.11 -0.11)">
       <use xlink:href="#ArialMT-31"/>
       <use xlink:href="#ArialMT-30" transform="translate(55.615234 0)"/>
       <use xlink:href="#ArialMT-30" transform="translate(111.230469 0)"/>
       <use xlink:href="#ArialMT-30" transform="translate(166.845703 0)"/>
      </g>
     </g>
    </g>
    <g id="ytick_6">
     <g id="line2d_16">
      <path d="M 61.83 120.861271 
L 851.04 120.861271 
" clip-path="url(#p347c71649f)" style="fill: none; stroke: #cccccc; stroke-opacity: 0.3; stroke-linecap: round"/>
     </g>
     <g id="text_17">
      <!-- 1250 -->
      <g style="fill: #262626" transform="translate(27.861875 124.798068) scale(0.11 -0.11)">
       <use xlink:href="#ArialMT-31"/>
       <use xlink:href="#ArialMT-32" transform="translate(55.615234 0)"/>
       <use xlink:href="#ArialMT-35" transform="translate(111.230469 0)"/>
       <use xlink:href="#ArialMT-30" transform="translate(166.845703 0)"/>
      </g>
     </g>
    </g>
    <g id="ytick_7">
     <g id="line2d_17">
      <path d="M 61.83 91.301155 
L 851.04 91.301155 
" clip-path="url(#p347c71649f)" style="fill: none; stroke: #cccccc; stroke-opacity: 0.3; stroke-linecap: round"/>
     </g>
     <g id="text_18">
      <!-- 1500 -->
      <g style="fill: #262626" transform="translate(27.861875 95.237952) scale(0.11 -0.11)">
       <use xlink:href="#ArialMT-31"/>
       <use xlink:href="#ArialMT-35" transform="translate(55.615234 0)"/>
       <use xlink:href="#ArialMT-30" transform="translate(111.230469 0)"/>
       <use xlink:href="#ArialMT-30" transform="translate(166.845703 0)"/>
      </g>
     </g>
    </g>
    <g id="ytick_8">
     <g id="line2d_18">
      <path d="M 61.83 61.741039 
L 851.04 61.741039 
" clip-path="url(#p347c71649f)" style="fill: none; stroke: #cccccc; stroke-opacity: 0.3; stroke-linecap: round"/>
     </g>
     <g id="text_19">
      <!-- 1750 -->
      <g style="fill: #262626" transform="translate(27.861875 65.677836) scale(0.11 -0.11)">
       <use xlink:href="#ArialMT-31"/>
       <use xlink:href="#ArialMT-37" transform="translate(55.615234 0)"/>
       <use xlink:href="#ArialMT-35" transform="translate(111.230469 0)"/>
       <use xlink:href="#ArialMT-30" transform="translate(166.845703 0)"/>
      </g>
     </g>
    </g>
    <g id="ytick_9">
     <g id="line2d_19">
      <path d="M 61.83 32.180922 
L 851.04 32.180922 
" clip-path="url(#p347c71649f)" style="fill: none; stroke: #cccccc; stroke-opacity: 0.3; stroke-linecap: round"/>
     </g>
     <g id="text_20">
      <!-- 2000 -->
      <g style="fill: #262626" transform="translate(27.861875 36.117719) scale(0.11 -0.11)">
       <use xlink:href="#ArialMT-32"/>
       <use xlink:href="#ArialMT-30" transform="translate(55.615234 0)"/>
       <use xlink:href="#ArialMT-30" transform="translate(111.230469 0)"/>
       <use xlink:href="#ArialMT-30" transform="translate(166.845703 0)"/>
      </g>
     </g>
    </g>
    <g id="text_21">
     <!-- Time (ms) -->
     <g style="fill: #262626" transform="translate(21.33625 178.35533) rotate(-90) scale(0.12 -0.12)">
      <defs>
       <path id="ArialMT-54" d="M 1659 0 
L 1659 4041 
L 150 4041 
L 150 4581 
L 3781 4581 
L 3781 4041 
L 2266 4041 
L 2266 0 
L 1659 0 
z
" transform="scale(0.015625)"/>
       <path id="ArialMT-69" d="M 425 3934 
L 425 4581 
L 988 4581 
L 988 3934 
L 425 3934 
z
M 425 0 
L 425 3319 
L 988 3319 
L 988 0 
L 425 0 
z
" transform="scale(0.015625)"/>
       <path id="ArialMT-6d" d="M 422 0 
L 422 3319 
L 925 3319 
L 925 2853 
Q 1081 3097 1340 3245 
Q 1600 3394 1931 3394 
Q 2300 3394 2536 3241 
Q 2772 3088 2869 2813 
Q 3263 3394 3894 3394 
Q 4388 3394 4653 3120 
Q 4919 2847 4919 2278 
L 4919 0 
L 4359 0 
L 4359 2091 
Q 4359 2428 4304 2576 
Q 4250 2725 4106 2815 
Q 3963 2906 3769 2906 
Q 3419 2906 3187 2673 
Q 2956 2441 2956 1928 
L 2956 0 
L 2394 0 
L 2394 2156 
Q 2394 2531 2256 2718 
Q 2119 2906 1806 2906 
Q 1569 2906 1367 2781 
Q 1166 2656 1075 2415 
Q 984 2175 984 1722 
L 984 0 
L 422 0 
z
" transform="scale(0.015625)"/>
       <path id="ArialMT-28" d="M 1497 -1347 
Q 1031 -759 709 28 
Q 388 816 388 1659 
Q 388 2403 628 3084 
Q 909 3875 1497 4659 
L 1900 4659 
Q 1522 4009 1400 3731 
Q 1209 3300 1100 2831 
Q 966 2247 966 1656 
Q 966 153 1900 -1347 
L 1497 -1347 
z
" transform="scale(0.015625)"/>
       <path id="ArialMT-73" d="M 197 991 
L 753 1078 
Q 800 744 1014 566 
Q 1228 388 1613 388 
Q 2000 388 2187 545 
Q 2375 703 2375 916 
Q 2375 1106 2209 1216 
Q 2094 1291 1634 1406 
Q 1016 1563 777 1677 
Q 538 1791 414 1992 
Q 291 2194 291 2438 
Q 291 2659 392 2848 
Q 494 3038 669 3163 
Q 800 3259 1026 3326 
Q 1253 3394 1513 3394 
Q 1903 3394 2198 3281 
Q 2494 3169 2634 2976 
Q 2775 2784 2828 2463 
L 2278 2388 
Q 2241 2644 2061 2787 
Q 1881 2931 1553 2931 
Q 1166 2931 1000 2803 
Q 834 2675 834 2503 
Q 834 2394 903 2306 
Q 972 2216 1119 2156 
Q 1203 2125 1616 2013 
Q 2213 1853 2448 1751 
Q 2684 1650 2818 1456 
Q 2953 1263 2953 975 
Q 2953 694 2789 445 
Q 2625 197 2315 61 
Q 2006 -75 1616 -75 
Q 969 -75 630 194 
Q 291 463 197 991 
z
" transform="scale(0.015625)"/>
       <path id="ArialMT-29" d="M 791 -1347 
L 388 -1347 
Q 1322 153 1322 1656 
Q 1322 2244 1188 2822 
Q 1081 3291 891 3722 
Q 769 4003 388 4659 
L 791 4659 
Q 1378 3875 1659 3084 
Q 1900 2403 1900 1659 
Q 1900 816 1576 28 
Q 1253 -759 791 -1347 
z
" transform="scale(0.015625)"/>
      </defs>
      <use xlink:href="#ArialMT-54"/>
      <use xlink:href="#ArialMT-69" transform="translate(57.333984 0)"/>
      <use xlink:href="#ArialMT-6d" transform="translate(79.550781 0)"/>
      <use xlink:href="#ArialMT-65" transform="translate(162.851562 0)"/>
      <use xlink:href="#ArialMT-20" transform="translate(218.466797 0)"/>
      <use xlink:href="#ArialMT-28" transform="translate(246.25 0)"/>
      <use xlink:href="#ArialMT-6d" transform="translate(279.550781 0)"/>
      <use xlink:href="#ArialMT-73" transform="translate(362.851562 0)"/>
      <use xlink:href="#ArialMT-29" transform="translate(412.851562 0)"/>
     </g>
    </g>
   </g>
   <g id="patch_3">
    <path d="M 73.104429 137.094032 
L 106.927714 137.094032 
L 106.927714 136.811792 
L 73.104429 136.811792 
L 73.104429 137.094032 
z
" clip-path="url(#p347c71649f)" style="fill: #1f77b4; stroke: #333333; stroke-linejoin: miter"/>
   </g>
   <g id="line2d_20">
    <path d="M 90.016071 137.094032 
L 90.016071 137.426642 
" clip-path="url(#p347c71649f)" style="fill: none; stroke: #000000; stroke-linecap: round"/>
   </g>
   <g id="line2d_21">
    <path d="M 90.016071 136.811792 
L 90.016071 136.477526 
" clip-path="url(#p347c71649f)" style="fill: none; stroke: #000000; stroke-linecap: round"/>
   </g>
   <g id="line2d_22">
    <path d="M 81.56025 137.426642 
L 98.471893 137.426642 
" clip-path="url(#p347c71649f)" style="fill: none; stroke: #000000; stroke-linecap: round"/>
   </g>
   <g id="line2d_23">
    <path d="M 81.56025 136.477526 
L 98.471893 136.477526 
" clip-path="url(#p347c71649f)" style="fill: none; stroke: #000000; stroke-linecap: round"/>
   </g>
   <g id="patch_4">
    <path d="M 129.476571 136.210362 
L 163.299857 136.210362 
L 163.299857 135.837254 
L 129.476571 135.837254 
L 129.476571 136.210362 
z
" clip-path="url(#p347c71649f)" style="fill: #ff7f0e; stroke: #333333; stroke-linejoin: miter"/>
   </g>
   <g id="line2d_24">
    <path d="M 146.388214 136.210362 
L 146.388214 136.615039 
" clip-path="url(#p347c71649f)" style="fill: none; stroke: #000000; stroke-linecap: round"/>
   </g>
   <g id="line2d_25">
    <path d="M 146.388214 135.837254 
L 146.388214 135.393143 
" clip-path="url(#p347c71649f)" style="fill: none; stroke: #000000; stroke-linecap: round"/>
   </g>
   <g id="line2d_26">
    <path d="M 137.932393 136.615039 
L 154.844036 136.615039 
" clip-path="url(#p347c71649f)" style="fill: none; stroke: #000000; stroke-linecap: round"/>
   </g>
   <g id="line2d_27">
    <path d="M 137.932393 135.393143 
L 154.844036 135.393143 
" clip-path="url(#p347c71649f)" style="fill: none; stroke: #000000; stroke-linecap: round"/>
   </g>
   <g id="patch_5">
    <path d="M 242.220857 97.731781 
L 276.044143 97.731781 
L 276.044143 97.395564 
L 242.220857 97.395564 
L 242.220857 97.731781 
z
" clip-path="url(#p347c71649f)" style="fill: #1f77b4; stroke: #333333; stroke-linejoin: miter"/>
   </g>
   <g id="line2d_28">
    <path d="M 259.1325 97.731781 
L 259.1325 98.14042 
" clip-path="url(#p347c71649f)" style="fill: none; stroke: #000000; stroke-linecap: round"/>
   </g>
   <g id="line2d_29">
    <path d="M 259.1325 97.395564 
L 259.1325 96.89523 
" clip-path="url(#p347c71649f)" style="fill: none; stroke: #000000; stroke-linecap: round"/>
   </g>
   <g id="line2d_30">
    <path d="M 250.676679 98.14042 
L 267.588321 98.14042 
" clip-path="url(#p347c71649f)" style="fill: none; stroke: #000000; stroke-linecap: round"/>
   </g>
   <g id="line2d_31">
    <path d="M 250.676679 96.89523 
L 267.588321 96.89523 
" clip-path="url(#p347c71649f)" style="fill: none; stroke: #000000; stroke-linecap: round"/>
   </g>
   <g id="patch_6">
    <path d="M 298.593 97.783452 
L 332.416286 97.783452 
L 332.416286 97.583093 
L 298.593 97.583093 
L 298.593 97.783452 
z
" clip-path="url(#p347c71649f)" style="fill: #ff7f0e; stroke: #333333; stroke-linejoin: miter"/>
   </g>
   <g id="line2d_32">
    <path d="M 315.504643 97.783452 
L 315.504643 98.073614 
" clip-path="url(#p347c71649f)" style="fill: none; stroke: #000000; stroke-linecap: round"/>
   </g>
   <g id="line2d_33">
    <path d="M 315.504643 97.583093 
L 315.504643 97.313446 
" clip-path="url(#p347c71649f)" style="fill: none; stroke: #000000; stroke-linecap: round"/>
   </g>
   <g id="line2d_34">
    <path d="M 307.048821 98.073614 
L 323.960464 98.073614 
" clip-path="url(#p347c71649f)" style="fill: none; stroke: #000000; stroke-linecap: round"/>
   </g>
   <g id="line2d_35">
    <path d="M 307.048821 97.313446 
L 323.960464 97.313446 
" clip-path="url(#p347c71649f)" style="fill: none; stroke: #000000; stroke-linecap: round"/>
   </g>
   <g id="patch_7">
    <path d="M 411.337286 40.245277 
L 445.160571 40.245277 
L 445.160571 39.918638 
L 411.337286 39.918638 
L 411.337286 40.245277 
z
" clip-path="url(#p347c71649f)" style="fill: #1f77b4; stroke: #333333; stroke-linejoin: miter"/>
   </g>
   <g id="line2d_36">
    <path d="M 428.248929 40.245277 
L 428.248929 40.701212 
" clip-path="url(#p347c71649f)" style="fill: none; stroke: #000000; stroke-linecap: round"/>
   </g>
   <g id="line2d_37">
    <path d="M 428.248929 39.918638 
L 428.248929 39.480616 
" clip-path="url(#p347c71649f)" style="fill: none; stroke: #000000; stroke-linecap: round"/>
   </g>
   <g id="line2d_38">
    <path d="M 419.793107 40.701212 
L 436.70475 40.701212 
" clip-path="url(#p347c71649f)" style="fill: none; stroke: #000000; stroke-linecap: round"/>
   </g>
   <g id="line2d_39">
    <path d="M 419.793107 39.480616 
L 436.70475 39.480616 
" clip-path="url(#p347c71649f)" style="fill: none; stroke: #000000; stroke-linecap: round"/>
   </g>
   <g id="patch_8">
    <path d="M 467.709429 39.489839 
L 501.532714 39.489839 
L 501.532714 39.216171 
L 467.709429 39.216171 
L 467.709429 39.489839 
z
" clip-path="url(#p347c71649f)" style="fill: #ff7f0e; stroke: #333333; stroke-linejoin: miter"/>
   </g>
   <g id="line2d_40">
    <path d="M 484.621071 39.489839 
L 484.621071 39.734833 
" clip-path="url(#p347c71649f)" style="fill: none; stroke: #000000; stroke-linecap: round"/>
   </g>
   <g id="line2d_41">
    <path d="M 484.621071 39.216171 
L 484.621071 38.922757 
" clip-path="url(#p347c71649f)" style="fill: none; stroke: #000000; stroke-linecap: round"/>
   </g>
   <g id="line2d_42">
    <path d="M 476.16525 39.734833 
L 493.076893 39.734833 
" clip-path="url(#p347c71649f)" style="fill: none; stroke: #000000; stroke-linecap: round"/>
   </g>
   <g id="line2d_43">
    <path d="M 476.16525 38.922757 
L 493.076893 38.922757 
" clip-path="url(#p347c71649f)" style="fill: none; stroke: #000000; stroke-linecap: round"/>
   </g>
   <g id="patch_9">
    <path d="M 580.453714 263.842016 
L 614.277 263.842016 
L 614.277 263.612689 
L 580.453714 263.612689 
L 580.453714 263.842016 
z
" clip-path="url(#p347c71649f)" style="fill: #1f77b4; stroke: #333333; stroke-linejoin: miter"/>
   </g>
   <g id="line2d_44">
    <path d="M 597.365357 263.842016 
L 597.365357 264.007316 
" clip-path="url(#p347c71649f)" style="fill: none; stroke: #000000; stroke-linecap: round"/>
   </g>
   <g id="line2d_45">
    <path d="M 597.365357 263.612689 
L 597.365357 263.417651 
" clip-path="url(#p347c71649f)" style="fill: none; stroke: #000000; stroke-linecap: round"/>
   </g>
   <g id="line2d_46">
    <path d="M 588.909536 264.007316 
L 605.821179 264.007316 
" clip-path="url(#p347c71649f)" style="fill: none; stroke: #000000; stroke-linecap: round"/>
   </g>
   <g id="line2d_47">
    <path d="M 588.909536 263.417651 
L 605.821179 263.417651 
" clip-path="url(#p347c71649f)" style="fill: none; stroke: #000000; stroke-linecap: round"/>
   </g>
   <g id="patch_10">
    <path d="M 636.825857 264.193131 
L 670.649143 264.193131 
L 670.649143 264.116334 
L 636.825857 264.116334 
L 636.825857 264.193131 
z
" clip-path="url(#p347c71649f)" style="fill: #ff7f0e; stroke: #333333; stroke-linejoin: miter"/>
   </g>
   <g id="line2d_48">
    <path d="M 653.7375 264.193131 
L 653.7375 264.252902 
" clip-path="url(#p347c71649f)" style="fill: none; stroke: #000000; stroke-linecap: round"/>
   </g>
   <g id="line2d_49">
    <path d="M 653.7375 264.116334 
L 653.7375 264.00436 
" clip-path="url(#p347c71649f)" style="fill: none; stroke: #000000; stroke-linecap: round"/>
   </g>
   <g id="line2d_50">
    <path d="M 645.281679 264.252902 
L 662.193321 264.252902 
" clip-path="url(#p347c71649f)" style="fill: none; stroke: #000000; stroke-linecap: round"/>
   </g>
   <g id="line2d_51">
    <path d="M 645.281679 264.00436 
L 662.193321 264.00436 
" clip-path="url(#p347c71649f)" style="fill: none; stroke: #000000; stroke-linecap: round"/>
   </g>
   <g id="patch_11">
    <path d="M 749.570143 216.438113 
L 783.393429 216.438113 
L 783.393429 216.007245 
L 749.570143 216.007245 
L 749.570143 216.438113 
z
" clip-path="url(#p347c71649f)" style="fill: #1f77b4; stroke: #333333; stroke-linejoin: miter"/>
   </g>
   <g id="line2d_52">
    <path d="M 766.481786 216.438113 
L 766.481786 216.832209 
" clip-path="url(#p347c71649f)" style="fill: none; stroke: #000000; stroke-linecap: round"/>
   </g>
   <g id="line2d_53">
    <path d="M 766.481786 216.007245 
L 766.481786 215.544925 
" clip-path="url(#p347c71649f)" style="fill: none; stroke: #000000; stroke-linecap: round"/>
   </g>
   <g id="line2d_54">
    <path d="M 758.025964 216.832209 
L 774.937607 216.832209 
" clip-path="url(#p347c71649f)" style="fill: none; stroke: #000000; stroke-linecap: round"/>
   </g>
   <g id="line2d_55">
    <path d="M 758.025964 215.544925 
L 774.937607 215.544925 
" clip-path="url(#p347c71649f)" style="fill: none; stroke: #000000; stroke-linecap: round"/>
   </g>
   <g id="patch_12">
    <path d="M 805.942286 216.780006 
L 839.765571 216.780006 
L 839.765571 216.516034 
L 805.942286 216.516034 
L 805.942286 216.780006 
z
" clip-path="url(#p347c71649f)" style="fill: #ff7f0e; stroke: #333333; stroke-linejoin: miter"/>
   </g>
   <g id="line2d_56">
    <path d="M 822.853929 216.780006 
L 822.853929 217.121188 
" clip-path="url(#p347c71649f)" style="fill: none; stroke: #000000; stroke-linecap: round"/>
   </g>
   <g id="line2d_57">
    <path d="M 822.853929 216.516034 
L 822.853929 216.134708 
" clip-path="url(#p347c71649f)" style="fill: none; stroke: #000000; stroke-linecap: round"/>
   </g>
   <g id="line2d_58">
    <path d="M 814.398107 217.121188 
L 831.30975 217.121188 
" clip-path="url(#p347c71649f)" style="fill: none; stroke: #000000; stroke-linecap: round"/>
   </g>
   <g id="line2d_59">
    <path d="M 814.398107 216.134708 
L 831.30975 216.134708 
" clip-path="url(#p347c71649f)" style="fill: none; stroke: #000000; stroke-linecap: round"/>
   </g>
   <g id="line2d_60">
    <path d="M 73.104429 136.898817 
L 106.927714 136.898817 
" clip-path="url(#p347c71649f)" style="fill: none; stroke: #dd8452"/>
   </g>
   <g id="line2d_61">
    <path d="M 129.476571 136.011895 
L 163.299857 136.011895 
" clip-path="url(#p347c71649f)" style="fill: none; stroke: #dd8452"/>
   </g>
   <g id="line2d_62">
    <path d="M 242.220857 97.597223 
L 276.044143 97.597223 
" clip-path="url(#p347c71649f)" style="fill: none; stroke: #dd8452"/>
   </g>
   <g id="line2d_63">
    <path d="M 298.593 97.68011 
L 332.416286 97.68011 
" clip-path="url(#p347c71649f)" style="fill: none; stroke: #dd8452"/>
   </g>
   <g id="line2d_64">
    <path d="M 411.337286 40.057511 
L 445.160571 40.057511 
" clip-path="url(#p347c71649f)" style="fill: none; stroke: #dd8452"/>
   </g>
   <g id="line2d_65">
    <path d="M 467.709429 39.372071 
L 501.532714 39.372071 
" clip-path="url(#p347c71649f)" style="fill: none; stroke: #dd8452"/>
   </g>
   <g id="line2d_66">
    <path d="M 580.453714 263.739029 
L 614.277 263.739029 
" clip-path="url(#p347c71649f)" style="fill: none; stroke: #dd8452"/>
   </g>
   <g id="line2d_67">
    <path d="M 636.825857 264.163985 
L 670.649143 264.163985 
" clip-path="url(#p347c71649f)" style="fill: none; stroke: #dd8452"/>
   </g>
   <g id="line2d_68">
    <path d="M 749.570143 216.230128 
L 783.393429 216.230128 
" clip-path="url(#p347c71649f)" style="fill: none; stroke: #dd8452"/>
   </g>
   <g id="line2d_69">
    <path d="M 805.942286 216.637703 
L 839.765571 216.637703 
" clip-path="url(#p347c71649f)" style="fill: none; stroke: #dd8452"/>
   </g>
   <g id="patch_13">
    <path d="M 61.83 275.519409 
L 61.83 27.65625 
" style="fill: none; stroke: #cccccc; stroke-width: 1.25; stroke-linejoin: miter; stroke-linecap: square"/>
   </g>
   <g id="patch_14">
    <path d="M 851.04 275.519409 
L 851.04 27.65625 
" style="fill: none; stroke: #cccccc; stroke-width: 1.25; stroke-linejoin: miter; stroke-linecap: square"/>
   </g>
   <g id="patch_15">
    <path d="M 61.83 275.519409 
L 851.04 275.519409 
" style="fill: none; stroke: #cccccc; stroke-width: 1.25; stroke-linejoin: miter; stroke-linecap: square"/>
   </g>
   <g id="patch_16">
    <path d="M 61.83 27.65625 
L 851.04 27.65625 
" style="fill: none; stroke: #cccccc; stroke-width: 1.25; stroke-linejoin: miter; stroke-linecap: square"/>
   </g>
   <g id="text_22">
    <!-- Execution Time by Query (A/B) -->
    <g style="fill: #262626" transform="translate(374.075625 21.65625) scale(0.12 -0.12)">
     <defs>
      <path id="ArialMT-78" d="M 47 0 
L 1259 1725 
L 138 3319 
L 841 3319 
L 1350 2541 
Q 1494 2319 1581 2169 
Q 1719 2375 1834 2534 
L 2394 3319 
L 3066 3319 
L 1919 1756 
L 3153 0 
L 2463 0 
L 1781 1031 
L 1600 1309 
L 728 0 
L 47 0 
z
" transform="scale(0.015625)"/>
      <path id="ArialMT-63" d="M 2588 1216 
L 3141 1144 
Q 3050 572 2676 248 
Q 2303 -75 1759 -75 
Q 1078 -75 664 370 
Q 250 816 250 1647 
Q 250 2184 428 2587 
Q 606 2991 970 3192 
Q 1334 3394 1763 3394 
Q 2303 3394 2647 3120 
Q 2991 2847 3088 2344 
L 2541 2259 
Q 2463 2594 2264 2762 
Q 2066 2931 1784 2931 
Q 1359 2931 1093 2626 
Q 828 2322 828 1663 
Q 828 994 1084 691 
Q 1341 388 1753 388 
Q 2084 388 2306 591 
Q 2528 794 2588 1216 
z
" transform="scale(0.015625)"/>
      <path id="ArialMT-74" d="M 1650 503 
L 1731 6 
Q 1494 -44 1306 -44 
Q 1000 -44 831 53 
Q 663 150 594 308 
Q 525 466 525 972 
L 525 2881 
L 113 2881 
L 113 3319 
L 525 3319 
L 525 4141 
L 1084 4478 
L 1084 3319 
L 1650 3319 
L 1650 2881 
L 1084 2881 
L 1084 941 
Q 1084 700 1114 631 
Q 1144 563 1211 522 
Q 1278 481 1403 481 
Q 1497 481 1650 503 
z
" transform="scale(0.015625)"/>
      <path id="ArialMT-6f" d="M 213 1659 
Q 213 2581 725 3025 
Q 1153 3394 1769 3394 
Q 2453 3394 2887 2945 
Q 3322 2497 3322 1706 
Q 3322 1066 3130 698 
Q 2938 331 2570 128 
Q 2203 -75 1769 -75 
Q 1072 -75 642 372 
Q 213 819 213 1659 
z
M 791 1659 
Q 791 1022 1069 705 
Q 1347 388 1769 388 
Q 2188 388 2466 706 
Q 2744 1025 2744 1678 
Q 2744 2294 2464 2611 
Q 2184 2928 1769 2928 
Q 1347 2928 1069 2612 
Q 791 2297 791 1659 
z
" transform="scale(0.015625)"/>
      <path id="ArialMT-6e" d="M 422 0 
L 422 3319 
L 928 3319 
L 928 2847 
Q 1294 3394 1984 3394 
Q 2284 3394 2536 3286 
Q 2788 3178 2913 3003 
Q 3038 2828 3088 2588 
Q 3119 2431 3119 2041 
L 3119 0 
L 2556 0 
L 2556 2019 
Q 2556 2363 2490 2533 
Q 2425 2703 2258 2804 
Q 2091 2906 1866 2906 
Q 1506 2906 1245 2678 
Q 984 2450 984 1813 
L 984 0 
L 422 0 
z
" transform="scale(0.015625)"/>
      <path id="ArialMT-62" d="M 941 0 
L 419 0 
L 419 4581 
L 981 4581 
L 981 2947 
Q 1338 3394 1891 3394 
Q 2197 3394 2470 3270 
Q 2744 3147 2920 2923 
Q 3097 2700 3197 2384 
Q 3297 2069 3297 1709 
Q 3297 856 2875 390 
Q 2453 -75 1863 -75 
Q 1275 -75 941 416 
L 941 0 
z
M 934 1684 
Q 934 1088 1097 822 
Q 1363 388 1816 388 
Q 2184 388 2453 708 
Q 2722 1028 2722 1663 
Q 2722 2313 2464 2622 
Q 2206 2931 1841 2931 
Q 1472 2931 1203 2611 
Q 934 2291 934 1684 
z
" transform="scale(0.015625)"/>
      <path id="ArialMT-2f" d="M 0 -78 
L 1328 4659 
L 1778 4659 
L 453 -78 
L 0 -78 
z
" transform="scale(0.015625)"/>
     </defs>
     <use xlink:href="#ArialMT-45"/>
     <use xlink:href="#ArialMT-78" transform="translate(66.699219 0)"/>
     <use xlink:href="#ArialMT-65" transform="translate(116.699219 0)"/>
     <use xlink:href="#ArialMT-63" transform="translate(172.314453 0)"/>
     <use xlink:href="#ArialMT-75" transform="translate(222.314453 0)"/>
     <use xlink:href="#ArialMT-74" transform="translate(277.929688 0)"/>
     <use xlink:href="#ArialMT-69" transform="translate(305.712891 0)"/>
     <use xlink:href="#ArialMT-6f" transform="translate(327.929688 0)"/>
     <use xlink:href="#ArialMT-6e" transform="translate(383.544922 0)"/>
     <use xlink:href="#ArialMT-20" transform="translate(439.160156 0)"/>
     <use xlink:href="#ArialMT-54" transform="translate(465.193359 0)"/>
     <use xlink:href="#ArialMT-69" transform="translate(522.527344 0)"/>
     <use xlink:href="#ArialMT-6d" transform="translate(544.744141 0)"/>
     <use xlink:href="#ArialMT-65" transform="translate(628.044922 0)"/>
     <use xlink:href="#ArialMT-20" transform="translate(683.660156 0)"/>
     <use xlink:href="#ArialMT-62" transform="translate(711.443359 0)"/>
     <use xlink:href="#ArialMT-79" transform="translate(767.058594 0)"/>
     <use xlink:href="#ArialMT-20" transform="translate(817.058594 0)"/>
     <use xlink:href="#ArialMT-51" transform="translate(844.841797 0)"/>
     <use xlink:href="#ArialMT-75" transform="translate(922.625 0)"/>
     <use xlink:href="#ArialMT-65" transform="translate(978.240234 0)"/>
     <use xlink:href="#ArialMT-72" transform="translate(1033.855469 0)"/>
     <use xlink:href="#ArialMT-79" transform="translate(1067.15625 0)"/>
     <use xlink:href="#ArialMT-20" transform="translate(1117.15625 0)"/>
     <use xlink:href="#ArialMT-28" transform="translate(1144.939453 0)"/>
     <use xlink:href="#ArialMT-41" transform="translate(1178.240234 0)"/>
     <use xlink:href="#ArialMT-2f" transform="translate(1244.939453 0)"/>
     <use xlink:href="#ArialMT-42" transform="translate(1272.722656 0)"/>
     <use xlink:href="#ArialMT-29" transform="translate(1339.421875 0)"/>
    </g>
   </g>
  </g>
 </g>
 <defs>
  <clipPath id="p347c71649f">
   <rect x="61.83" y="27.65625" width="789.21" height="247.863159"/>
  </clipPath>
 </defs>
</svg>
